<?xml version="1.0" encoding="utf-8"?>
<!-- Generator: Adobe Illustrator 17.0.0, SVG Export Plug-In . SVG Version: 6.00 Build 0)  -->
<!DOCTYPE svg PUBLIC "-//W3C//DTD SVG 1.1//EN" "http://www.w3.org/Graphics/SVG/1.1/DTD/svg11.dtd">
<svg version="1.1" id="Layer_1" xmlns="http://www.w3.org/2000/svg" xmlns:xlink="http://www.w3.org/1999/xlink" x="0px" y="0px"
	 width="859.125px" height="93.418px" viewBox="0 0 859.125 93.418" enable-background="new 0 0 859.125 93.418"
	 xml:space="preserve">
<g>
	<g>
		<path fill="#29ABE2" d="M118.593,53.041h12.11c10.878,0,17.897,7.501,17.897,18.486v0.482c0,10.985-7.019,18.54-17.897,18.54
			h-12.11V53.041z M126.364,60.06v23.47h4.286c5.894,0,9.913-4.126,9.913-11.574v-0.268c0-7.448-4.019-11.628-9.913-11.628H126.364z
			"/>
		<path fill="#29ABE2" d="M152.723,53.041h24.166v7.019h-16.45v8.092h14.469v7.019h-14.469v8.36h16.665v7.019h-24.381V53.041z"/>
		<path fill="#29ABE2" d="M178.387,53.041h8.412l7.93,25.827l7.93-25.827h8.199l-12.646,37.723h-7.179L178.387,53.041z"/>
		<path fill="#29ABE2" d="M213.535,53.041h24.166v7.019h-16.45v8.092h14.469v7.019H221.25v8.36h16.665v7.019h-24.381V53.041z"/>
		<path fill="#29ABE2" d="M242.038,53.041h7.77v30.382h15.164v7.127h-22.934V53.041z"/>
		<path fill="#29ABE2" d="M264.918,72.169v-0.642c0-11.253,7.074-19.13,16.987-19.13c9.966,0,16.932,7.824,16.932,19.022v0.643
			c0,11.2-7.074,19.13-16.987,19.13C271.883,91.192,264.918,83.369,264.918,72.169z M290.798,72.009v-0.375
			c0-7.395-3.75-12.056-8.948-12.056c-5.251,0-8.948,4.608-8.948,12.003v0.375c0,7.394,3.804,12.056,9.003,12.056
			C287.102,84.012,290.798,79.404,290.798,72.009z"/>
		<path fill="#29ABE2" d="M303.012,53.041h12.485c8.413,0,13.717,4.876,13.717,12.86v0.107c0,8.628-6.162,12.968-14.039,13.129
			h-4.393v11.413h-7.77V53.041z M315.121,72.169c4.019,0,6.27-2.518,6.27-6.001v-0.053c0-3.912-2.251-6.055-6.377-6.055h-4.233
			v12.109H315.121z"/>
		<path fill="#29ABE2" d="M332.321,53.041h8.145l8.359,15.217l8.252-15.217h8.198v37.508h-7.609V66.597l-8.841,15.486h-0.16
			l-8.788-15.379v23.845h-7.555V53.041z"/>
		<path fill="#29ABE2" d="M370.789,53.041h24.166v7.019h-16.45v8.092h14.469v7.019h-14.469v8.36h16.665v7.019h-24.381V53.041z"/>
		<path fill="#29ABE2" d="M399.293,53.041h7.127l14.361,21.861V53.041h7.609v37.508h-6.645l-14.843-22.666v22.666h-7.609V53.041z"/>
		<path fill="#29ABE2" d="M441.086,60.221h-9.431v-7.18h26.578v7.18h-9.431v30.328h-7.716V60.221z"/>
	</g>
	<g>
		<path fill="#29ABE2" d="M115.861,37.634l5.053-6.288c2.763,2.41,6.112,4.643,10.226,4.643c3.29,0,5.289-1.646,5.289-4.055v-0.059
			c0-2.057-1.175-3.35-7.052-5.583c-7.286-2.821-11.811-5.582-11.811-12.634V13.54c0-7.169,5.523-12.047,13.456-12.047
			c4.819,0,9.521,1.646,13.282,5.054l-4.76,6.465c-2.586-2.116-5.583-3.82-8.756-3.82c-2.939,0-4.76,1.469-4.76,3.585v0.059
			c0,2.35,1.411,3.467,7.816,6.111c7.169,2.821,11.047,5.876,11.047,12.282v0.117c0,7.64-5.817,12.34-13.81,12.34
			C125.851,43.686,120.385,41.865,115.861,37.634z"/>
		<path fill="#29ABE2" d="M148.472,27.173V2.022h8.52v25.21c0,5.818,2.763,8.698,7.169,8.698c4.408,0,7.169-2.821,7.169-8.521V2.022
			h8.463v24.975c0,11.342-6.23,16.807-15.749,16.807C154.583,43.805,148.472,38.28,148.472,27.173z"/>
		<path fill="#29ABE2" d="M182.319,37.634l5.053-6.288c2.763,2.41,6.113,4.643,10.226,4.643c3.29,0,5.289-1.646,5.289-4.055v-0.059
			c0-2.057-1.175-3.35-7.052-5.583c-7.286-2.821-11.813-5.582-11.813-12.634V13.54c0-7.169,5.524-12.047,13.458-12.047
			c4.819,0,9.521,1.646,13.282,5.054l-4.76,6.465c-2.586-2.116-5.583-3.82-8.756-3.82c-2.939,0-4.76,1.469-4.76,3.585v0.059
			c0,2.35,1.411,3.467,7.816,6.111c7.169,2.821,11.047,5.876,11.047,12.282v0.117c0,7.64-5.817,12.34-13.81,12.34
			C192.309,43.686,186.844,41.865,182.319,37.634z"/>
		<path fill="#29ABE2" d="M222.452,9.896h-10.343V2.022h29.148v7.875h-10.343v33.262h-8.462V9.896z"/>
		<path fill="#29ABE2" d="M252.244,1.787h8.109l14.751,41.371h-8.816l-3.056-8.933H249.07l-2.997,8.933h-8.579L252.244,1.787z
			 M260.647,26.703l-4.466-13.398l-4.525,13.398H260.647z"/>
		<path fill="#29ABE2" d="M278.332,2.022h8.52v41.136h-8.52V2.022z"/>
		<path fill="#29ABE2" d="M293.198,2.022h7.816l15.749,23.977V2.022h8.345v41.136h-7.288L301.542,18.3v24.858h-8.345V2.022z"/>
		<path fill="#29ABE2" d="M342.793,1.787h8.109l14.751,41.371h-8.815l-3.056-8.933H339.62l-2.997,8.933h-8.579L342.793,1.787z
			 M351.197,26.703l-4.467-13.398l-4.525,13.398H351.197z"/>
		<path fill="#29ABE2" d="M368.587,2.022h15.279c4.583,0,8.403,1.234,10.754,3.585c1.822,1.881,2.763,4.114,2.763,6.994v0.176
			c0,4.819-2.646,7.405-5.583,8.991c4.407,1.704,7.345,4.408,7.345,9.814v0.294c0,7.405-5.936,11.283-14.867,11.283h-15.691V2.022z
			 M388.979,14.128c0-2.997-2.115-4.584-5.759-4.584h-6.347v9.285h5.936c3.761,0,6.17-1.528,6.17-4.643V14.128z M384.337,25.998
			h-7.464v9.637h7.639c3.82,0,6.23-1.646,6.23-4.819v-0.059C390.742,27.82,388.567,25.998,384.337,25.998z"/>
		<path fill="#29ABE2" d="M403.138,2.022h8.522v33.32h16.63v7.816h-25.152V2.022z"/>
		<path fill="#29ABE2" d="M431.814,2.022h26.503V9.72h-18.041v8.873h15.868v7.698h-15.868v9.168h18.277v7.698h-26.738V2.022z"/>
	</g>
	<g>
		<path fill="#3E8EDE" d="M85.108,22.737c3.827,7.379,4.913,17.536,2.429,25.872c-2.522,9.844-10.803,19.8-20.444,23.847
			c-10.857,5.318-26.277,3.994-35.956-2.944c-13.451-9.219-18.953-25.099-14.887-40.777c2.466-9.311,9.882-18.714,18.953-23.038
			c5.097-2.521,10.673-3.864,16.745-3.975C65.823,1.741,79.072,9.892,85.108,22.737z M52.685,3.525
			c0.221,1.454,0.166,3.441,0.055,5.079c0-0.166,0.074-0.313,0.166-0.442c0.258-0.147,0.478,0.074,0.589,0.258
			c0.018,0.258,0.128,0.7-0.092,0.847c0.22,0.037,0.331-0.129,0.533-0.129c4.213,0.313,8.115,1.546,11.611,3.533v-0.092
			c0.717-0.35,1.638-0.81,2.374-0.184c0.882-0.331,1.048,0.754,1.766,0.883c0.865,0.515,1.84,1.472,1.951,2.484
			c0.165,0.332,0.681,0.57,0.754,0.92c0.589-1.251,1.767-2.134,2.779-3.22l0.624-0.258C70.24,7.905,63.634,4.98,56.273,3.967
			C55.096,3.765,53.808,3.875,52.685,3.525z M50.624,3.709c-7.397,0.295-13.966,2.816-19.799,7.012
			c-1.123,0.773-2.117,1.95-3.257,2.612h0.165c1.454,1.068,2.835,2.595,4.067,3.92l0.092-0.257
			c5.373-4.895,11.629-7.582,18.806-7.913l-0.166-0.442l-0.055-4.416L50.624,3.709z M56.936,6.489l-2.65,1.141
			c-0.221-0.092-0.644-0.203-0.791,0.091c-0.111,0.092,0,0.221,0.036,0.313c0.975,1.251,2.668,0.552,3.883,0.312
			c0.883,0.368,1.729-0.073,2.392-0.626V7.592C59.181,6.709,58.003,6.58,56.936,6.489z M52.649,11.033l0.184,0.35
			c-0.037,1.712,0.073,3.533-0.093,5.134c0.699-0.24,1.417,0.055,2.116,0.074c3.607,0.589,7.011,1.748,9.9,3.974
			c-0.349-0.368-0.772-0.791-0.847-1.325c0.056-0.073,0.13-0.092,0.222-0.073c0.036-0.571-0.571-0.865-0.663-1.38
			c0.092-0.11,0.221-0.22,0.405-0.165c0.625,0.589,1.16,1.233,1.619,1.896c0.405-0.166,0.736,0.092,1.03,0.312
			c0.534,0.313,0.203,0.994,0.608,1.362c0.073,1.086,1.398,1.693,1.325,2.778c0.019,0.257,0.331,0.056,0.441,0.184l1.105,1.362
			c-0.202,0.257-0.037,0.57,0.183,0.754c0.497,0.221,0.773-0.405,1.27-0.313c0.718,0.405-0.11,0.883-0.036,1.325
			c0.275,0.019,0.626-0.22,0.846,0.055c0.092,0.405-0.331,0.663-0.497,0.92c0,0.405,0.331,0.313,0.625,0.405
			c0.332-0.018,0.534,0.386,0.442,0.662c0.92,0.957-0.277,1.988,0.165,3c0.295,0.663-0.073,1.306-0.478,1.804
			c0.018,0.809-0.718,1.306-1.012,1.987l-0.939,0.184c-0.498,0.497,0.423,1.104-0.074,1.417l2.06,0.037l-0.22-0.221
			c-0.294-0.81-0.221-1.895,0.276-2.613c0.314-0.663,0.387-1.454,0.976-2.024c0.129-0.036,0.368-0.276,0.479,0
			c0.036,0.625-0.018,1.343-0.313,1.895c0.588,0.847,0.515,1.951,0.57,3c1.822-0.111,3.607-0.147,5.391-0.129l-0.166-0.35
			c-0.275-3.404-0.975-6.625-2.391-9.532c-0.386,0.018-0.662,0.331-1.104,0.221c-0.147-0.055-0.239-0.202-0.221-0.368
			c-0.736-0.699-1.196-1.619-2.024-2.245c-0.938,0.092-1.361-0.994-2.208-1.104c-0.754-0.313-0.239-1.527-1.325-1.196
			c-0.533-0.221-1.049-0.625-1.159-1.232c0-0.957-0.184-1.988-1.049-2.613c-0.662-0.239-0.938,0.644-1.6,0.497
			c-0.368-0.183-0.203-0.662-0.313-0.975c-0.129-0.276-0.442-0.479-0.386-0.846c0.865-1.141-1.049-1.122-0.625-2.245
			c-0.11-0.809-0.939-1.122-1.362-1.766c-2.852-1.289-5.704-2.171-8.924-2.558C54.065,11.236,53.33,11.401,52.649,11.033z
			 M69.302,11.07c-0.387,0.368-0.718-0.331-1.068,0.092c-0.018,0.203,0.018,0.387,0.129,0.534c0.773,0.276,0.865,1.399,1.858,1.141
			c0.295-0.332-0.184-0.681-0.092-1.104C70.001,11.346,69.669,11.18,69.302,11.07z M36.271,16.02
			c-1.141,0.791-2.19,1.822-3.367,2.521c1.361,0.865,2.484,2.3,3.717,3.441l0.129,0.349c3.128-2.998,6.937-4.747,11.04-5.594
			c0.975-0.092,1.951-0.423,2.908-0.22c-0.074-1.748-0.221-3.57-0.037-5.3C45.325,11.53,40.541,13.149,36.271,16.02z M77.159,14.346
			c-1.012,1.361-2.392,2.631-3.661,3.937l-0.626,0.129c0.387,0.092,0.497,0.552,0.755,0.828c1.342,0.718,1.692,2.153,2.87,2.963
			c0.662,1.38,2.19,2.447,2.245,4.03c1.601,3.533,2.686,7.269,2.797,11.427l-0.147,0.22c0.166,0,0.313-0.073,0.441-0.165
			l5.299-0.092c-0.349-0.515-0.201-1.27-0.293-1.895C86.139,27.539,82.642,20.528,77.159,14.346z M26.556,14.474
			c-5.244,5.833-8.483,12.494-9.422,20.094c-0.202,1.105-0.074,2.245-0.294,3.367c1.84-0.147,3.846-0.147,5.686,0l-0.129-0.718
			c0.35-5.87,2.227-11.096,5.521-15.769c0.828-0.939,1.435-2.116,2.465-2.816c-1.196-1.122-2.447-2.429-3.698-3.662L26.556,14.474z
			 M50.753,18.32l-0.312,0.184c-4.674,0.331-8.723,2.282-12.274,5.208c1.398,0.975,2.649,2.539,3.919,3.662
			c0.092-0.129,0.184-0.258,0.276-0.405c1.748-1.251,3.551-2.392,5.612-2.907c0.92-0.092,1.821-0.533,2.779-0.312
			C50.551,22.019,50.551,20.105,50.753,18.32z M52.685,18.357l0.184,0.405l-0.036,4.987l0.478-0.092
			c3.054,0.423,5.851,1.398,8.262,3.368l0.13,0.386c0.828-1.159,2.079-2.153,3.055-3.257l0.92-0.534l-0.441-0.184
			c-2.025-1.693-4.232-2.981-6.626-3.828C56.751,18.946,54.709,18.67,52.685,18.357z M31.579,19.737l-0.037,0.35l-1.987,2.521
			c-3.257,4.471-4.803,9.642-5.262,15.272l5.042-0.091l0.479,0.184c-0.203-0.129-0.148-0.35-0.221-0.534
			c0.405-5.244,2.245-9.918,5.87-13.819C34.063,22.405,32.757,21.117,31.579,19.737z M66.781,24.853l-0.092,0.221
			c-1.693,1.766-3.552,3.588-5.171,5.391c0.11,0.221,0.295,0.423,0.497,0.534c0.073-0.442,0.313-0.828,0.35-1.288
			c0.442-0.607,1.104-0.221,1.674-0.092c0.883-0.203,1.712,0.202,2.613,0.184c0.662,0.331,0.717,1.178,1.324,1.509
			c0.166,0.239,0.038,0.515-0.183,0.699c0.183,1.38,0.846-0.368,1.546-0.037c0.294,0.11,0.662,0.074,0.882,0.387
			c0.111,0.57,0.81,0.46,0.847,1.012c-0.055,0.276-0.349,0.349-0.533,0.497c0.166,0.552-0.57,0.902-0.313,1.491
			c1.067,0.202,1.104-1.031,1.601-1.583c-0.276-0.957-0.478-1.933-1.03-2.779c-0.608-0.129-0.975-0.846-1.582-0.975
			c-1.178-0.46,0.183-1.196,0.037-1.895C68.621,26.95,67.627,25.901,66.781,24.853z M36.842,25.036
			c-2.54,3.036-4.269,6.385-4.95,10.194c-0.203,0.884-0.092,1.914-0.442,2.742c0.645-0.295,1.582-0.184,2.3-0.093
			c-0.423-0.22-0.074-0.754-0.312-1.048c-0.055-0.46-0.129-1.03,0.312-1.325c-0.055-0.755,0.754-1.14,0.828-1.822
			c0.203-0.773,1.086-0.257,1.508-0.662c0.276-0.147,0.037-0.405,0.037-0.607c0.368-0.496,0.938-0.479,1.38-0.754
			c0.313-0.478,0.718-0.994,1.233-1.288c1.104,0.038,1.122-1.508,2.171-1.545C39.473,27.742,38.111,26.288,36.842,25.036z
			 M52.74,25.644c0.35,1.049,0.037,2.595,0.258,3.809l1.325,0.441c0.387-0.643,1.233-0.772,1.601-1.379
			c0.239-0.203,0.515,0,0.699,0.221c0.055,0.497-0.074,0.993-0.221,1.472c-0.496,0.994-1.674,1.122-2.337,1.841
			c0.424,0.239,0.663-0.203,1.013-0.295c0.514,0.055,0.919,0.497,1.232,0.828c0.331,0.147,0.644-0.055,0.938-0.166
			c0.203-1.527,2.117-1.306,2.687-2.742l-0.349,0.129c-0.147-0.203-0.515-0.11-0.497-0.442c0.313-0.294,0.717-0.754,1.104-0.883
			c-1.656-1.031-3.367-1.914-5.245-2.392C54.213,25.919,53.44,25.901,52.74,25.644z M42.841,29.49h0.405
			c0.441,0.442,1.159,0.35,1.49,0.939c0.165,0.331-0.313,0.295-0.294,0.57c0.092,0.074,0.221,0.092,0.294,0.221
			c0.349,0.129,0.276-0.203,0.405-0.35c0.46-0.459,0.534,0.442,0.976,0.442c0.312-0.203,0.754-0.221,0.975,0.128
			c0.294-0.257,0.92-0.018,1.012-0.497c0.571-0.607,0.258-1.546,1.104-1.932c0.294,0.165-0.018,0.441,0.091,0.699
			c0.571,0.239,1.215-0.479,1.675,0.092c-0.423-1.196-0.312-2.687-0.276-4.012C47.735,26.178,45.012,27.19,42.841,29.49z
			 M51.765,32.544c-0.294-0.331-0.938-0.129-1.324,0c0.367,0.368,0.22,1.03,0.441,1.491c-0.552,0.92-1.472,1.122-2.337,1.38
			c-0.239,0.294-0.184,0.938-0.755,0.883c-0.184,0.405-0.81,0.644-0.57,1.233c-0.294,0.626-0.148,1.435-0.313,2.116
			c-1.086,0.681-0.773-0.901-1.325-1.233l-0.184,0.313c-0.221,0.055-0.368-0.073-0.515-0.221c-0.166-0.056-0.442-0.11-0.589,0.036
			c-0.24,0.405-0.608,0.736-0.515,1.289c-0.11,0.331-0.663,0.22-0.589,0.57c0.607-0.018,1.269-0.129,1.858-0.257
			c0.423,0.11,0.773-0.203,1.196-0.221c0.147,0.074,0.313,0.221,0.258,0.442h0.147c0.294-0.221,0.423-0.552,0.294-0.883
			c0.037-0.386,0.46-0.386,0.718-0.497c0.239,0.111,0.092,0.35,0.128,0.534c0.828,0.313-0.202,0.92-0.313,1.361
			c-0.221,0.349,0,1.141-0.699,1.03c-0.128-0.037-0.221-0.166-0.184-0.313h-0.092c-0.018,0.295,0.202,0.699,0.497,0.829
			c0.515-0.424,0.533-1.141,1.27-1.234c0.386-0.405-0.166-1.03,0.405-1.361c0.957-0.018,1.987-0.423,2.742,0.349
			c-0.056,0.331-0.184,0.478,0.091,0.754c-0.184,0.423-0.313,0.884-0.662,1.233c0.092,0.239,0.018,0.534-0.184,0.699
			c-0.258,1.122-1.546,0.589-2.3,0.975c1.159,0.884,2.557,1.214,4.066,1.104c0.791-0.037,0.442-1.012,0.846-1.453
			c0.258-1.289,1.435-0.405,2.153-0.755c0.276-0.552,0.553-1.085,0.625-1.711c-0.46-0.294-0.644-0.846-0.496-1.38
			c-0.313-0.424-0.277-1.197-0.958-1.269c-0.11-0.147-0.018-0.332,0.074-0.442c-0.019-0.405,0.386-0.534,0.496-0.846
			c-0.423-0.276-0.313-0.884-0.276-1.233c-0.718,0.202-0.792-0.736-1.325-0.938c-0.129-0.423-0.589-0.497-0.957-0.571
			c-0.883,0.424-1.031-0.663-1.693-0.919c-0.074-0.202-0.221-0.497,0-0.663c0.332-0.276,0.773-0.037,1.159-0.055L51.765,32.544z
			 M35.775,37.089c-1.49,0.479,0.24,1.601-0.129,2.521c-0.202,0.534-0.754,0.037-1.141,0.258l-0.147,0.975
			c-0.222,0.57-0.938,0.147-1.27,0.534c-0.24,0.368,0.018,0.755,0.221,1.049c-0.515,1.177,1.159,1.545,1.141,2.613
			c0.515,0.662-0.073,1.619,0.663,2.208c0.165,1.196-0.166,2.815,0.883,3.753l0.184,1.142c0.221,0.791-0.938,0.589-0.791,1.288
			c0.221-0.11,0.276,0.184,0.294,0.257v-0.036c1.417-1.638,3.055-3.368,4.729-4.821l-0.699-0.7c-1.307-1.95-2.338-4.03-2.834-6.311
			l-0.534-0.276c-0.018,0.589-0.295,1.049-0.258,1.638l-0.184,0.221c-0.386-0.018-0.625-0.331-0.957-0.533
			c-0.074-0.203-0.276-0.534,0.037-0.699c0.184-0.018,0.312,0.037,0.442,0.129c0.165-0.202,0.092-0.496,0.184-0.754
			c0.055-0.442-0.331-0.846-0.055-1.233c0.349-0.037,0.607,0.386,0.754,0.625c0.35,0.111,0.626-0.184,0.92-0.313
			c0-0.312,0.442-0.736-0.037-0.92c0.257-0.718,0.073-1.472-0.037-2.172C36.952,36.924,36.271,37.034,35.775,37.089z M70.221,37.715
			c-0.147,0.074-0.349,0.018-0.533,0.037C69.853,37.678,70.056,37.715,70.221,37.715z M69.08,39.518l0.57,0.57
			c0.57,0.387,0.184,1.215,0.791,1.546c0.718,0.368,0.976,1.196,1.288,1.822c0.111-0.166,0.111-0.368,0.167-0.534
			c0.256-1.012,0.22-2.153,0.533-3.147C71.325,39.831,70.056,39.942,69.08,39.518z M81.668,39.776l-0.313-0.221l0.184,0.496
			c-0.294,6.128-2.337,11.539-5.833,16.341c-0.681,0.81-1.325,1.803-2.172,2.373c1.399,1.104,2.944,2.761,4.104,4.03l0.148-0.276
			c5.63-6.422,8.832-13.855,9.182-22.468l0.221-0.441l-0.276,0.129L81.668,39.776z M74.288,39.647
			c0.111,1.122-0.184,2.208-0.257,3.312l0.607,0.662c0.165,0.258,0.11,0.644-0.129,0.847c-0.258,0.166-0.588,0.147-0.846-0.056
			c-0.773,2.466-1.675,4.876-3.22,7.029c-0.607,0.773-1.196,1.84-1.987,2.245l1.674,1.472c0.092-0.092,0.038-0.239,0.055-0.368
			c0-0.221,0.111-0.478,0.387-0.441c0.81-0.019,0.828,0.846,1.288,1.288c-0.092,0.699,0.515,1.251,0.313,1.895
			c4.637-4.895,6.956-10.894,7.378-17.536l0.258-0.294c-1.656,0.166-3.404,0.055-5.115,0.073L74.288,39.647z M31.358,39.703
			l0.276,0.442c0.036,1.214,0.515,2.374,0.258,3.606c0.203-0.35,0.257-0.828,0.699-1.049c0.055-0.332-0.441-0.423-0.386-0.754
			c0.35-0.681,0.018-1.785,0.92-2.079C32.481,39.979,31.91,40.107,31.358,39.703z M22.489,39.776l-0.497,0.184l-5.115-0.037
			c0.295,5.888,1.858,11.243,4.508,16.157c1.307,2.429,3.221,4.619,4.895,6.882l3.662-3.791l0.441-0.184
			c-0.625-0.442-1.177-1.159-1.711-1.767c-0.608-0.166-1.233-0.589-1.546-1.178c-0.184-0.202-0.019-0.57-0.221-0.717l-0.221,0.275
			c-0.644,0.313-0.883-0.35-1.324-0.625c-0.57-0.313-0.294-1.399-1.067-1.196c-0.295-0.018-0.386-0.35-0.571-0.534
			c-0.717,0.074-0.902-0.718-1.288-1.104c-0.073,0.165,0,0.386-0.221,0.497c-0.736,0.166-0.993-0.736-1.49-1.105
			c-0.129,0.056-0.221,0.203-0.405,0.166c-0.442-0.386-0.735-0.938-0.754-1.546c-0.607-0.68-0.331-1.766-0.221-2.594
			c0.111-0.221,0.423-0.349,0.368-0.625c0.165-0.387,0.57-0.423,0.957-0.442c0.147,0.074,0.294,0.221,0.368,0.349
			c0.239-0.147,0.773,0.019,0.57-0.515c0.313-0.276,0.773-0.368,1.196-0.442c0.295,0.368,0.442,0.791,0.828,1.141l-0.258-0.405
			c-0.442-1.804-0.792-3.644-0.884-5.594c0.019-0.11-0.239-0.165-0.092-0.276l0.037,0.055
			C22.452,40.402,22.416,40.051,22.489,39.776z M29.684,39.776l-0.405,0.184c-1.711-0.037-3.497,0.111-5.116-0.129l0.221,0.313
			l0.405,3.385c0.165,1.307,0.736,2.558,0.699,3.846c0.203-0.276,0.074-0.828,0.571-0.883c-0.202-0.405,0.386-0.754,0.055-1.104
			c0.166-0.883,0.276-1.784,1.049-2.428c0.939-0.037,1.012-1.27,1.951-1.325c0.478-0.018,0.773,0.626,0.975,0.847
			C29.5,41.763,29.537,40.586,29.684,39.776z M39.142,42.039c0.515,0.957,0.791,2.042,1.325,3c0.331,0.846,1.067,1.508,1.398,2.336
			c0.35-0.662,1.049-1.196,1.546-1.803c0.037-0.276-0.018-0.516-0.165-0.718c-0.166-0.386-0.019-0.938-0.313-1.27
			c-0.479,0.165,0.165,0.644-0.037,0.92c-0.202,0.129-0.423-0.036-0.442-0.22c-0.423-0.074-0.754-0.442-0.883-0.828
			c0.35-0.221-0.092-0.313-0.184-0.497c-0.184-0.092-0.203-0.074-0.35,0.092c-0.092,0-0.202,0.018-0.275-0.036
			C40.762,41.966,39.584,42.592,39.142,42.039z M44.92,43.493c-0.11,0.459-0.423,0.865-0.755,1.196l0.055,0.037
			c0.442-0.313,0.755-0.884,1.325-0.92L44.92,43.493z M59.457,45.002c0.019,0.276,0.056,0.644,0.295,0.883
			c0.718-0.111,0.404,0.883,1.067,0.791c0.368-0.11,0.019-0.423,0.129-0.662c-0.11-0.552-0.644-0.607-1.013-0.939
			c-0.036-0.11,0.037-0.202,0.092-0.294C59.752,44.634,59.622,44.799,59.457,45.002z M69.872,45.039
			c-0.533-0.037-1.178,0.276-1.638-0.092c-0.166-0.147-0.275,0.074-0.258,0.22c-0.183,0.277-0.367,0.626-0.79,0.497
			c-0.331-0.147-0.331-0.497-0.441-0.754c0.018,0.203-0.056,0.386-0.092,0.57c-0.388,0.405-0.515,0.791-0.791,1.233
			c-0.387,0.423-1.012,0.276-1.417,0.625c-0.074,0.883-1.048,0.699-1.601,0.975c-0.036,0.111,0.092,0.129,0.148,0.221
			c0.257,0.074,0.607,0.074,0.79-0.184c0.773,0.202,0.608-0.773,1.049-1.104c0.387-0.055,0.755-0.387,1.159-0.129
			c0.405,0.497,0.497,1.214,0.441,1.858c-0.441,0.441-0.221,1.159-0.533,1.674c0.073,0.607-0.662,0.883-0.57,1.491
			c-0.24,0.276-0.645,0.313-1.012,0.313c-1.454-0.552-2.982-0.902-4.601-1.049c-0.147,0.055-0.239,0.184-0.221,0.35
			c0.662,0.349,1.472,0.368,2.171,0.662c0.626,0.165,1.05,0.938,1.841,0.699c0.662-0.368,1.766,0.221,2.208-0.478
			c-0.073-0.681,0.516-1.178,0.81-1.767l0.222-0.055c0.367,0.386,0.349,0.956,0.514,1.38c0.516-0.552,0.921-1.159,1.381-1.73
			c1.214-1.767,2.245-3.661,2.686-5.686C70.829,44.799,70.332,44.892,69.872,45.039z M46.687,45.039
			c-0.792,1.288-2.301,2.465-3.405,3.661c1.969,1.619,4.178,2.632,6.625,3.055c0.129-0.497-0.074-1.123,0.184-1.546
			c0.184-0.405,0.681-0.387,1.049-0.313c0.221-0.019,0.349-0.295,0.221-0.479c-0.533-0.11-0.294-0.699-0.478-1.03
			c0.018-0.184,0.331-0.147,0.257-0.386c-0.368-0.294,0.184-0.626-0.129-0.938c0.129-0.092,0.221-0.295,0.405-0.295
			c-1.159,0.607-2.411-0.129-3.441-0.589C47.496,45.904,46.797,45.628,46.687,45.039z M57.378,48.259
			c-0.055,0.147-0.257,0.405,0,0.497c0.442-0.46,1.38-0.442,1.417-1.104C58.15,47.559,57.819,47.909,57.378,48.259z M59.457,49.639
			c-0.571,0-0.865,0.442-1.289,0.791c-0.514,0.295-0.772-0.552-1.196-0.349c0.019,0.092,0.111,0.129,0.184,0.165
			c0.11,0.128,0.147,0.405,0,0.534c-0.625,0.57-0.92-0.276-1.509-0.221v0.221c0.018,0.129-0.036,0.331-0.221,0.258
			c-0.368-0.608-1.122-0.387-1.491-0.921c-0.239-0.128-0.46,0.037-0.625,0.184c-0.129,0.276-0.718-0.036-0.571,0.442
			c-0.46,0.166-0.515,0.663-0.846,0.957c-0.57-0.092-0.828,0.553-1.362,0.534c0.056,0.11,0,0.294,0.166,0.313
			c0.331,0.147,0.662,0.184,1.067,0.129c0.552-0.884,1.472-0.147,2.245-0.478c0.479,0.092,0.147,0.607,0.497,0.791
			c0.754-0.239,1.325,0.644,1.932,0.093c-0.037-0.865,0.938-0.792,1.472-1.013c0.828-0.496,1.766-1.159,1.674-2.263L59.457,49.639z
			 M41.7,50.154c-1.086,1.325-2.374,2.705-3.662,3.754c0.57,0.036,0.883,0.662,1.361,0.938c2.761,2.3,6.201,3.404,9.403,4.196
			l-0.883-0.405c-0.663-0.754-1.601-1.637-1.637-2.686c0.662-0.221,0.588-0.957,0.809-1.453c0.552-0.589,1.215-0.902,1.932-1.068
			c-1.859,0.773-3.478-0.607-5.023-1.325C43.209,51.516,42.178,51.038,41.7,50.154z M67.258,55.288l-0.128-0.35
			c-0.165,0.442-0.496,0.717-0.828,1.049c0.018,0.294-0.092,0.736,0.258,0.939c0.736,0.24,1.692,0.718,1.858,1.582
			c-0.295,0.809-1.84,1.546-0.884,2.43c0.313,0.441-0.441,0.607-0.312,0.975l0.257-0.349c1.104-0.865,2.3-1.674,3.276-2.742h0.128
			c-0.22-0.073-0.497,0.147-0.754,0.037c-0.515-0.239-0.607-0.699-0.607-1.233L67.258,55.288z M37.67,55.987l-0.074-0.129
			l0.074,0.222V55.987z M38.259,56.779c-0.24-0.147-0.387-0.294-0.442-0.57L38.259,56.779z M38.387,56.926
			c0.111,0.441,0.7,0.718,0.534,1.27c-0.312,0.498-0.957,0.516-1.472,0.498c-1.049-0.166-1.822,0.625-2.816,0.735
			c-0.902,0.276-1.214-0.828-2.043-0.735c5.116,4.471,10.967,7.268,17.812,7.635l0.515,0.35l-0.221-0.625v-4.858l-0.442,0.184
			C45.784,61.158,41.865,59.52,38.387,56.926z M72.393,60.367l-0.092-0.441c-0.515,1.012-1.656,1.656-2.521,2.428
			c-1.196,1.196-3.146,1.454-3.754,3.184c-0.644,0.588-0.865,1.509-1.766,1.84c-0.331,0.884-1.269,0.828-1.804,1.473
			c-1.545,1.38-2.539-0.884-3.938-1.16l-2.815,0.497c-0.975,0-1.951,0.35-2.87,0.038c0.129,1.876,0.129,3.901,0,5.777l0.349-0.22
			c8.869-0.386,16.525-3.754,23.094-9.717L72.393,60.367z M31.542,60.312l-0.055,0.221l-3.791,3.808
			c5.741,4.968,12.218,8.171,19.616,9.182c1.178,0.203,2.521,0.093,3.661,0.442l-0.276-0.442v-4.985l0.184-0.276l-0.571,0.148
			C43.135,67.911,36.787,65.372,31.542,60.312z M52.556,61.601l0.276,0.404c0,1.509,0.183,3.054,0,4.545
			c1.361-0.461,2.943-0.386,4.415-0.625c-0.294-0.111-0.589-0.184-0.809-0.479c-0.864-0.054-1.27-0.957-1.545-1.638
			c-0.13-0.497,0.202-0.902,0.405-1.325c-0.368-0.755-1.509-0.202-2.172-0.478C52.943,61.858,52.814,61.636,52.556,61.601z"/>
		<g>
			<path fill="#3E8EDE" d="M86.396,8.696c2.705,2.411,3.92,5.539,4.71,8.777l0.443,1.031c-3.92-2.815-7.471-6.606-9.974-10.599
				l-3.054-3.091C81.207,5.955,84.096,6.636,86.396,8.696z"/>
			<path fill="#3E8EDE" d="M17.981,13.499c-1.804,2.227-4.103,3.699-6.146,5.612c1.104-2.282,1.141-5.005,2.705-7.103
				c2.227-3.883,6.348-5.244,10.028-6.68C21.864,7.703,19.986,10.702,17.981,13.499z"/>
			<path fill="#3E8EDE" d="M95.965,17.566c0.864,3.864-0.387,7.636,0.405,11.538l-0.037,0.036c-2.098-4.14-6.569-6.091-9.643-9.403
				c-1.784-1.969-2.557-4.361-2.999-6.9c1.767,4.251,6.513,5.189,9.236,8.759c0.921,0.827,1.216,1.969,1.804,2.907l0.092-0.092
				c-1.564-3.349-2.098-7.121-3.184-10.691c-0.552-1.546-1.638-3.073-3.091-4.048C92.119,10.408,95.229,14.143,95.965,17.566z"/>
			<path fill="#3E8EDE" d="M14.632,10.334c-3.643,2.502-3.404,6.992-4.563,10.728c-0.368,1.38-1.012,2.65-1.325,4.066l0.093,0.074
				c0.607-1.601,1.674-3.11,2.999-4.416c2.594-2.392,6.422-3.883,7.692-7.416c-0.055,4.913-4.159,8.777-8.078,11.538
				c-1.619,1.416-3.184,3.036-4.067,4.858c-0.092-1.233,0.184-2.484,0.092-3.809c-0.423-4.288-0.736-9.182,2.3-12.366
				C11.08,11.953,12.755,10.812,14.632,10.334z"/>
			<path fill="#3E8EDE" d="M98.265,18.412c3.257,4.416,3.975,11.445,1.601,16.506c-0.883,2.153-1.509,4.435-1.859,6.808
				c-0.165-0.405-0.202-0.957-0.35-1.417c-1.288-4.95-5.98-8.483-7.912-13.158c-0.608-1.527-1.122-3.109-1.417-4.766
				c2.062,3.809,7.14,5.779,8.52,9.974c0.57,1.067,0.533,2.392,0.883,3.533c0.074,0,0.148-0.055,0.148-0.129
				c-0.607-4.325-0.424-8.851,0.165-13.12c-0.036-2.319-0.257-4.564-1.546-6.349C97.326,16.775,97.695,17.695,98.265,18.412z"/>
			<path fill="#3E8EDE" d="M6.848,17.032c-2.796,4.251-0.478,9.605-0.607,14.444l-0.368,4.95c0.055,0.036,0.055,0.184,0.184,0.129
				c0.166-0.552,0.203-1.141,0.313-1.712c0.662-3.993,4.122-6.827,7.158-9.587c0.644-0.717,1.214-1.453,1.546-2.3
				c-0.239,1.987-0.865,3.993-1.693,5.833c-2.356,4.6-6.716,8.372-7.508,13.636c-0.387-5.042-3.827-8.815-3.478-14.169
				c-0.111-4.343,1.692-7.894,4.232-11.133C6.701,17.087,6.756,17.014,6.848,17.032z"/>
			<path fill="#3E8EDE" d="M101.32,47.063c-1.932,2.742-4.269,5.299-6.055,8.097c0.203-2.208,0.461-4.932-0.405-7.03
				c-1.49-4.508-2.797-9.09-3.22-14.039l0.055-1.896c1.123,5.06,6.092,8.538,5.779,14.205c0.11,1.38-0.313,2.539-0.571,3.754
				l0.092,0.092l0.221-0.257c0.737-2.778,1.104-5.704,2.245-8.299c1.638-3.735,3.662-7.508,2.834-12.016
				C104.778,34.991,104.024,42.094,101.32,47.063z"/>
			<path fill="#3E8EDE" d="M5.431,45.296c0.534,1.859,0.663,3.865,1.417,5.613c0.074,0.037,0.129-0.037,0.184-0.092
				c-1.895-5.3,0.829-10.213,3.57-14.353c0.662-1.122,1.049-2.373,1.38-3.662c0.294,2.392-0.313,5.153-0.663,7.637
				c-0.663,3.165-1.656,6.164-2.521,9.237c-0.57,1.914-0.423,4.085-0.129,6.091l-0.276-0.221c-2.006-3.699-5.98-6.587-7.158-10.636
				c-0.975-3.22-1.619-6.955-0.957-10.47c0.313-1.362,0.552-2.76,1.141-4.011C0.297,36.169,4.162,40.31,5.431,45.296z"/>
			<path fill="#3E8EDE" d="M93.72,55.767c-0.129,2.484-0.939,4.692-2.245,6.679h0.221c1.767-2.318,3.148-4.784,5.208-6.993
				c3.202-3.092,6.458-6.256,6.882-10.544c1.085,7.158-2.926,13.432-8.869,17.481c-2.448,1.602-4.931,3.091-7.288,4.914v-0.22
				c3.607-6,1.84-14.225,4.067-20.813l0.829-2.208C92.064,48.167,93.848,51.645,93.72,55.767z"/>
			<path fill="#3E8EDE" d="M14.705,63.9c0.387,1.361,1.178,2.576,1.693,3.883c-5.483-3.736-12.954-7.287-15.383-14.132
				c-1.031-2.355-1.141-5.281-0.92-7.986c0.442,6.091,6.992,9.311,10.028,14.353c0.718,1.031,1.343,2.172,2.3,3.037
				c-0.147-0.644-0.754-1.196-0.975-1.859c-1.067-2.116-1.454-4.637-1.196-7.195c0.295-3.11,1.601-5.999,1.104-9.274
				C14.025,50.485,13.215,57.662,14.705,63.9z"/>
			<path fill="#3E8EDE" d="M85.55,68.445c-0.939,1.637-2.282,3.22-3.754,4.508c0.479-0.018,0.902-0.441,1.325-0.717
				c3.956-3.938,9.109-5.042,13.377-8.244c1.712-1.362,3.276-3.147,4.031-5.079c-0.81,6.532-7.306,12.66-13.434,14.61
				c-3.165,0.847-6.551,1.123-9.624,2.172c5.208-4.472,4.914-11.391,8.391-16.653c1.104-1.491,2.024-3.055,3.312-4.472
				C87.059,58.821,87.979,64.323,85.55,68.445z"/>
			<path fill="#3E8EDE" d="M19.839,62.924c1.84,4.527,2.539,9.642,6.79,13.066c-4.601-1.509-9.992-1.087-14.04-3.92
				c-4.435-2.723-8.391-7.342-9.219-12.42c3.055,6.919,10.709,7.489,15.843,11.703c0.939,0.828,1.932,1.545,2.999,2.043l0.056-0.056
				c-1.178-1.067-2.54-2.282-3.368-3.662c-2.999-4.177-1.951-10.029-4.195-14.519C16.748,57.606,18.606,60.146,19.839,62.924z"/>
			<path fill="#3E8EDE" d="M74.417,76.394c-1.122,0.736-2.539,0.865-3.698,1.417c1.656,0.036,3.164-0.552,4.802-0.717
				c6.073-0.957,13.029,0.018,17.279-5.152c-1.582,3.606-5.538,6.625-9.144,7.894c-6.202,2.336-12.44-0.533-18.383-1.491
				l-1.14-0.147V78.16c2.834-0.644,5.594-1.49,7.857-3.532c3.331-3.202,6.293-6.496,9.992-9.017
				C79.238,69.126,78.944,74.131,74.417,76.394z"/>
			<path fill="#3E8EDE" d="M31.855,74.72c2.356,2.061,5.19,3.017,8.17,3.624c-0.717,0.258-1.656,0.184-2.429,0.387
				c-5.355,1.325-11.316,3.478-17.002,1.545c-3.699-1.159-7.507-4.085-9.366-7.728c4.895,5.576,12.899,3.717,19.432,5.171
				c0.92,0.128,1.767,0.496,2.742,0.349c-0.773-0.496-1.858-0.441-2.705-0.883c-5.115-1.804-5.87-7.343-8.649-11.077
				C25.599,68.464,28.58,71.647,31.855,74.72z"/>
			<path fill="#3E8EDE" d="M71.822,82.264c3.974,1.472,9.127,1.067,12.531-1.362c-1.748,2.19-4.14,3.754-6.624,4.638
				c-5.521,2.061-11.28-0.092-15.586-3.368c-1.748-1.104-3.293-2.705-5.557-2.557c-0.81-0.018-1.601,0.019-2.301,0.221
				c4.196,1.951,8.079,4.637,11.648,8.078c-0.606,0.681-1.379,1.325-2.115,1.913c-3.423-3.698-7.232-7.25-11.483-9.329
				c-0.828,0.11-1.619,0.608-2.374,1.013c-3.459,2.189-6.882,5.005-9.458,8.445l-2.208-1.821c3.533-3.571,7.434-6.348,11.703-8.336
				c-4.196-1.325-6.937,2.19-10.121,3.975c-3.717,2.594-9.053,3.809-13.543,2.023c-2.411-0.921-4.748-2.262-6.496-4.453
				c3.533,2.429,8.796,2.687,12.807,1.104c5.392-2.337,10.986-5.3,17.481-3.883c1.013,0.019,2.006,1.03,2.963,0.166
				c4.821-1.252,10.286-0.387,14.444,1.822L71.822,82.264z"/>
		</g>
	</g>
	<g>
		<path fill="#3E8EDE" d="M517.45,43.237h41.558c-0.719,33.413-19.163,50.181-43.953,50.181c-26.708,0-43.834-22.515-43.834-46.709
			C471.221,22.518,488.347,0,515.055,0c29.583,0,37.726,18.444,41.081,28.026l-18.804,1.196
			c-3.233-7.904-9.702-13.174-22.276-13.174c-14.131,0-25.151,11.498-25.151,30.66c0,16.168,10.179,30.66,26.35,30.66
			c14.49,0,21.197-10.299,22.754-18.802H517.45V43.237z"/>
		<path fill="#3E8EDE" d="M736.58,1.925h17.916v73.098h34.521v16.723H736.58V1.925z"/>
		<path fill="#3E8EDE" d="M839.297,25.573c0-6.211-5.973-10.033-13.139-10.033c-8.959,0-14.334,3.941-14.334,9.914
			c0,6.211,5.973,9.197,10.393,10.631l16.482,5.256c11.945,3.822,20.426,10.75,20.426,24.605c0,10.99-7.885,27.472-32.728,27.472
			c-31.175,0-34.043-20.185-34.043-28.189l17.918-0.357c0,9.554,7.525,13.257,16.244,13.257c6.092,0,14.691-2.986,14.691-9.914
			c0-4.777-2.029-7.285-10.869-10.512l-19.59-7.047c-9.911-3.582-16.842-12.303-16.842-22.455c0-11.467,7.885-27.951,31.176-27.951
			c27.713,0,32.13,18.394,32.13,24.965L839.297,25.573z"/>
		<g>
			<path fill="#5FBA47" d="M587.649,35.668c1.103-1.874,2.44-3.591,3.973-5.111l-13.028-14.286
				c-3.278,3.132-6.073,6.764-8.271,10.766L587.649,35.668z"/>
			<path fill="#E4B632" d="M619.586,25.576c1.973,0.903,3.807,2.057,5.463,3.423l13.065-14.264
				c-3.441-2.967-7.343-5.416-11.579-7.224L619.586,25.576z"/>
			<path fill="#C4202F" d="M649.506,29.871l-17.316,8.632c0.827,1.93,1.415,3.98,1.734,6.118l19.262-1.819
				C652.618,38.242,651.356,33.894,649.506,29.871"/>
			<path fill="#4B9F46" d="M630.948,36.001l17.314-8.631c-2.145-3.985-4.88-7.606-8.091-10.743l-13.065,14.261
				C628.594,32.417,629.888,34.133,630.948,36.001"/>
			<path fill="#418045" d="M584.208,48.305c0-0.39,0.013-0.78,0.03-1.166l-19.267-1.725c-0.06,0.955-0.097,1.919-0.097,2.891
				c0,3.695,0.459,7.285,1.311,10.716l18.608-5.338C584.412,51.95,584.208,50.152,584.208,48.305"/>
			<path fill="#F8C219" d="M628.523,64.14c-1.37,1.667-2.95,3.153-4.699,4.42l10.173,16.47c3.775-2.558,7.137-5.683,9.962-9.251
				L628.523,64.14z"/>
			<path fill="#EE422A" d="M634.193,48.305c0,1.824-0.196,3.603-0.573,5.316l18.606,5.346c0.849-3.416,1.301-6.988,1.301-10.662
				c0-0.913-0.03-1.819-0.086-2.721l-19.265,1.82C634.186,47.705,634.193,48.004,634.193,48.305"/>
			<path fill="#F99E29" d="M590.19,64.509l-15.399,11.704c2.864,3.526,6.256,6.6,10.057,9.11l10.171-16.452
				C593.226,67.631,591.602,66.163,590.19,64.509"/>
			<path fill="#1D95D3" d="M584.52,44.359c0.345-2.176,0.976-4.257,1.846-6.206l-17.309-8.623c-1.912,4.07-3.224,8.476-3.82,13.1
				L584.52,44.359z"/>
			<path fill="#A21C44" d="M631.63,86.521l-10.158-16.449c-1.846,1.042-3.833,1.86-5.928,2.409l3.586,19.028
				C623.589,90.483,627.795,88.782,631.63,86.521"/>
			<path fill="#29BCE1" d="M632.879,56.315c-0.674,1.979-1.585,3.846-2.705,5.569l15.449,11.652
				c2.509-3.607,4.492-7.602,5.846-11.878L632.879,56.315z"/>
			<path fill="#F16B2D" d="M612.805,73.036c-1.176,0.17-2.38,0.263-3.605,0.263c-0.984,0-1.955-0.062-2.909-0.172l-3.583,19.028
				c2.121,0.311,4.288,0.476,6.493,0.476c2.446,0,4.847-0.201,7.186-0.584L612.805,73.036z"/>
			<path fill="#E6253D" d="M610.798,23.362c2.147,0.138,4.221,0.546,6.185,1.194l6.949-18.06c-4.135-1.46-8.545-2.325-13.134-2.486
				V23.362z"/>
			<path fill="#DC1769" d="M603.537,72.651c-2.166-0.505-4.225-1.292-6.135-2.32l-10.177,16.461c3.915,2.241,8.196,3.9,12.733,4.867
				L603.537,72.651z"/>
			<path fill="#16496B" d="M601.689,24.467c2.007-0.634,4.124-1.021,6.314-1.123V3.995c-4.651,0.124-9.12,0.971-13.31,2.425
				L601.689,24.467z"/>
			<path fill="#C5962E" d="M588.495,62.285c-1.227-1.813-2.229-3.799-2.948-5.91l-18.595,5.336
				c1.408,4.435,3.495,8.567,6.142,12.278L588.495,62.285z"/>
			<path fill="#086A9D" d="M593.715,28.701c1.634-1.294,3.433-2.385,5.36-3.243L592.083,7.42c-4.165,1.749-8.002,4.116-11.404,6.985
				L593.715,28.701z"/>
		</g>
		<g>
			<path fill="#3E8EDE" d="M707.203,72.714h-33.296l-5.934,19.009h-19.614l33.173-91.05h19.131l32.69,91.05h-19.978L707.203,72.714z
				 M690.734,22.589h-0.241L678.99,57.943h23.368L690.734,22.589z"/>
		</g>
	</g>
</g>
</svg>
