<?xml version="1.0" encoding="utf-8"?>
<!-- Generator: Adobe Illustrator 17.0.0, SVG Export Plug-In . SVG Version: 6.00 Build 0)  -->
<!DOCTYPE svg PUBLIC "-//W3C//DTD SVG 1.1//EN" "http://www.w3.org/Graphics/SVG/1.1/DTD/svg11.dtd">
<svg version="1.1" id="Layer_1" xmlns="http://www.w3.org/2000/svg" xmlns:xlink="http://www.w3.org/1999/xlink" x="0px" y="0px"
	 width="160.918px" height="160.927px" viewBox="0 0 160.918 160.927" enable-background="new 0 0 160.918 160.927"
	 xml:space="preserve">
<rect x="0" y="0" fill="#BE8B2C" width="160.918" height="160.927"/>
<polygon fill="#FFFFFF" points="16.063,21.145 16.112,21.145 16.112,45.983 21.567,45.983 21.567,13.537 17.208,13.537 
	12.186,19.423 12.186,25.118 12.233,25.118 "/>
<path fill="#FFFFFF" d="M24.819,20.238v3.923h4.976v-4.068c0-1.961,0.959-2.535,2.106-2.535c1.055,0,1.963,0.43,1.963,2.441v2.678
	c0,2.682-0.238,3.733-2.012,5.6l-3.061,3.255c-2.967,3.159-4.07,5.265-4.07,8.472v5.982H38.89v-4.452h-8.951v-1.53
	c0-2.537,0.91-3.494,2.297-4.978l3.494-3.685c2.824-3.015,3.447-4.931,3.447-8.184v-3.157c0-4.643-2.248-6.844-7.131-6.844
	C27.259,13.155,24.819,15.691,24.819,20.238"/>
<path fill="#FFFFFF" d="M121.297,83.497c-7.107-5.613-16.523-5.729-19.971-4.908l-0.4,0.093c-3.982,0.94-10.309,2.497-17.713,11.686
	c-0.041,0.051-0.084,0.104-0.123,0.156l-0.094,0.113c-0.072,0.103-0.123,0.223-0.123,0.357c0,0.111,0.027,0.213,0.08,0.308
	l0.172,0.283c0.93,1.555,2.101,3.556,3.092,5.399c0.01,0.02,0.02,0.034,0.027,0.057c0.105,0.204,0.316,0.348,0.564,0.348
	c0.172,0,0.326-0.068,0.438-0.178c0.047-0.061,0.094-0.124,0.135-0.188c6.572-9.089,11.74-10.344,15.236-11.166l0.418-0.099
	c1.814-0.436,8.713-0.409,13.693,3.522c3.887,3.068,5.859,7.951,5.859,14.511c0,11.004-5.352,15.309-9.844,16.981
	c-6.957,2.601-13.629-0.876-13.678-0.902l-0.299-0.146c-3.822-1.659-9.525-5.111-14.9-15.907
	C73.033,82.058,63.971,80.009,57.975,78.651l-0.32-0.071c-2.73-0.619-12.213-1.057-19.666,4.893
	c-3.895,3.106-8.533,9.146-8.533,20.274c0,6.78,1.393,11.257,4.973,15.967c0.785,1.073,8.809,11.381,24.32,8.408
	c2.482-0.476,5.846-1.661,9.545-4.434l3.414,3.08c0.223,0.202,0.578,0.186,0.783-0.039c0.098-0.104,0.139-0.238,0.137-0.37v-0.046
	l2.463-15.15l0.002-0.168c-0.002-0.147-0.062-0.298-0.184-0.403c-0.104-0.099-0.232-0.137-0.361-0.137l-0.105,0.01l-0.16,0.017
	l-14.512,4.062l-0.264,0.043c-0.105,0.022-0.203,0.077-0.277,0.162c-0.211,0.231-0.191,0.582,0.041,0.787l0.17,0.157l3.252,2.937
	c-2.1,1.359-3.93,1.983-5.326,2.254c-11.223,2.141-16.764-5.21-16.975-5.498l-0.078-0.107c-2.607-3.424-3.488-6.333-3.488-11.531
	c0-6.579,1.938-11.464,5.76-14.517c4.854-3.873,11.547-3.896,13.438-3.465l0.326,0.073c4.914,1.112,11.646,2.635,20.92,21.263
	c4.816,9.671,10.85,15.994,18.441,19.329c0.967,0.493,5.576,2.679,11.559,2.679c2.502,0,5.242-0.382,8.053-1.427
	c4.4-1.643,14.637-7.254,14.637-23.892C129.957,92.669,125.248,86.617,121.297,83.497"/>
<path fill="none" stroke="#FFFFFF" stroke-width="0.73" stroke-miterlimit="10" d="M121.297,83.497
	c-7.107-5.613-16.523-5.729-19.971-4.908l-0.4,0.093c-3.982,0.94-10.309,2.497-17.713,11.686c-0.041,0.051-0.084,0.104-0.123,0.156
	l-0.094,0.113c-0.072,0.103-0.123,0.223-0.123,0.357c0,0.111,0.027,0.213,0.08,0.308l0.172,0.283
	c0.93,1.555,2.101,3.556,3.092,5.399c0.01,0.02,0.02,0.034,0.027,0.057c0.105,0.204,0.316,0.348,0.564,0.348
	c0.172,0,0.326-0.068,0.438-0.178c0.047-0.061,0.094-0.124,0.135-0.188c6.572-9.089,11.74-10.344,15.236-11.166l0.418-0.099
	c1.814-0.436,8.713-0.409,13.693,3.522c3.887,3.068,5.859,7.951,5.859,14.511c0,11.004-5.352,15.309-9.844,16.981
	c-6.957,2.601-13.629-0.876-13.678-0.902l-0.299-0.146c-3.822-1.659-9.525-5.111-14.9-15.907
	C73.033,82.058,63.971,80.009,57.975,78.651l-0.32-0.071c-2.73-0.619-12.213-1.057-19.666,4.893
	c-3.895,3.106-8.533,9.146-8.533,20.274c0,6.78,1.393,11.257,4.973,15.967c0.785,1.073,8.809,11.381,24.32,8.408
	c2.482-0.476,5.846-1.661,9.545-4.434l3.414,3.08c0.223,0.202,0.578,0.186,0.783-0.039c0.098-0.104,0.139-0.238,0.137-0.37v-0.046
	l2.463-15.15l0.002-0.168c-0.002-0.147-0.062-0.298-0.184-0.403c-0.104-0.099-0.232-0.137-0.361-0.137l-0.105,0.01l-0.16,0.017
	l-14.512,4.062l-0.264,0.043c-0.105,0.022-0.203,0.077-0.277,0.162c-0.211,0.231-0.191,0.582,0.041,0.787l0.17,0.157l3.252,2.937
	c-2.1,1.359-3.93,1.983-5.326,2.254c-11.223,2.141-16.764-5.21-16.975-5.498l-0.078-0.107c-2.607-3.424-3.488-6.333-3.488-11.531
	c0-6.579,1.938-11.464,5.76-14.517c4.854-3.873,11.547-3.896,13.438-3.465l0.326,0.073c4.914,1.112,11.646,2.635,20.92,21.263
	c4.816,9.671,10.85,15.994,18.441,19.329c0.967,0.493,5.576,2.679,11.559,2.679c2.502,0,5.242-0.382,8.053-1.427
	c4.4-1.643,14.637-7.254,14.637-23.892C129.957,92.669,125.248,86.617,121.297,83.497"/>
<g>
	<path fill="#FFFFFF" d="M53.971,20.86v6.221h-2.28V13.518h3.321c2.3,0,3.141,1.14,3.141,3.04v1.741c0,1.46-0.521,2.32-1.821,2.621
		l2.181,6.161h-2.4L53.971,20.86z M53.971,15.378V19.6h0.761c0.78,0,1.12-0.4,1.12-1.121v-2c0-0.74-0.34-1.101-1.12-1.101H53.971z"
		/>
	<path fill="#FFFFFF" d="M59.11,13.518h5.441v1.86h-3.161v3.881h2.261v1.84h-2.261v4.121h3.161v1.86H59.11V13.518z"/>
	<path fill="#FFFFFF" d="M65.27,24.161V22.34h2.121v1.861c0,0.76,0.34,1.2,1.12,1.2c0.72,0,1.04-0.48,1.04-1.2V23.68
		c0-0.78-0.32-1.26-1.021-1.92l-1.34-1.34c-1.301-1.28-1.9-2.06-1.9-3.621v-0.46c0-1.681,0.979-2.981,3.2-2.981
		c2.28,0,3.181,1.121,3.181,3.081v1.1h-2.08v-1.18c0-0.78-0.36-1.16-1.08-1.16c-0.641,0-1.08,0.36-1.08,1.12v0.28
		c0,0.76,0.42,1.201,1.08,1.84l1.46,1.44c1.24,1.26,1.841,2.02,1.841,3.521v0.66c0,1.86-1.001,3.181-3.321,3.181
		C66.171,27.241,65.27,25.941,65.27,24.161z"/>
	<path fill="#FFFFFF" d="M72.73,13.518h3.381c2.301,0,3.141,1.14,3.141,3.04v2.861c0,1.9-0.84,3.061-3.141,3.061h-1.101v4.601h-2.28
		V13.518z M75.011,15.378v5.341h0.841c0.78,0,1.12-0.38,1.12-1.12v-3.121c0-0.74-0.34-1.101-1.12-1.101H75.011z"/>
	<path fill="#FFFFFF" d="M80.151,23.58v-6.561c0-2.121,1.04-3.661,3.44-3.661c2.421,0,3.461,1.541,3.461,3.661v6.561
		c0,2.101-1.04,3.661-3.461,3.661C81.191,27.241,80.151,25.681,80.151,23.58z M84.772,23.94v-7.282c0-0.82-0.36-1.4-1.181-1.4
		c-0.8,0-1.16,0.581-1.16,1.4v7.282c0,0.82,0.36,1.4,1.16,1.4C84.412,25.341,84.772,24.761,84.772,23.94z"/>
	<path fill="#FFFFFF" d="M89.991,18.559v8.522H88.07V13.518h2.24l2.461,7.782v-7.782h1.9v13.563h-2L89.991,18.559z"/>
	<path fill="#FFFFFF" d="M95.57,24.161V22.34h2.121v1.861c0,0.76,0.34,1.2,1.12,1.2c0.72,0,1.04-0.48,1.04-1.2V23.68
		c0-0.78-0.32-1.26-1.021-1.92l-1.34-1.34c-1.301-1.28-1.9-2.06-1.9-3.621v-0.46c0-1.681,0.979-2.981,3.2-2.981
		c2.28,0,3.181,1.121,3.181,3.081v1.1h-2.08v-1.18c0-0.78-0.36-1.16-1.08-1.16c-0.641,0-1.08,0.36-1.08,1.12v0.28
		c0,0.76,0.42,1.201,1.08,1.84l1.46,1.44c1.24,1.26,1.841,2.02,1.841,3.521v0.66c0,1.86-1.001,3.181-3.321,3.181
		C96.471,27.241,95.57,25.941,95.57,24.161z"/>
	<path fill="#FFFFFF" d="M103.03,13.518h2.28v13.563h-2.28V13.518z"/>
	<path fill="#FFFFFF" d="M106.35,13.518h3.301c2.28,0,3.041,1.06,3.041,2.981v1.38c0,1.141-0.421,1.86-1.36,2.161
		c1.14,0.26,1.7,1.02,1.7,2.26v1.801c0,1.92-0.86,2.98-3.141,2.98h-3.541V13.518z M108.631,19.239h0.801c0.74,0,1.08-0.38,1.08-1.1
		v-1.66c0-0.74-0.34-1.101-1.101-1.101h-0.78V19.239z M108.631,20.98v4.241h1.001c0.76,0,1.12-0.38,1.12-1.1V22.08
		c0-0.72-0.341-1.1-1.141-1.1H108.631z"/>
	<path fill="#FFFFFF" d="M113.89,13.518h2.28v11.703h2.721v1.86h-5.001V13.518z"/>
	<path fill="#FFFFFF" d="M119.65,13.518h5.441v1.86h-3.161v3.881h2.261v1.84h-2.261v4.121h3.161v1.86h-5.441V13.518z"/>
	<path fill="#FFFFFF" d="M51.69,42.58v-6.561c0-2.121,1-3.661,3.4-3.661c2.521,0,3.221,1.4,3.221,3.401v1.601h-2.08v-1.781
		c0-0.84-0.28-1.32-1.101-1.32c-0.819,0-1.16,0.581-1.16,1.4v7.282c0,0.82,0.341,1.4,1.16,1.4c0.82,0,1.101-0.52,1.101-1.32v-2.5
		h2.08v2.34c0,1.94-0.8,3.381-3.221,3.381C52.69,46.241,51.69,44.681,51.69,42.58z"/>
	<path fill="#FFFFFF" d="M59.269,42.58v-6.561c0-2.121,1.04-3.661,3.44-3.661c2.421,0,3.461,1.541,3.461,3.661v6.561
		c0,2.101-1.04,3.661-3.461,3.661C60.309,46.241,59.269,44.681,59.269,42.58z M63.891,42.94v-7.282c0-0.82-0.36-1.4-1.181-1.4
		c-0.8,0-1.16,0.581-1.16,1.4v7.282c0,0.82,0.36,1.4,1.16,1.4C63.53,44.341,63.891,43.761,63.891,42.94z"/>
	<path fill="#FFFFFF" d="M69.11,37.559v8.522h-1.921V32.518h2.24l2.461,7.782v-7.782h1.9v13.563h-2L69.11,37.559z"/>
	<path fill="#FFFFFF" d="M74.688,43.161V41.34h2.121v1.861c0,0.76,0.34,1.2,1.12,1.2c0.72,0,1.04-0.48,1.04-1.2V42.68
		c0-0.78-0.32-1.26-1.021-1.92l-1.34-1.34c-1.301-1.28-1.9-2.06-1.9-3.621v-0.46c0-1.681,0.979-2.981,3.2-2.981
		c2.28,0,3.181,1.121,3.181,3.081v1.1h-2.08v-1.18c0-0.78-0.36-1.16-1.08-1.16c-0.641,0-1.08,0.36-1.08,1.12v0.28
		c0,0.76,0.42,1.201,1.08,1.84l1.46,1.44c1.24,1.26,1.841,2.02,1.841,3.521v0.66c0,1.86-1.001,3.181-3.321,3.181
		S74.688,44.941,74.688,43.161z"/>
	<path fill="#FFFFFF" d="M88.77,32.518V42.78c0,2.101-0.899,3.461-3.221,3.461c-2.4,0-3.4-1.36-3.4-3.461V32.518h2.28V43
		c0,0.8,0.32,1.34,1.12,1.34c0.801,0,1.121-0.54,1.121-1.34V32.518H88.77z"/>
	<path fill="#FFFFFF" d="M96.07,37.279h-0.06l-1.541,8.802h-1.06l-1.7-8.802h-0.04v8.802h-1.881V32.518h2.661l1.479,7.642h0.021
		l1.32-7.642h2.881v13.563H96.07V37.279z"/>
	<path fill="#FFFFFF" d="M99.169,32.518h3.381c2.301,0,3.141,1.14,3.141,3.04v2.861c0,1.9-0.84,3.061-3.141,3.061h-1.101v4.601
		h-2.28V32.518z M101.449,34.378v5.341h0.841c0.78,0,1.12-0.38,1.12-1.12v-3.121c0-0.74-0.34-1.101-1.12-1.101H101.449z"/>
	<path fill="#FFFFFF" d="M106.228,32.518h6.062v1.86h-1.881v11.703h-2.301V34.378h-1.88V32.518z"/>
	<path fill="#FFFFFF" d="M113.068,32.518h2.28v13.563h-2.28V32.518z"/>
	<path fill="#FFFFFF" d="M116.388,42.58v-6.561c0-2.121,1.04-3.661,3.44-3.661c2.421,0,3.461,1.541,3.461,3.661v6.561
		c0,2.101-1.04,3.661-3.461,3.661C117.428,46.241,116.388,44.681,116.388,42.58z M121.009,42.94v-7.282c0-0.82-0.36-1.4-1.181-1.4
		c-0.8,0-1.16,0.581-1.16,1.4v7.282c0,0.82,0.36,1.4,1.16,1.4C120.648,44.341,121.009,43.761,121.009,42.94z"/>
	<path fill="#FFFFFF" d="M126.228,37.559v8.522h-1.921V32.518h2.24l2.461,7.782v-7.782h1.9v13.563h-2L126.228,37.559z"/>
	<path fill="#FFFFFF" d="M51.33,65.081l2.561-13.563h2.601l2.581,13.563h-2.341l-0.42-2.48h-2.421l-0.399,2.48H51.33z M54.191,60.78
		h1.82l-0.9-5.441h-0.021L54.191,60.78z"/>
	<path fill="#FFFFFF" d="M61.65,56.559v8.522h-1.921V51.518h2.24l2.461,7.782v-7.782h1.9v13.563h-2L61.65,56.559z"/>
	<path fill="#FFFFFF" d="M74.171,55.159v6.282c0,2.08-0.86,3.641-3.301,3.641h-3.521V51.518h3.521
		C73.31,51.518,74.171,53.059,74.171,55.159z M70.591,63.221c0.939,0,1.3-0.56,1.3-1.38v-7.102c0-0.8-0.36-1.36-1.3-1.36H69.63
		v9.842H70.591z"/>
	<path fill="#FFFFFF" d="M77.01,51.518h3.381c2.301,0,3.141,1.14,3.141,3.041v2.861c0,1.9-0.84,3.061-3.141,3.061H79.29v4.601h-2.28
		V51.518z M79.29,53.378v5.341h0.841c0.78,0,1.12-0.38,1.12-1.12v-3.121c0-0.74-0.34-1.101-1.12-1.101H79.29z"/>
	<path fill="#FFFFFF" d="M86.709,58.86v6.221h-2.28V51.518h3.321c2.3,0,3.141,1.14,3.141,3.041v1.741c0,1.46-0.521,2.32-1.821,2.621
		l2.181,6.161h-2.4L86.709,58.86z M86.709,53.378V57.6h0.761c0.78,0,1.12-0.4,1.12-1.121v-2c0-0.74-0.34-1.101-1.12-1.101H86.709z"
		/>
	<path fill="#FFFFFF" d="M91.849,61.58v-6.561c0-2.121,1.04-3.661,3.44-3.661c2.421,0,3.461,1.541,3.461,3.661v6.561
		c0,2.101-1.04,3.661-3.461,3.661C92.89,65.241,91.849,63.681,91.849,61.58z M96.471,61.94v-7.282c0-0.82-0.36-1.4-1.181-1.4
		c-0.8,0-1.16,0.581-1.16,1.4v7.282c0,0.82,0.36,1.4,1.16,1.4C96.11,63.341,96.471,62.761,96.471,61.94z"/>
	<path fill="#FFFFFF" d="M106.59,55.159v6.282c0,2.08-0.86,3.641-3.301,3.641h-3.521V51.518h3.521
		C105.729,51.518,106.59,53.059,106.59,55.159z M103.01,63.221c0.939,0,1.3-0.56,1.3-1.38v-7.102c0-0.8-0.36-1.36-1.3-1.36h-0.961
		v9.842H103.01z"/>
	<path fill="#FFFFFF" d="M114.229,51.518V61.78c0,2.101-0.899,3.461-3.221,3.461c-2.4,0-3.4-1.36-3.4-3.461V51.518h2.28V62
		c0,0.8,0.32,1.34,1.12,1.34c0.801,0,1.121-0.54,1.121-1.34V51.518H114.229z"/>
	<path fill="#FFFFFF" d="M115.248,61.58v-6.561c0-2.121,1-3.661,3.4-3.661c2.521,0,3.221,1.4,3.221,3.401v1.601h-2.08v-1.781
		c0-0.84-0.28-1.32-1.101-1.32c-0.819,0-1.16,0.581-1.16,1.4v7.282c0,0.82,0.341,1.4,1.16,1.4c0.82,0,1.101-0.52,1.101-1.32v-2.5
		h2.08v2.34c0,1.94-0.8,3.381-3.221,3.381C116.248,65.241,115.248,63.681,115.248,61.58z"/>
	<path fill="#FFFFFF" d="M122.368,51.518h6.062v1.86h-1.881v11.703h-2.301V53.378h-1.88V51.518z"/>
	<path fill="#FFFFFF" d="M129.207,51.518h2.28v13.563h-2.28V51.518z"/>
	<path fill="#FFFFFF" d="M132.527,61.58v-6.561c0-2.121,1.04-3.661,3.44-3.661c2.421,0,3.461,1.541,3.461,3.661v6.561
		c0,2.101-1.04,3.661-3.461,3.661C133.567,65.241,132.527,63.681,132.527,61.58z M137.148,61.94v-7.282c0-0.82-0.36-1.4-1.181-1.4
		c-0.8,0-1.16,0.581-1.16,1.4v7.282c0,0.82,0.36,1.4,1.16,1.4C136.788,63.341,137.148,62.761,137.148,61.94z"/>
	<path fill="#FFFFFF" d="M142.367,56.559v8.522h-1.921V51.518h2.24l2.461,7.782v-7.782h1.9v13.563h-2L142.367,56.559z"/>
</g>
</svg>
