<?xml version="1.0" encoding="utf-8"?>
<!-- Generator: Adobe Illustrator 17.0.0, SVG Export Plug-In . SVG Version: 6.00 Build 0)  -->
<!DOCTYPE svg PUBLIC "-//W3C//DTD SVG 1.1//EN" "http://www.w3.org/Graphics/SVG/1.1/DTD/svg11.dtd">
<svg version="1.1" id="Layer_1" xmlns="http://www.w3.org/2000/svg" xmlns:xlink="http://www.w3.org/1999/xlink" x="0px" y="0px"
	 width="160.922px" height="160.926px" viewBox="0 0 160.922 160.926" enable-background="new 0 0 160.922 160.926"
	 xml:space="preserve">
<rect x="0" y="0" fill="#F26A2C" width="160.922" height="160.926"/>
<path fill="#FFFFFF" d="M29.474,21.651c0-5.024-2.202-8.658-7.941-8.658c-5.789,0-8.035,3.155-8.035,8.178v4.784
	c0,5.31,2.102,7.988,6.027,7.988c2.296,0,3.682-1.054,4.495-2.629h0.047v6.981c0,1.961-0.766,3.349-2.726,3.349
	c-1.962,0-2.679-1.148-2.679-3.158v-2.151h-4.976v1.723c0,4.782,1.724,8.13,7.751,8.13c5.737,0,8.036-3.683,8.036-8.754V21.651z
	 M24.066,26.625c-0.096,1.816-0.86,2.964-2.582,2.964c-1.863,0-2.583-1.148-2.583-3.253v-5.644c0-2.057,0.764-3.251,2.631-3.251
	c1.817,0,2.534,1.243,2.534,3.251V26.625z"/>
<path fill="#FFFFFF" d="M121.568,105.772l-19.13-11.04V72.645c0-0.466-0.248-0.897-0.652-1.13L82.009,60.096
	c-0.404-0.232-0.9-0.232-1.305,0L60.925,71.515c-0.404,0.233-0.652,0.664-0.652,1.13v22.086l-19.127,11.04
	c-0.404,0.233-0.652,0.664-0.652,1.13v22.842c0,0.466,0.248,0.897,0.652,1.13l19.779,11.417c0.202,0.116,0.427,0.175,0.652,0.175
	c0.225,0,0.45-0.059,0.652-0.175l19.127-11.04l19.125,11.04c0.202,0.116,0.427,0.175,0.652,0.175s0.45-0.058,0.652-0.175
	l19.782-11.417c0.404-0.233,0.652-0.664,0.652-1.13v-22.842C122.221,106.436,121.973,106.005,121.568,105.772z M80.052,127.484
	l-15.865-9.161l15.865-9.161V127.484z M98.523,95.486l-15.862,9.156V86.325L98.523,95.486z M80.052,104.643l-15.864-9.157
	l15.864-9.161V104.643z M83.967,106.903l17.167-9.91l17.172,9.91l-17.172,9.915L83.967,106.903z M99.829,93.225l-15.862-9.161
	l15.862-9.159V93.225z M78.746,84.064l-15.864,9.161v-18.32L78.746,84.064z M60.272,138.902l-17.17-9.911v-19.829l17.17,9.915
	V138.902z M62.882,138.902v-18.318l15.864,9.161L62.882,138.902z M119.611,128.991l-17.173,9.911v-19.824l17.173-9.915V128.991z"/>
<g>
	<path fill="#FFFFFF" d="M38.791,13.518h2.28v13.563h-2.28V13.518z"/>
	<path fill="#FFFFFF" d="M43.731,18.559v8.522H41.81V13.518h2.24l2.461,7.782v-7.782h1.9v13.563h-2L43.731,18.559z"/>
	<path fill="#FFFFFF" d="M55.952,17.159v6.282c0,2.08-0.86,3.641-3.301,3.641h-3.521V13.518h3.521
		C55.092,13.518,55.952,15.059,55.952,17.159z M52.372,25.221c0.939,0,1.3-0.56,1.3-1.38v-7.102c0-0.8-0.36-1.36-1.3-1.36h-0.961
		v9.842H52.372z"/>
	<path fill="#FFFFFF" d="M63.291,13.518V23.78c0,2.101-0.899,3.461-3.221,3.461c-2.4,0-3.4-1.36-3.4-3.461V13.518h2.28V24
		c0,0.8,0.32,1.34,1.12,1.34c0.801,0,1.121-0.54,1.121-1.34V13.518H63.291z"/>
	<path fill="#FFFFFF" d="M63.89,24.161V22.34h2.121v1.861c0,0.76,0.34,1.2,1.12,1.2c0.72,0,1.04-0.48,1.04-1.2V23.68
		c0-0.78-0.32-1.26-1.021-1.92l-1.34-1.34c-1.301-1.28-1.9-2.06-1.9-3.621v-0.46c0-1.681,0.979-2.981,3.2-2.981
		c2.28,0,3.181,1.121,3.181,3.081v1.1h-2.08v-1.18c0-0.78-0.36-1.16-1.08-1.16c-0.641,0-1.08,0.36-1.08,1.12v0.28
		c0,0.76,0.42,1.201,1.08,1.84l1.46,1.44c1.24,1.26,1.841,2.02,1.841,3.521v0.66c0,1.86-1.001,3.181-3.321,3.181
		C64.79,27.241,63.89,25.941,63.89,24.161z"/>
	<path fill="#FFFFFF" d="M70.49,13.518h6.062v1.86h-1.881v11.703H72.37V15.378h-1.88V13.518z"/>
	<path fill="#FFFFFF" d="M79.31,20.86v6.221h-2.28V13.518h3.321c2.3,0,3.141,1.14,3.141,3.04v1.741c0,1.46-0.521,2.32-1.821,2.621
		l2.181,6.161h-2.4L79.31,20.86z M79.31,15.378V19.6h0.761c0.78,0,1.12-0.4,1.12-1.121v-2c0-0.74-0.34-1.101-1.12-1.101H79.31z"/>
	<path fill="#FFFFFF" d="M88.292,21.92v5.161h-2.281V21.92l-2.54-8.402h2.381l1.38,5.141h0.02l1.381-5.141h2.181L88.292,21.92z"/>
	<path fill="#FFFFFF" d="M92.191,25.081l-1.16,3.061h-1.28L90.03,24.9h2.161V25.081z"/>
	<path fill="#FFFFFF" d="M94.431,13.518h2.28v13.563h-2.28V13.518z"/>
	<path fill="#FFFFFF" d="M99.371,18.559v8.522H97.45V13.518h2.24l2.461,7.782v-7.782h1.9v13.563h-2L99.371,18.559z"/>
	<path fill="#FFFFFF" d="M106.69,18.559v8.522h-1.921V13.518h2.24l2.461,7.782v-7.782h1.9v13.563h-2L106.69,18.559z"/>
	<path fill="#FFFFFF" d="M112.09,23.58v-6.561c0-2.121,1.04-3.661,3.44-3.661c2.421,0,3.461,1.541,3.461,3.661v6.561
		c0,2.101-1.04,3.661-3.461,3.661C113.13,27.241,112.09,25.681,112.09,23.58z M116.711,23.94v-7.282c0-0.82-0.36-1.4-1.181-1.4
		c-0.8,0-1.16,0.581-1.16,1.4v7.282c0,0.82,0.36,1.4,1.16,1.4C116.351,25.341,116.711,24.761,116.711,23.94z"/>
	<path fill="#FFFFFF" d="M126.61,13.518l-2.581,13.563h-2.48l-2.58-13.563h2.32l1.561,9.462h0.02l1.601-9.462H126.61z"/>
	<path fill="#FFFFFF" d="M125.408,27.081l2.561-13.563h2.601l2.581,13.563h-2.341l-0.42-2.48h-2.421l-0.399,2.48H125.408z
		 M128.27,22.78h1.82l-0.9-5.441h-0.021L128.27,22.78z"/>
	<path fill="#FFFFFF" d="M132.248,13.518h6.062v1.86h-1.881v11.703h-2.301V15.378h-1.88V13.518z"/>
	<path fill="#FFFFFF" d="M138.788,13.518h2.28v13.563h-2.28V13.518z"/>
	<path fill="#FFFFFF" d="M141.808,23.58v-6.561c0-2.121,1.04-3.661,3.44-3.661c2.421,0,3.461,1.541,3.461,3.661v6.561
		c0,2.101-1.04,3.661-3.461,3.661C142.848,27.241,141.808,25.681,141.808,23.58z M146.429,23.94v-7.282c0-0.82-0.36-1.4-1.181-1.4
		c-0.8,0-1.16,0.581-1.16,1.4v7.282c0,0.82,0.36,1.4,1.16,1.4C146.068,25.341,146.429,24.761,146.429,23.94z"/>
	<path fill="#FFFFFF" d="M151.348,18.559v8.522h-1.921V13.518h2.24l2.461,7.782v-7.782h1.9v13.563h-2L151.348,18.559z"/>
	<path fill="#FFFFFF" d="M38.431,46.081l2.561-13.563h2.601l2.581,13.563h-2.341l-0.42-2.48h-2.421l-0.399,2.48H38.431z
		 M41.292,41.78h1.82l-0.9-5.441h-0.021L41.292,41.78z"/>
	<path fill="#FFFFFF" d="M48.451,37.559v8.522H46.53V32.518h2.24l2.461,7.782v-7.782h1.9v13.563h-2L48.451,37.559z"/>
	<path fill="#FFFFFF" d="M60.672,36.159v6.282c0,2.08-0.86,3.641-3.301,3.641h-3.521V32.518h3.521
		C59.811,32.518,60.672,34.059,60.672,36.159z M57.092,44.221c0.939,0,1.3-0.56,1.3-1.38v-7.102c0-0.8-0.36-1.36-1.3-1.36h-0.961
		v9.842H57.092z"/>
	<path fill="#FFFFFF" d="M62.91,32.518h2.28v13.563h-2.28V32.518z"/>
	<path fill="#FFFFFF" d="M67.851,37.559v8.522H65.93V32.518h2.24l2.461,7.782v-7.782h1.9v13.563h-2L67.851,37.559z"/>
	<path fill="#FFFFFF" d="M73.25,32.518h5.341v1.86H75.53v3.881h2.281v1.84H75.53v5.981h-2.28V32.518z"/>
	<path fill="#FFFFFF" d="M81.29,39.86v6.221h-2.28V32.518h3.321c2.3,0,3.141,1.14,3.141,3.04v1.741c0,1.46-0.521,2.32-1.821,2.621
		l2.181,6.161h-2.4L81.29,39.86z M81.29,34.378V38.6h0.761c0.78,0,1.12-0.4,1.12-1.121v-2c0-0.74-0.34-1.101-1.12-1.101H81.29z"/>
	<path fill="#FFFFFF" d="M85.769,46.081l2.561-13.563h2.601l2.581,13.563H91.17l-0.42-2.48h-2.421l-0.399,2.48H85.769z M88.63,41.78
		h1.82l-0.9-5.441h-0.021L88.63,41.78z"/>
	<path fill="#FFFFFF" d="M93.549,43.161V41.34h2.121v1.861c0,0.76,0.34,1.2,1.12,1.2c0.72,0,1.04-0.48,1.04-1.2V42.68
		c0-0.78-0.32-1.26-1.021-1.92l-1.34-1.34c-1.301-1.28-1.9-2.06-1.9-3.621v-0.46c0-1.681,0.979-2.981,3.2-2.981
		c2.28,0,3.181,1.121,3.181,3.081v1.1h-2.08v-1.18c0-0.78-0.36-1.16-1.08-1.16c-0.641,0-1.08,0.36-1.08,1.12v0.28
		c0,0.76,0.42,1.201,1.08,1.84l1.46,1.44c1.24,1.26,1.841,2.02,1.841,3.521v0.66c0,1.86-1.001,3.181-3.321,3.181
		C94.449,46.241,93.549,44.941,93.549,43.161z"/>
	<path fill="#FFFFFF" d="M100.149,32.518h6.062v1.86h-1.881v11.703h-2.301V34.378h-1.88V32.518z"/>
	<path fill="#FFFFFF" d="M108.969,39.86v6.221h-2.28V32.518h3.321c2.3,0,3.141,1.14,3.141,3.04v1.741c0,1.46-0.521,2.32-1.821,2.621
		l2.181,6.161h-2.4L108.969,39.86z M108.969,34.378V38.6h0.761c0.78,0,1.12-0.4,1.12-1.121v-2c0-0.74-0.34-1.101-1.12-1.101H108.969
		z"/>
	<path fill="#FFFFFF" d="M120.429,32.518V42.78c0,2.101-0.899,3.461-3.221,3.461c-2.4,0-3.4-1.36-3.4-3.461V32.518h2.28V43
		c0,0.8,0.32,1.34,1.12,1.34c0.801,0,1.121-0.54,1.121-1.34V32.518H120.429z"/>
	<path fill="#FFFFFF" d="M121.148,42.58v-6.561c0-2.121,1-3.661,3.4-3.661c2.521,0,3.221,1.4,3.221,3.401v1.601h-2.08v-1.781
		c0-0.84-0.28-1.32-1.101-1.32c-0.819,0-1.16,0.581-1.16,1.4v7.282c0,0.82,0.341,1.4,1.16,1.4c0.82,0,1.101-0.52,1.101-1.32v-2.5
		h2.08v2.34c0,1.94-0.8,3.381-3.221,3.381C122.148,46.241,121.148,44.681,121.148,42.58z"/>
	<path fill="#FFFFFF" d="M127.968,32.518h6.062v1.86h-1.881v11.703h-2.301V34.378h-1.88V32.518z"/>
	<path fill="#FFFFFF" d="M141.128,32.518V42.78c0,2.101-0.899,3.461-3.221,3.461c-2.4,0-3.4-1.36-3.4-3.461V32.518h2.28V43
		c0,0.8,0.32,1.34,1.12,1.34c0.801,0,1.121-0.54,1.121-1.34V32.518H141.128z"/>
	<path fill="#FFFFFF" d="M144.127,39.86v6.221h-2.28V32.518h3.321c2.3,0,3.141,1.14,3.141,3.04v1.741c0,1.46-0.52,2.32-1.821,2.621
		l2.181,6.161h-2.4L144.127,39.86z M144.127,34.378V38.6h0.761c0.78,0,1.12-0.4,1.12-1.121v-2c0-0.74-0.34-1.101-1.12-1.101H144.127
		z"/>
	<path fill="#FFFFFF" d="M148.968,32.518h5.441v1.86h-3.161v3.881h2.261v1.84h-2.261v4.121h3.161v1.86h-5.441V32.518z"/>
</g>
</svg>
