<?xml version="1.0" encoding="utf-8"?>
<!-- Generator: Adobe Illustrator 17.0.0, SVG Export Plug-In . SVG Version: 6.00 Build 0)  -->
<!DOCTYPE svg PUBLIC "-//W3C//DTD SVG 1.1//EN" "http://www.w3.org/Graphics/SVG/1.1/DTD/svg11.dtd">
<svg version="1.1" id="Layer_1" xmlns="http://www.w3.org/2000/svg" xmlns:xlink="http://www.w3.org/1999/xlink" x="0px" y="0px"
	 width="160.817px" height="160.816px" viewBox="0 0 160.817 160.816" enable-background="new 0 0 160.817 160.816"
	 xml:space="preserve">
<rect x="0" y="0" fill="#F2F2F2" width="160.817" height="160.816"/>
<g>
	<g>
		<g>
			<path fill="#29ABE2" d="M6.091,86.74h5.24c4.707,0,7.745,3.246,7.745,8v0.209c0,4.753-3.037,8.023-7.745,8.023h-5.24V86.74z
				 M9.453,89.777v10.157h1.855c2.551,0,4.29-1.786,4.29-5.009v-0.116c0-3.223-1.739-5.032-4.29-5.032H9.453z"/>
			<path fill="#29ABE2" d="M20.86,86.74h10.457v3.037h-7.119v3.502h6.261v3.037h-6.261v3.618h7.212v3.037H20.86V86.74z"/>
			<path fill="#29ABE2" d="M31.966,86.74h3.64l3.432,11.176L42.47,86.74h3.548l-5.472,16.324h-3.107L31.966,86.74z"/>
			<path fill="#29ABE2" d="M47.176,86.74h10.458v3.037h-7.119v3.502h6.261v3.037h-6.261v3.618h7.212v3.037h-10.55V86.74z"/>
			<path fill="#29ABE2" d="M59.51,86.74h3.362v13.147h6.562v3.084H59.51V86.74z"/>
			<path fill="#29ABE2" d="M69.411,95.018V94.74c0-4.87,3.061-8.278,7.351-8.278c4.313,0,7.327,3.385,7.327,8.231v0.278
				c0,4.846-3.061,8.278-7.351,8.278C72.426,103.25,69.411,99.864,69.411,95.018z M80.611,94.948v-0.162
				c0-3.2-1.623-5.217-3.872-5.217c-2.272,0-3.872,1.994-3.872,5.194v0.162c0,3.2,1.646,5.217,3.896,5.217
				C79.011,100.142,80.611,98.148,80.611,94.948z"/>
			<path fill="#29ABE2" d="M85.896,86.74h5.403c3.641,0,5.936,2.11,5.936,5.565v0.046c0,3.734-2.667,5.612-6.075,5.681h-1.901v4.939
				h-3.363V86.74z M91.136,95.018c1.739,0,2.713-1.09,2.713-2.597v-0.023c0-1.693-0.974-2.62-2.76-2.62h-1.832v5.24H91.136z"/>
			<path fill="#29ABE2" d="M98.579,86.74h3.525l3.617,6.585l3.571-6.585h3.548v16.231h-3.293V92.606l-3.826,6.701h-0.069
				l-3.803-6.655v10.319h-3.269V86.74z"/>
			<path fill="#29ABE2" d="M115.226,86.74h10.457v3.037h-7.119v3.502h6.261v3.037h-6.261v3.618h7.212v3.037h-10.55V86.74z"/>
			<path fill="#29ABE2" d="M127.561,86.74h3.084l6.214,9.46v-9.46h3.293v16.231h-2.876l-6.423-9.808v9.808h-3.293V86.74z"/>
			<path fill="#29ABE2" d="M145.646,89.847h-4.081V86.74h11.501v3.107h-4.081v13.124h-3.339V89.847z"/>
		</g>
		<g>
			<path fill="#29ABE2" d="M4.908,79.085l2.187-2.721c1.196,1.043,2.645,2.009,4.425,2.009c1.424,0,2.289-0.712,2.289-1.755v-0.025
				c0-0.89-0.509-1.45-3.052-2.416c-3.153-1.221-5.111-2.416-5.111-5.467v-0.051c0-3.102,2.39-5.213,5.823-5.213
				c2.085,0,4.12,0.712,5.748,2.187l-2.06,2.798c-1.119-0.916-2.416-1.653-3.789-1.653c-1.272,0-2.06,0.636-2.06,1.551v0.025
				c0,1.017,0.61,1.5,3.382,2.645c3.102,1.221,4.781,2.543,4.781,5.315v0.051c0,3.306-2.517,5.34-5.976,5.34
				C9.232,81.704,6.866,80.916,4.908,79.085z"/>
			<path fill="#29ABE2" d="M19.021,74.558V63.674h3.687v10.91c0,2.518,1.195,3.764,3.102,3.764c1.907,0,3.102-1.221,3.102-3.688
				V63.674h3.662v10.808c0,4.908-2.696,7.273-6.815,7.273C21.665,81.755,19.021,79.365,19.021,74.558z"/>
			<path fill="#29ABE2" d="M33.667,79.085l2.187-2.721c1.196,1.043,2.645,2.009,4.425,2.009c1.424,0,2.289-0.712,2.289-1.755v-0.025
				c0-0.89-0.509-1.45-3.052-2.416c-3.153-1.221-5.112-2.416-5.112-5.467v-0.051c0-3.102,2.391-5.213,5.824-5.213
				c2.085,0,4.12,0.712,5.748,2.187l-2.06,2.798c-1.119-0.916-2.416-1.653-3.789-1.653c-1.272,0-2.06,0.636-2.06,1.551v0.025
				c0,1.017,0.611,1.5,3.382,2.645c3.102,1.221,4.781,2.543,4.781,5.315v0.051c0,3.306-2.517,5.34-5.976,5.34
				C37.991,81.704,35.626,80.916,33.667,79.085z"/>
			<path fill="#29ABE2" d="M51.035,67.082h-4.476v-3.408h12.614v3.408h-4.476v14.394h-3.662V67.082z"/>
			<path fill="#29ABE2" d="M63.927,63.572h3.509l6.383,17.903h-3.815l-1.322-3.865h-6.129l-1.297,3.865h-3.712L63.927,63.572z
				 M67.563,74.355l-1.933-5.798l-1.958,5.798H67.563z"/>
			<path fill="#29ABE2" d="M75.216,63.674h3.687v17.801h-3.687V63.674z"/>
			<path fill="#29ABE2" d="M81.649,63.674h3.382l6.815,10.376V63.674h3.611v17.801h-3.154L85.26,70.718v10.757h-3.611V63.674z"/>
			<path fill="#29ABE2" d="M103.111,63.572h3.509l6.383,17.903h-3.815l-1.322-3.865h-6.129l-1.297,3.865h-3.712L103.111,63.572z
				 M106.748,74.355l-1.933-5.798l-1.958,5.798H106.748z"/>
			<path fill="#29ABE2" d="M114.273,63.674h6.612c1.984,0,3.636,0.534,4.654,1.551c0.788,0.814,1.196,1.78,1.196,3.026v0.076
				c0,2.085-1.145,3.204-2.416,3.891c1.907,0.737,3.178,1.907,3.178,4.247v0.127c0,3.204-2.568,4.883-6.434,4.883h-6.79V63.674z
				 M123.097,68.913c0-1.297-0.915-1.984-2.492-1.984h-2.746v4.018h2.569c1.628,0,2.67-0.661,2.67-2.009V68.913z M121.088,74.05
				h-3.23v4.17h3.306c1.653,0,2.696-0.712,2.696-2.085v-0.025C123.86,74.838,122.919,74.05,121.088,74.05z"/>
			<path fill="#29ABE2" d="M129.225,63.674h3.688v14.419h7.197v3.382h-10.884V63.674z"/>
			<path fill="#29ABE2" d="M141.634,63.674h11.469v3.331h-7.807v3.84h6.867v3.331h-6.867v3.967h7.909v3.331h-11.571V63.674z"/>
		</g>
	</g>
	<g>
		<path fill="#3E8EDE" d="M91.131,32.527c1.438,2.774,1.847,6.592,0.913,9.725c-0.948,3.701-4.061,7.443-7.685,8.964
			c-4.081,1.999-9.878,1.501-13.516-1.107c-5.056-3.465-7.125-9.435-5.596-15.328c0.927-3.5,3.715-7.035,7.125-8.66
			c1.916-0.948,4.012-1.452,6.295-1.494C83.881,24.634,88.862,27.698,91.131,32.527z M78.943,25.305
			c0.083,0.547,0.062,1.294,0.021,1.909c0-0.062,0.028-0.118,0.062-0.166c0.097-0.055,0.18,0.028,0.222,0.097
			c0.007,0.097,0.048,0.263-0.035,0.318c0.083,0.014,0.124-0.048,0.2-0.048c1.584,0.118,3.05,0.581,4.365,1.328v-0.034
			c0.269-0.132,0.615-0.305,0.892-0.069c0.332-0.125,0.394,0.284,0.664,0.332c0.325,0.194,0.692,0.554,0.733,0.934
			c0.062,0.125,0.256,0.215,0.283,0.346c0.221-0.47,0.664-0.802,1.045-1.21l0.235-0.097c-2.089-1.992-4.572-3.092-7.339-3.472
			C79.849,25.395,79.365,25.437,78.943,25.305z M78.168,25.374c-2.781,0.111-5.25,1.059-7.443,2.636
			c-0.422,0.29-0.796,0.733-1.224,0.982h0.062c0.547,0.401,1.066,0.975,1.529,1.473l0.035-0.097c2.02-1.84,4.372-2.85,7.069-2.974
			l-0.062-0.166l-0.021-1.66L78.168,25.374z M80.541,26.419l-0.996,0.429c-0.083-0.035-0.242-0.076-0.297,0.034
			c-0.042,0.035,0,0.083,0.014,0.118c0.367,0.47,1.003,0.207,1.46,0.117c0.332,0.138,0.65-0.028,0.899-0.235v-0.048
			C81.385,26.502,80.942,26.453,80.541,26.419z M78.929,28.127l0.069,0.131c-0.014,0.643,0.027,1.328-0.035,1.93
			c0.263-0.09,0.533,0.021,0.795,0.028c1.356,0.221,2.635,0.657,3.722,1.494c-0.131-0.138-0.29-0.297-0.318-0.498
			c0.021-0.028,0.049-0.035,0.083-0.028c0.014-0.215-0.215-0.325-0.249-0.519c0.035-0.042,0.083-0.083,0.152-0.062
			c0.235,0.221,0.436,0.463,0.609,0.712c0.152-0.062,0.277,0.035,0.387,0.117c0.201,0.118,0.076,0.374,0.228,0.512
			c0.028,0.408,0.526,0.636,0.498,1.044c0.007,0.097,0.124,0.021,0.166,0.069l0.415,0.512c-0.076,0.097-0.014,0.214,0.069,0.284
			c0.187,0.083,0.291-0.152,0.477-0.118c0.27,0.152-0.041,0.332-0.013,0.498c0.103,0.007,0.235-0.083,0.318,0.021
			c0.035,0.152-0.124,0.249-0.187,0.346c0,0.152,0.124,0.118,0.235,0.152c0.125-0.007,0.201,0.145,0.166,0.249
			c0.346,0.36-0.104,0.747,0.062,1.128c0.111,0.249-0.027,0.491-0.18,0.678c0.007,0.304-0.27,0.491-0.381,0.747l-0.353,0.069
			c-0.187,0.187,0.159,0.415-0.028,0.533l0.774,0.014l-0.083-0.083c-0.111-0.304-0.083-0.712,0.104-0.982
			c0.118-0.249,0.145-0.546,0.367-0.761c0.049-0.014,0.138-0.104,0.18,0c0.014,0.235-0.007,0.505-0.118,0.712
			c0.221,0.318,0.194,0.733,0.214,1.128c0.685-0.042,1.356-0.056,2.027-0.049l-0.062-0.132c-0.104-1.28-0.366-2.49-0.899-3.583
			c-0.145,0.007-0.249,0.124-0.415,0.083c-0.055-0.021-0.09-0.076-0.083-0.138c-0.277-0.263-0.449-0.609-0.761-0.844
			c-0.353,0.035-0.512-0.374-0.83-0.415c-0.283-0.118-0.09-0.574-0.498-0.45c-0.201-0.083-0.394-0.235-0.436-0.463
			c0-0.36-0.069-0.747-0.395-0.982c-0.249-0.09-0.353,0.242-0.602,0.187c-0.138-0.069-0.076-0.249-0.118-0.366
			c-0.049-0.104-0.166-0.18-0.145-0.318c0.325-0.429-0.394-0.422-0.235-0.844c-0.041-0.304-0.353-0.422-0.512-0.664
			c-1.072-0.484-2.144-0.816-3.355-0.962C79.462,28.204,79.185,28.266,78.929,28.127z M85.189,28.141
			c-0.145,0.138-0.27-0.125-0.401,0.034c-0.007,0.076,0.007,0.146,0.049,0.201c0.29,0.104,0.325,0.526,0.699,0.429
			c0.111-0.125-0.069-0.256-0.035-0.415C85.452,28.245,85.327,28.183,85.189,28.141z M72.773,30.002
			c-0.429,0.297-0.823,0.685-1.266,0.948c0.512,0.325,0.934,0.865,1.397,1.294l0.049,0.131c1.176-1.127,2.608-1.784,4.15-2.103
			c0.367-0.035,0.733-0.159,1.093-0.083c-0.028-0.657-0.083-1.342-0.014-1.992C76.176,28.314,74.378,28.923,72.773,30.002z
			 M88.142,29.372c-0.38,0.512-0.899,0.989-1.376,1.48l-0.235,0.049c0.145,0.035,0.187,0.208,0.284,0.311
			c0.505,0.27,0.636,0.809,1.079,1.114c0.249,0.519,0.823,0.92,0.844,1.515c0.602,1.328,1.01,2.732,1.051,4.296l-0.055,0.083
			c0.062,0,0.118-0.028,0.166-0.062l1.992-0.035c-0.131-0.194-0.076-0.477-0.11-0.712C91.518,34.332,90.204,31.696,88.142,29.372z
			 M69.121,29.421c-1.971,2.193-3.189,4.697-3.542,7.553c-0.076,0.415-0.028,0.844-0.111,1.266c0.692-0.055,1.446-0.055,2.137,0
			l-0.048-0.27c0.132-2.206,0.837-4.171,2.075-5.928c0.311-0.353,0.54-0.795,0.927-1.058c-0.45-0.422-0.92-0.913-1.39-1.377
			L69.121,29.421z M78.217,30.866l-0.118,0.069c-1.757,0.125-3.279,0.858-4.614,1.958c0.526,0.367,0.996,0.955,1.473,1.376
			c0.035-0.048,0.069-0.097,0.104-0.152c0.657-0.47,1.335-0.899,2.11-1.093c0.346-0.034,0.685-0.2,1.045-0.117
			C78.141,32.257,78.141,31.537,78.217,30.866z M78.943,30.88l0.069,0.152l-0.014,1.875l0.18-0.035
			c1.148,0.159,2.2,0.526,3.106,1.266l0.049,0.145c0.311-0.436,0.782-0.809,1.148-1.224l0.346-0.201l-0.166-0.069
			c-0.761-0.636-1.591-1.12-2.491-1.439C80.471,31.102,79.704,30.998,78.943,30.88z M71.009,31.399l-0.014,0.132l-0.747,0.948
			c-1.224,1.681-1.806,3.625-1.978,5.741l1.895-0.034l0.18,0.069c-0.076-0.049-0.056-0.132-0.083-0.201
			c0.152-1.971,0.844-3.728,2.207-5.195C71.943,32.402,71.452,31.918,71.009,31.399z M84.241,33.322l-0.035,0.083
			c-0.636,0.664-1.335,1.349-1.944,2.027c0.041,0.083,0.111,0.159,0.187,0.201c0.028-0.166,0.118-0.311,0.131-0.484
			c0.166-0.228,0.415-0.083,0.629-0.035c0.332-0.076,0.643,0.076,0.982,0.069c0.249,0.124,0.27,0.443,0.498,0.567
			c0.062,0.09,0.014,0.194-0.069,0.263c0.069,0.519,0.318-0.139,0.581-0.014c0.111,0.042,0.249,0.028,0.332,0.145
			c0.042,0.214,0.304,0.173,0.318,0.38c-0.021,0.104-0.131,0.131-0.201,0.187c0.062,0.208-0.214,0.339-0.118,0.56
			c0.401,0.076,0.415-0.387,0.602-0.595c-0.104-0.36-0.18-0.727-0.387-1.044c-0.229-0.049-0.367-0.318-0.595-0.367
			c-0.443-0.173,0.069-0.45,0.014-0.712C84.933,34.111,84.559,33.716,84.241,33.322z M72.987,33.391
			c-0.955,1.141-1.605,2.4-1.861,3.832c-0.076,0.332-0.035,0.72-0.166,1.031c0.242-0.111,0.595-0.069,0.865-0.035
			c-0.159-0.083-0.028-0.284-0.117-0.394c-0.021-0.173-0.049-0.387,0.117-0.498c-0.021-0.284,0.284-0.429,0.311-0.685
			c0.076-0.29,0.408-0.097,0.567-0.249c0.104-0.055,0.014-0.152,0.014-0.228c0.138-0.187,0.353-0.18,0.519-0.284
			c0.118-0.18,0.27-0.374,0.464-0.484c0.415,0.014,0.422-0.567,0.816-0.581C73.976,34.408,73.465,33.862,72.987,33.391z
			 M78.964,33.619c0.132,0.394,0.014,0.975,0.097,1.432l0.498,0.166c0.145-0.242,0.464-0.29,0.602-0.519
			c0.09-0.076,0.194,0,0.263,0.083c0.021,0.187-0.028,0.373-0.083,0.553c-0.187,0.373-0.63,0.422-0.879,0.692
			c0.159,0.09,0.249-0.076,0.381-0.111c0.193,0.021,0.346,0.187,0.463,0.311c0.125,0.055,0.242-0.021,0.353-0.062
			c0.076-0.574,0.796-0.491,1.01-1.03l-0.131,0.048c-0.055-0.076-0.194-0.042-0.187-0.166c0.118-0.111,0.27-0.283,0.415-0.332
			c-0.623-0.388-1.266-0.719-1.971-0.899C79.517,33.723,79.226,33.716,78.964,33.619z M75.242,35.065h0.152
			c0.166,0.166,0.436,0.131,0.56,0.353c0.062,0.125-0.118,0.111-0.111,0.214c0.035,0.028,0.083,0.035,0.111,0.083
			c0.131,0.048,0.104-0.076,0.152-0.132c0.173-0.173,0.201,0.166,0.367,0.166c0.117-0.076,0.283-0.083,0.366,0.048
			c0.111-0.097,0.346-0.007,0.38-0.187c0.215-0.228,0.097-0.581,0.415-0.726c0.111,0.062-0.007,0.166,0.034,0.263
			c0.215,0.09,0.457-0.18,0.63,0.034c-0.159-0.45-0.117-1.01-0.104-1.508C77.082,33.82,76.058,34.201,75.242,35.065z M78.597,36.213
			c-0.111-0.125-0.352-0.049-0.498,0c0.138,0.138,0.083,0.387,0.166,0.56c-0.207,0.346-0.554,0.422-0.878,0.519
			c-0.09,0.111-0.069,0.353-0.284,0.332c-0.069,0.152-0.304,0.242-0.214,0.464c-0.111,0.235-0.055,0.54-0.118,0.796
			c-0.408,0.256-0.29-0.339-0.498-0.464l-0.069,0.118c-0.083,0.021-0.139-0.028-0.194-0.083c-0.062-0.021-0.166-0.042-0.221,0.014
			c-0.09,0.152-0.228,0.277-0.194,0.485c-0.041,0.124-0.249,0.083-0.221,0.214c0.228-0.007,0.477-0.048,0.698-0.097
			c0.159,0.041,0.29-0.076,0.45-0.083c0.055,0.028,0.118,0.083,0.097,0.166h0.055c0.111-0.083,0.159-0.208,0.111-0.332
			c0.014-0.145,0.173-0.145,0.27-0.187c0.09,0.042,0.034,0.132,0.048,0.201c0.311,0.118-0.076,0.346-0.118,0.512
			c-0.083,0.131,0,0.429-0.263,0.387c-0.048-0.014-0.083-0.062-0.069-0.118h-0.035c-0.007,0.111,0.076,0.263,0.187,0.312
			c0.194-0.159,0.201-0.429,0.477-0.464c0.145-0.152-0.062-0.387,0.152-0.512c0.359-0.007,0.747-0.159,1.031,0.131
			c-0.021,0.124-0.069,0.18,0.034,0.284c-0.069,0.159-0.118,0.332-0.249,0.463c0.035,0.09,0.007,0.201-0.069,0.263
			c-0.097,0.422-0.581,0.221-0.865,0.366c0.436,0.332,0.961,0.457,1.529,0.415c0.297-0.014,0.166-0.381,0.318-0.546
			c0.097-0.484,0.539-0.152,0.809-0.284c0.104-0.207,0.208-0.408,0.235-0.643c-0.173-0.111-0.242-0.318-0.187-0.519
			c-0.118-0.159-0.104-0.45-0.36-0.477c-0.041-0.056-0.007-0.125,0.028-0.166c-0.007-0.152,0.145-0.201,0.187-0.318
			c-0.159-0.104-0.118-0.332-0.104-0.463c-0.27,0.076-0.298-0.277-0.498-0.353c-0.049-0.159-0.221-0.187-0.36-0.215
			c-0.332,0.159-0.387-0.249-0.636-0.346c-0.028-0.076-0.083-0.187,0-0.249c0.125-0.104,0.291-0.014,0.436-0.021L78.597,36.213z
			 M72.586,37.922c-0.56,0.18,0.09,0.602-0.048,0.948c-0.076,0.201-0.283,0.014-0.429,0.097l-0.055,0.366
			c-0.083,0.215-0.353,0.055-0.477,0.201c-0.09,0.138,0.007,0.284,0.083,0.394c-0.193,0.443,0.436,0.581,0.429,0.982
			c0.194,0.249-0.028,0.609,0.249,0.83c0.062,0.449-0.062,1.058,0.332,1.411l0.069,0.429c0.083,0.298-0.353,0.221-0.297,0.484
			c0.083-0.041,0.104,0.069,0.111,0.097v-0.014c0.533-0.616,1.148-1.266,1.778-1.812l-0.263-0.263
			c-0.491-0.733-0.879-1.515-1.065-2.372L72.8,39.596c-0.007,0.221-0.111,0.394-0.097,0.616l-0.069,0.083
			c-0.145-0.007-0.235-0.124-0.36-0.201c-0.028-0.076-0.104-0.201,0.014-0.263c0.069-0.007,0.117,0.014,0.166,0.048
			c0.062-0.076,0.035-0.187,0.069-0.283c0.021-0.166-0.124-0.318-0.021-0.463c0.131-0.014,0.228,0.145,0.283,0.235
			c0.132,0.042,0.235-0.069,0.346-0.118c0-0.117,0.166-0.277-0.014-0.346c0.097-0.27,0.028-0.553-0.014-0.816
			C73.029,37.86,72.773,37.901,72.586,37.922z M85.535,38.157c-0.055,0.028-0.131,0.007-0.201,0.014
			C85.396,38.143,85.473,38.157,85.535,38.157z M85.106,38.835l0.214,0.214c0.215,0.145,0.069,0.456,0.298,0.581
			c0.27,0.138,0.367,0.45,0.484,0.685c0.042-0.062,0.042-0.138,0.063-0.201c0.096-0.381,0.083-0.809,0.2-1.183
			C85.95,38.953,85.473,38.994,85.106,38.835z M89.837,38.932l-0.118-0.083l0.069,0.187c-0.11,2.303-0.879,4.337-2.193,6.142
			c-0.256,0.304-0.498,0.678-0.816,0.892c0.526,0.415,1.107,1.038,1.542,1.515l0.056-0.104c2.117-2.414,3.32-5.208,3.451-8.446
			l0.083-0.166l-0.104,0.048L89.837,38.932z M87.063,38.883c0.042,0.422-0.069,0.83-0.097,1.245l0.228,0.249
			c0.062,0.097,0.041,0.242-0.049,0.318c-0.097,0.062-0.221,0.055-0.318-0.021c-0.29,0.927-0.63,1.833-1.211,2.642
			c-0.228,0.291-0.45,0.692-0.747,0.844l0.629,0.554c0.035-0.035,0.014-0.09,0.021-0.139c0-0.083,0.042-0.18,0.146-0.166
			c0.304-0.007,0.312,0.318,0.484,0.484c-0.035,0.263,0.194,0.47,0.118,0.712c1.743-1.84,2.615-4.095,2.773-6.592l0.097-0.111
			c-0.622,0.062-1.279,0.021-1.923,0.028L87.063,38.883z M70.926,38.904l0.104,0.166c0.014,0.456,0.194,0.892,0.097,1.356
			c0.076-0.131,0.097-0.311,0.263-0.394c0.021-0.125-0.166-0.159-0.145-0.283c0.132-0.256,0.007-0.671,0.346-0.782
			C71.348,39.008,71.133,39.056,70.926,38.904z M67.592,38.932l-0.187,0.069l-1.923-0.014c0.111,2.213,0.698,4.226,1.694,6.073
			c0.491,0.913,1.211,1.736,1.84,2.587l1.376-1.425l0.166-0.069c-0.235-0.166-0.442-0.436-0.643-0.664
			c-0.228-0.062-0.464-0.221-0.581-0.443c-0.069-0.076-0.007-0.214-0.083-0.269l-0.083,0.104c-0.242,0.118-0.332-0.132-0.498-0.235
			c-0.214-0.118-0.111-0.526-0.401-0.45c-0.111-0.007-0.145-0.131-0.215-0.201c-0.27,0.028-0.339-0.27-0.484-0.415
			c-0.028,0.062,0,0.145-0.083,0.187c-0.277,0.062-0.374-0.277-0.56-0.415c-0.048,0.021-0.083,0.076-0.152,0.062
			c-0.166-0.145-0.276-0.353-0.283-0.581c-0.228-0.256-0.125-0.664-0.083-0.975c0.042-0.083,0.159-0.131,0.138-0.235
			c0.062-0.145,0.214-0.159,0.36-0.166c0.055,0.028,0.111,0.083,0.138,0.131c0.09-0.055,0.29,0.007,0.214-0.194
			c0.118-0.104,0.291-0.138,0.45-0.166c0.111,0.139,0.166,0.298,0.311,0.429l-0.097-0.152c-0.166-0.678-0.298-1.37-0.332-2.103
			c0.007-0.041-0.09-0.062-0.035-0.104l0.014,0.021C67.578,39.167,67.564,39.035,67.592,38.932z M70.297,38.932l-0.152,0.069
			c-0.643-0.014-1.314,0.042-1.923-0.048l0.083,0.118l0.152,1.273c0.062,0.491,0.277,0.961,0.263,1.446
			c0.076-0.104,0.028-0.311,0.215-0.332c-0.076-0.152,0.145-0.283,0.021-0.415c0.062-0.332,0.104-0.671,0.394-0.913
			c0.353-0.014,0.381-0.477,0.733-0.498c0.18-0.007,0.29,0.235,0.367,0.318C70.227,39.679,70.241,39.236,70.297,38.932z
			 M73.852,39.783c0.194,0.36,0.297,0.768,0.498,1.128c0.124,0.318,0.401,0.567,0.526,0.878c0.131-0.249,0.394-0.45,0.581-0.678
			c0.014-0.104-0.007-0.194-0.062-0.27c-0.062-0.145-0.007-0.353-0.118-0.477c-0.18,0.062,0.062,0.242-0.014,0.346
			c-0.076,0.049-0.159-0.014-0.166-0.083c-0.159-0.028-0.283-0.166-0.332-0.311c0.131-0.083-0.035-0.118-0.069-0.187
			c-0.069-0.035-0.076-0.028-0.132,0.035c-0.035,0-0.076,0.007-0.103-0.014C74.461,39.755,74.018,39.99,73.852,39.783z
			 M76.024,40.329c-0.041,0.173-0.159,0.325-0.284,0.449l0.021,0.014c0.166-0.118,0.284-0.332,0.498-0.346L76.024,40.329z
			 M81.488,40.896c0.007,0.104,0.021,0.242,0.111,0.332c0.27-0.042,0.152,0.332,0.401,0.298c0.138-0.042,0.007-0.159,0.049-0.249
			c-0.042-0.208-0.242-0.228-0.381-0.353c-0.014-0.041,0.014-0.076,0.035-0.111C81.599,40.758,81.55,40.82,81.488,40.896z
			 M85.403,40.91c-0.201-0.014-0.443,0.104-0.616-0.035c-0.062-0.055-0.104,0.028-0.097,0.083c-0.069,0.104-0.138,0.236-0.297,0.187
			c-0.124-0.055-0.124-0.187-0.166-0.284c0.007,0.076-0.021,0.145-0.035,0.215c-0.146,0.152-0.194,0.297-0.298,0.463
			c-0.145,0.159-0.381,0.104-0.533,0.235c-0.028,0.332-0.394,0.263-0.602,0.367c-0.014,0.042,0.035,0.048,0.056,0.083
			c0.097,0.028,0.228,0.028,0.297-0.069c0.291,0.076,0.228-0.29,0.394-0.415c0.146-0.021,0.284-0.145,0.436-0.048
			c0.152,0.187,0.187,0.456,0.166,0.698c-0.166,0.166-0.083,0.436-0.201,0.63c0.028,0.228-0.249,0.332-0.214,0.56
			c-0.09,0.104-0.242,0.118-0.381,0.118c-0.547-0.208-1.121-0.339-1.729-0.394c-0.055,0.021-0.09,0.069-0.083,0.131
			c0.249,0.131,0.554,0.138,0.816,0.249c0.236,0.062,0.395,0.353,0.692,0.263c0.249-0.138,0.664,0.083,0.83-0.18
			c-0.027-0.256,0.194-0.443,0.304-0.664l0.083-0.021c0.138,0.145,0.131,0.36,0.193,0.519c0.194-0.208,0.346-0.436,0.519-0.65
			c0.456-0.664,0.844-1.376,1.01-2.137C85.763,40.82,85.576,40.855,85.403,40.91z M76.688,40.91
			c-0.298,0.484-0.865,0.927-1.28,1.376c0.74,0.609,1.57,0.989,2.49,1.148c0.049-0.187-0.028-0.422,0.069-0.581
			c0.069-0.152,0.256-0.145,0.394-0.118c0.083-0.007,0.131-0.111,0.083-0.18c-0.2-0.041-0.111-0.263-0.18-0.387
			c0.007-0.069,0.124-0.056,0.097-0.145c-0.138-0.111,0.069-0.235-0.048-0.353c0.048-0.035,0.083-0.111,0.152-0.111
			c-0.436,0.228-0.906-0.049-1.294-0.221C76.992,41.235,76.729,41.131,76.688,40.91z M80.707,42.121
			c-0.021,0.055-0.097,0.152,0,0.187c0.166-0.173,0.519-0.166,0.533-0.415C80.997,41.858,80.873,41.989,80.707,42.121z
			 M81.488,42.639c-0.215,0-0.325,0.166-0.484,0.298c-0.193,0.111-0.29-0.208-0.45-0.131c0.007,0.035,0.042,0.048,0.069,0.062
			c0.042,0.048,0.055,0.152,0,0.201c-0.235,0.214-0.346-0.104-0.567-0.083v0.083c0.007,0.049-0.014,0.124-0.083,0.097
			c-0.138-0.228-0.422-0.146-0.56-0.346c-0.09-0.048-0.173,0.014-0.235,0.069c-0.049,0.104-0.27-0.014-0.215,0.166
			c-0.173,0.062-0.194,0.249-0.318,0.36c-0.214-0.035-0.311,0.208-0.512,0.201c0.021,0.042,0,0.11,0.062,0.118
			c0.124,0.055,0.249,0.069,0.401,0.048c0.208-0.332,0.554-0.055,0.844-0.18c0.18,0.034,0.055,0.228,0.187,0.297
			c0.284-0.09,0.498,0.242,0.726,0.035c-0.014-0.325,0.353-0.298,0.553-0.381c0.311-0.187,0.664-0.436,0.629-0.851L81.488,42.639z
			 M74.813,42.833c-0.408,0.498-0.892,1.017-1.376,1.411c0.214,0.014,0.332,0.249,0.512,0.353c1.038,0.865,2.331,1.28,3.535,1.577
			l-0.332-0.152c-0.249-0.284-0.602-0.616-0.616-1.01c0.249-0.083,0.221-0.36,0.304-0.546c0.208-0.222,0.457-0.339,0.726-0.401
			c-0.699,0.291-1.307-0.228-1.888-0.498C75.381,43.345,74.993,43.165,74.813,42.833z M84.421,44.763l-0.048-0.131
			c-0.062,0.166-0.187,0.269-0.311,0.394c0.007,0.11-0.035,0.277,0.097,0.353c0.277,0.09,0.636,0.27,0.699,0.595
			c-0.111,0.304-0.692,0.581-0.332,0.913c0.118,0.166-0.166,0.228-0.117,0.366l0.097-0.131c0.415-0.325,0.865-0.63,1.231-1.031
			h0.048c-0.083-0.028-0.187,0.055-0.284,0.014c-0.194-0.09-0.228-0.263-0.228-0.463L84.421,44.763z M73.299,45.026l-0.028-0.049
			l0.028,0.083V45.026z M73.52,45.323c-0.09-0.055-0.145-0.111-0.166-0.214L73.52,45.323z M73.568,45.378
			c0.042,0.166,0.263,0.27,0.201,0.477c-0.118,0.187-0.36,0.194-0.553,0.187c-0.394-0.062-0.685,0.235-1.059,0.276
			c-0.339,0.104-0.456-0.311-0.768-0.276c1.923,1.681,4.122,2.732,6.696,2.87l0.194,0.132l-0.083-0.235v-1.826l-0.166,0.069
			C76.349,46.969,74.876,46.354,73.568,45.378z M86.351,46.672l-0.035-0.166c-0.194,0.38-0.622,0.622-0.948,0.913
			c-0.45,0.45-1.183,0.547-1.411,1.197c-0.242,0.221-0.325,0.567-0.664,0.692c-0.124,0.332-0.477,0.311-0.678,0.554
			c-0.581,0.519-0.955-0.332-1.48-0.436l-1.058,0.187c-0.367,0-0.733,0.132-1.079,0.014c0.048,0.705,0.048,1.466,0,2.171
			l0.131-0.083c3.334-0.145,6.212-1.411,8.681-3.653L86.351,46.672z M70.995,46.651l-0.021,0.083l-1.425,1.432
			c2.158,1.868,4.593,3.071,7.374,3.451c0.443,0.076,0.948,0.035,1.376,0.166l-0.104-0.166v-1.874l0.069-0.104l-0.215,0.056
			C75.353,49.508,72.966,48.553,70.995,46.651z M78.894,47.136l0.104,0.152c0,0.567,0.069,1.148,0,1.708
			c0.512-0.173,1.106-0.145,1.66-0.235c-0.11-0.042-0.221-0.069-0.304-0.18c-0.325-0.021-0.477-0.36-0.581-0.615
			c-0.049-0.187,0.076-0.339,0.152-0.498c-0.138-0.284-0.567-0.076-0.816-0.18C79.04,47.232,78.991,47.149,78.894,47.136z"/>
		<g>
			<path fill="#3E8EDE" d="M91.615,27.249c1.017,0.906,1.473,2.082,1.771,3.299l0.166,0.388c-1.474-1.058-2.808-2.483-3.749-3.984
				l-1.148-1.162C89.664,26.218,90.75,26.474,91.615,27.249z"/>
			<path fill="#3E8EDE" d="M65.897,29.054c-0.678,0.837-1.542,1.39-2.31,2.11c0.415-0.858,0.429-1.882,1.017-2.67
				c0.837-1.46,2.386-1.971,3.77-2.511C67.357,26.875,66.651,28.003,65.897,29.054z"/>
			<path fill="#3E8EDE" d="M95.212,30.583c0.325,1.453-0.145,2.871,0.152,4.337l-0.014,0.014c-0.789-1.556-2.469-2.29-3.625-3.535
				c-0.671-0.74-0.961-1.639-1.127-2.594c0.664,1.598,2.448,1.951,3.472,3.293c0.346,0.311,0.457,0.74,0.678,1.093l0.035-0.035
				c-0.588-1.259-0.788-2.677-1.197-4.019c-0.208-0.581-0.616-1.155-1.162-1.522C93.766,27.892,94.935,29.296,95.212,30.583z"/>
			<path fill="#3E8EDE" d="M64.638,27.865c-1.37,0.941-1.28,2.628-1.715,4.033c-0.138,0.519-0.381,0.996-0.498,1.529l0.035,0.028
				c0.228-0.602,0.629-1.169,1.127-1.66c0.975-0.899,2.414-1.46,2.891-2.788c-0.021,1.847-1.563,3.299-3.037,4.337
				c-0.609,0.533-1.197,1.141-1.529,1.826c-0.035-0.464,0.069-0.934,0.035-1.432c-0.159-1.612-0.277-3.452,0.865-4.648
				C63.303,28.473,63.933,28.044,64.638,27.865z"/>
			<path fill="#3E8EDE" d="M96.076,30.901c1.224,1.66,1.494,4.302,0.602,6.205c-0.332,0.809-0.568,1.667-0.699,2.559
				c-0.062-0.152-0.076-0.36-0.131-0.532c-0.484-1.861-2.248-3.189-2.974-4.946c-0.229-0.574-0.422-1.169-0.533-1.791
				c0.775,1.432,2.684,2.172,3.203,3.749c0.214,0.401,0.201,0.899,0.332,1.328c0.028,0,0.056-0.021,0.056-0.048
				c-0.228-1.626-0.159-3.327,0.062-4.932c-0.014-0.872-0.097-1.716-0.581-2.387C95.724,30.285,95.862,30.631,96.076,30.901z"/>
			<path fill="#3E8EDE" d="M61.712,30.382c-1.051,1.598-0.18,3.611-0.228,5.43l-0.138,1.861c0.021,0.014,0.021,0.069,0.069,0.048
				c0.062-0.207,0.076-0.429,0.118-0.643c0.249-1.501,1.549-2.566,2.691-3.604c0.242-0.27,0.456-0.546,0.581-0.865
				c-0.09,0.747-0.325,1.501-0.636,2.193c-0.885,1.729-2.525,3.147-2.822,5.126c-0.145-1.895-1.439-3.313-1.307-5.326
				c-0.042-1.633,0.636-2.968,1.591-4.185C61.657,30.403,61.678,30.375,61.712,30.382z"/>
			<path fill="#3E8EDE" d="M97.225,41.671c-0.726,1.031-1.605,1.992-2.276,3.044c0.076-0.83,0.173-1.854-0.152-2.643
				c-0.56-1.695-1.051-3.417-1.21-5.277l0.021-0.713c0.422,1.902,2.29,3.21,2.172,5.34c0.041,0.519-0.118,0.955-0.215,1.411
				l0.035,0.035l0.083-0.097c0.277-1.045,0.415-2.144,0.844-3.12c0.616-1.404,1.377-2.822,1.065-4.517
				C98.525,37.133,98.241,39.803,97.225,41.671z"/>
			<path fill="#3E8EDE" d="M61.18,41.007c0.201,0.699,0.249,1.453,0.533,2.11c0.028,0.014,0.049-0.014,0.069-0.035
				c-0.712-1.992,0.312-3.839,1.342-5.395c0.249-0.422,0.394-0.892,0.519-1.377c0.111,0.899-0.118,1.937-0.249,2.871
				c-0.249,1.19-0.623,2.317-0.948,3.472c-0.214,0.72-0.159,1.536-0.049,2.29l-0.104-0.083c-0.754-1.39-2.248-2.476-2.691-3.998
				c-0.367-1.21-0.609-2.615-0.36-3.936c0.118-0.512,0.208-1.038,0.429-1.508C59.25,37.576,60.703,39.132,61.18,41.007z"/>
			<path fill="#3E8EDE" d="M94.368,44.943c-0.049,0.934-0.353,1.764-0.844,2.511h0.083c0.664-0.871,1.183-1.798,1.958-2.628
				c1.204-1.162,2.428-2.352,2.587-3.964c0.408,2.691-1.1,5.049-3.334,6.571c-0.92,0.602-1.854,1.162-2.739,1.847v-0.083
				c1.356-2.255,0.692-5.347,1.529-7.824l0.311-0.83C93.745,42.086,94.416,43.393,94.368,44.943z"/>
			<path fill="#3E8EDE" d="M64.666,48c0.145,0.512,0.443,0.968,0.636,1.46c-2.061-1.404-4.87-2.739-5.782-5.312
				c-0.388-0.885-0.429-1.985-0.346-3.002c0.166,2.29,2.629,3.5,3.77,5.395c0.27,0.388,0.505,0.817,0.864,1.142
				c-0.055-0.242-0.283-0.45-0.367-0.699c-0.401-0.795-0.546-1.743-0.45-2.705c0.111-1.169,0.602-2.255,0.415-3.486
				C64.41,42.957,64.106,45.655,64.666,48z"/>
			<path fill="#3E8EDE" d="M91.297,49.709c-0.353,0.615-0.858,1.21-1.411,1.694c0.18-0.007,0.339-0.166,0.498-0.27
				c1.487-1.48,3.424-1.895,5.028-3.099c0.644-0.512,1.231-1.183,1.515-1.909c-0.305,2.455-2.746,4.759-5.05,5.492
				c-1.19,0.318-2.463,0.422-3.618,0.816c1.958-1.681,1.847-4.282,3.154-6.26c0.415-0.56,0.761-1.148,1.245-1.681
				C91.864,46.091,92.21,48.159,91.297,49.709z"/>
			<path fill="#3E8EDE" d="M66.596,47.633c0.692,1.702,0.955,3.625,2.552,4.911c-1.729-0.567-3.756-0.408-5.278-1.474
				c-1.667-1.024-3.154-2.76-3.465-4.669c1.148,2.601,4.026,2.815,5.956,4.399c0.353,0.311,0.726,0.581,1.127,0.768l0.021-0.021
				c-0.443-0.401-0.955-0.858-1.266-1.377c-1.127-1.57-0.733-3.77-1.577-5.457C65.434,45.634,66.133,46.589,66.596,47.633z"/>
			<path fill="#3E8EDE" d="M87.112,52.697c-0.422,0.277-0.955,0.325-1.39,0.533c0.622,0.014,1.189-0.207,1.805-0.27
				c2.283-0.36,4.897,0.007,6.495-1.937c-0.595,1.356-2.082,2.49-3.437,2.968c-2.331,0.878-4.676-0.201-6.91-0.56l-0.429-0.055
				v-0.014c1.065-0.242,2.103-0.56,2.953-1.328c1.252-1.204,2.366-2.442,3.756-3.39C88.924,49.964,88.814,51.846,87.112,52.697z"/>
			<path fill="#3E8EDE" d="M71.113,52.067c0.886,0.775,1.951,1.134,3.071,1.362c-0.27,0.097-0.622,0.069-0.913,0.145
				c-2.013,0.498-4.254,1.308-6.391,0.581c-1.39-0.436-2.822-1.535-3.521-2.905c1.84,2.096,4.849,1.397,7.304,1.944
				c0.346,0.048,0.664,0.187,1.031,0.131c-0.291-0.187-0.699-0.166-1.017-0.332c-1.923-0.678-2.207-2.76-3.251-4.164
				C68.761,49.715,69.882,50.912,71.113,52.067z"/>
			<path fill="#3E8EDE" d="M86.137,54.903c1.494,0.553,3.431,0.401,4.711-0.512c-0.657,0.823-1.556,1.411-2.49,1.743
				c-2.075,0.775-4.24-0.035-5.859-1.266c-0.657-0.415-1.238-1.017-2.089-0.961c-0.304-0.007-0.602,0.007-0.865,0.083
				c1.577,0.733,3.037,1.743,4.378,3.036c-0.228,0.256-0.518,0.498-0.795,0.719c-1.287-1.39-2.718-2.725-4.316-3.507
				c-0.311,0.042-0.609,0.229-0.892,0.381c-1.3,0.823-2.587,1.881-3.555,3.175l-0.83-0.685c1.328-1.342,2.794-2.386,4.399-3.134
				c-1.577-0.498-2.608,0.823-3.805,1.494c-1.397,0.975-3.403,1.432-5.091,0.761c-0.906-0.346-1.785-0.851-2.442-1.674
				c1.328,0.913,3.307,1.01,4.814,0.415c2.027-0.878,4.13-1.992,6.571-1.46c0.381,0.007,0.754,0.387,1.114,0.062
				c1.812-0.47,3.866-0.145,5.43,0.685L86.137,54.903z"/>
		</g>
	</g>
	<g>
		<path fill="#3E8EDE" d="M23.789,122.462h15.714c-0.272,12.634-7.246,18.974-16.619,18.974c-10.099,0-16.574-8.513-16.574-17.661
			c0-9.147,6.476-17.661,16.574-17.661c11.186,0,14.265,6.974,15.533,10.597l-7.11,0.452c-1.222-2.989-3.668-4.981-8.423-4.981
			c-5.343,0-9.51,4.347-9.51,11.593c0,6.113,3.849,11.593,9.963,11.593c5.479,0,8.015-3.894,8.604-7.109h-8.151V122.462z"/>
		<path fill="#3E8EDE" d="M106.645,106.841h6.774v27.64h13.053v6.323h-19.827V106.841z"/>
		<path fill="#3E8EDE" d="M145.484,115.783c0-2.348-2.258-3.794-4.968-3.794c-3.388,0-5.42,1.49-5.42,3.749
			c0,2.348,2.258,3.478,3.93,4.02l6.232,1.987c4.517,1.445,7.723,4.065,7.723,9.304c0,4.156-2.981,10.388-12.375,10.388
			c-11.788,0-12.872-7.632-12.872-10.659l6.775-0.135c0,3.613,2.845,5.013,6.142,5.013c2.303,0,5.555-1.129,5.555-3.749
			c0-1.806-0.767-2.755-4.11-3.975l-7.407-2.664c-3.748-1.354-6.368-4.652-6.368-8.49c0-4.336,2.982-10.569,11.788-10.569
			c10.479,0,12.149,6.955,12.149,9.44L145.484,115.783z"/>
		<g>
			<path fill="#5FBA47" d="M50.332,119.6c0.417-0.708,0.923-1.358,1.502-1.933l-4.926-5.402c-1.239,1.184-2.296,2.557-3.127,4.071
				L50.332,119.6z"/>
			<path fill="#E4B632" d="M62.408,115.784c0.746,0.342,1.44,0.778,2.066,1.294l4.94-5.394c-1.301-1.122-2.777-2.048-4.378-2.731
				L62.408,115.784z"/>
			<path fill="#C4202F" d="M73.721,117.408l-6.547,3.264c0.313,0.73,0.535,1.505,0.656,2.313l7.283-0.688
				C74.898,120.573,74.421,118.929,73.721,117.408"/>
			<path fill="#4B9F46" d="M66.704,119.726l6.547-3.263c-0.811-1.507-1.845-2.876-3.059-4.062l-4.94,5.392
				C65.814,118.371,66.304,119.02,66.704,119.726"/>
			<path fill="#418045" d="M49.031,124.378c0-0.147,0.005-0.295,0.011-0.441l-7.285-0.652c-0.023,0.361-0.037,0.725-0.037,1.093
				c0,1.397,0.173,2.755,0.496,4.052l7.036-2.018C49.108,125.756,49.031,125.076,49.031,124.378"/>
			<path fill="#F8C219" d="M65.787,130.366c-0.518,0.63-1.116,1.192-1.777,1.671l3.846,6.228c1.427-0.967,2.698-2.149,3.767-3.498
				L65.787,130.366z"/>
			<path fill="#EE422A" d="M67.931,124.378c0,0.69-0.074,1.362-0.217,2.01l7.035,2.021c0.321-1.292,0.492-2.642,0.492-4.031
				c0-0.345-0.011-0.688-0.032-1.029l-7.284,0.688C67.929,124.151,67.931,124.264,67.931,124.378"/>
			<path fill="#F99E29" d="M51.293,130.505l-5.823,4.425c1.083,1.333,2.365,2.496,3.802,3.445l3.846-6.221
				C52.441,131.686,51.827,131.13,51.293,130.505"/>
			<path fill="#1D95D3" d="M49.149,122.886c0.13-0.823,0.369-1.61,0.698-2.347l-6.545-3.261c-0.723,1.539-1.219,3.205-1.444,4.953
				L49.149,122.886z"/>
			<path fill="#A21C44" d="M66.962,138.828l-3.841-6.22c-0.698,0.394-1.449,0.703-2.242,0.911l1.356,7.195
				C63.922,140.326,65.512,139.683,66.962,138.828"/>
			<path fill="#29BCE1" d="M67.435,127.407c-0.255,0.748-0.599,1.454-1.023,2.106l5.841,4.406c0.949-1.364,1.699-2.874,2.211-4.491
				L67.435,127.407z"/>
			<path fill="#F16B2D" d="M59.844,133.729c-0.445,0.064-0.9,0.099-1.363,0.099c-0.372,0-0.739-0.023-1.1-0.065l-1.355,7.195
				c0.802,0.118,1.621,0.18,2.455,0.18c0.925,0,1.833-0.076,2.717-0.221L59.844,133.729z"/>
			<path fill="#E6253D" d="M59.085,114.947c0.812,0.052,1.596,0.206,2.339,0.451l2.628-6.829c-1.563-0.552-3.231-0.879-4.966-0.94
				V114.947z"/>
			<path fill="#DC1769" d="M56.34,133.584c-0.819-0.191-1.598-0.488-2.32-0.877l-3.848,6.224c1.48,0.847,3.099,1.475,4.815,1.84
				L56.34,133.584z"/>
			<path fill="#16496B" d="M55.641,115.365c0.759-0.24,1.559-0.386,2.387-0.425v-7.316c-1.759,0.047-3.448,0.367-5.033,0.917
				L55.641,115.365z"/>
			<path fill="#C5962E" d="M50.652,129.664c-0.464-0.686-0.843-1.436-1.115-2.235l-7.031,2.018c0.533,1.677,1.322,3.239,2.322,4.642
				L50.652,129.664z"/>
			<path fill="#086A9D" d="M52.626,116.966c0.618-0.489,1.298-0.902,2.027-1.226l-2.644-6.821c-1.575,0.661-3.026,1.556-4.312,2.641
				L52.626,116.966z"/>
		</g>
		<g>
			<path fill="#3E8EDE" d="M95.537,133.608h-12.59l-2.244,7.188h-7.416l12.543-34.427h7.234l12.361,34.427h-7.554L95.537,133.608z
				 M89.31,114.655h-0.091l-4.349,13.368h8.836L89.31,114.655z"/>
		</g>
	</g>
</g>
</svg>
