<?xml version="1.0" encoding="utf-8"?>
<!-- Generator: Adobe Illustrator 17.0.0, SVG Export Plug-In . SVG Version: 6.00 Build 0)  -->
<!DOCTYPE svg PUBLIC "-//W3C//DTD SVG 1.1//EN" "http://www.w3.org/Graphics/SVG/1.1/DTD/svg11.dtd">
<svg version="1.1" id="Layer_1" xmlns="http://www.w3.org/2000/svg" xmlns:xlink="http://www.w3.org/1999/xlink" x="0px" y="0px"
	 width="160.92px" height="160.926px" viewBox="0 0 160.92 160.926" enable-background="new 0 0 160.92 160.926"
	 xml:space="preserve">
<rect x="0" y="0" fill="#F99D28" width="160.92" height="160.926"/>
<polygon fill="#FFFFFF" points="11.53,19.374 11.53,25.068 11.577,25.068 15.405,21.095 15.454,21.095 15.454,45.933 20.909,45.933 
	20.909,13.486 16.554,13.486 "/>
<polygon fill="#FFFFFF" points="23.972,19.374 23.972,25.068 24.02,25.068 27.849,21.095 27.895,21.095 27.895,45.933 
	33.353,45.933 33.353,13.486 28.999,13.486 "/>
<g>
	<g>
		<path fill="#FFFFFF" d="M27.684,122.514h0.249H51.89c0.327,0,0.594-0.268,0.594-0.596c0-0.152-0.061-0.289-0.156-0.395
			l-0.033-0.035l-12.043-15.582l-0.117-0.129c-0.109-0.119-0.265-0.193-0.438-0.193c-0.149,0-0.283,0.062-0.39,0.152l-0.072,0.084
			l-0.113,0.127l-11.749,15.418l-0.181,0.221c-0.065,0.094-0.102,0.209-0.102,0.332C27.089,122.246,27.355,122.514,27.684,122.514z"
			/>
		<path fill="#FFFFFF" d="M51.816,124.711H27.562c-0.328,0-0.594,0.266-0.594,0.594v18.98c0,0.328,0.266,0.596,0.594,0.596h7.807
			v-11.941c0-0.33,0.265-0.594,0.594-0.594h7.246c0.328,0,0.594,0.264,0.594,0.594v11.941h8.014c0.327,0,0.594-0.268,0.594-0.596
			v-18.98C52.41,124.977,52.144,124.711,51.816,124.711z"/>
	</g>
	<path fill="#FFFFFF" d="M135.642,119.742h-24.006c-0.324,0-0.586,0.252-0.586,0.57v24.24c0,0.314,0.262,0.57,0.586,0.57h24.006
		c0.326,0,0.588-0.256,0.588-0.57v-24.24C136.229,119.994,135.968,119.742,135.642,119.742 M122.507,135.566
		c0,0.318-0.262,0.574-0.586,0.574h-7.172c-0.326,0-0.59-0.256-0.59-0.574v-4.357c0-0.318,0.264-0.572,0.59-0.572h7.172
		c0.324,0,0.586,0.254,0.586,0.572V135.566z M122.507,127.512c0,0.316-0.262,0.572-0.586,0.572h-7.172
		c-0.326,0-0.59-0.256-0.59-0.572v-4.361c0-0.315,0.264-0.57,0.59-0.57h7.172c0.324,0,0.586,0.256,0.586,0.57V127.512z
		 M133.468,135.566c0,0.318-0.262,0.574-0.588,0.574h-7.17c-0.326,0-0.588-0.256-0.588-0.574v-4.357
		c0-0.318,0.262-0.572,0.588-0.572h7.17c0.326,0,0.588,0.254,0.588,0.572V135.566z M133.468,127.512
		c0,0.316-0.262,0.572-0.588,0.572h-7.17c-0.326,0-0.588-0.256-0.588-0.572v-4.361c0-0.315,0.262-0.57,0.588-0.57h7.17
		c0.326,0,0.588,0.256,0.588,0.57V127.512z"/>
	<path fill="#FFFFFF" d="M79.839,63.476H56.347c-0.314,0-0.574,0.256-0.574,0.576v80.286c0,0.316,0.26,0.574,0.574,0.574h23.492
		c0.314,0,0.578-0.258,0.578-0.574V64.052C80.417,63.731,80.153,63.476,79.839,63.476 M65.864,135.766
		c0,0.17-0.139,0.309-0.309,0.309h-5.379c-0.17,0-0.309-0.139-0.309-0.309v-5.994c0-0.17,0.139-0.307,0.309-0.307h5.379
		c0.17,0,0.309,0.137,0.309,0.307V135.766z M65.864,121.998c0,0.174-0.139,0.309-0.309,0.309h-5.379
		c-0.17,0-0.309-0.135-0.309-0.309v-5.992c0-0.174,0.139-0.309,0.309-0.309h5.379c0.17,0,0.309,0.135,0.309,0.309V121.998z
		 M65.864,108.234c0,0.17-0.139,0.309-0.309,0.309h-5.379c-0.17,0-0.309-0.139-0.309-0.309v-5.996c0-0.17,0.139-0.309,0.309-0.309
		h5.379c0.17,0,0.309,0.139,0.309,0.309V108.234z M65.864,94.467c0,0.17-0.139,0.309-0.309,0.309h-5.379
		c-0.17,0-0.309-0.139-0.309-0.309v-5.996c0-0.17,0.139-0.305,0.309-0.305h5.379c0.17,0,0.309,0.135,0.309,0.305V94.467z
		 M65.864,80.703c0,0.168-0.139,0.307-0.309,0.307h-5.379c-0.17,0-0.309-0.139-0.309-0.307v-5.996c0-0.172,0.139-0.309,0.309-0.309
		h5.379c0.17,0,0.309,0.137,0.309,0.309V80.703z M76.413,135.766c0,0.17-0.139,0.309-0.311,0.309h-5.377
		c-0.172,0-0.309-0.139-0.309-0.309v-5.994c0-0.17,0.137-0.307,0.309-0.307h5.377c0.172,0,0.311,0.137,0.311,0.307V135.766z
		 M76.413,121.998c0,0.174-0.139,0.309-0.311,0.309h-5.377c-0.172,0-0.309-0.135-0.309-0.309v-5.992
		c0-0.174,0.137-0.309,0.309-0.309h5.377c0.172,0,0.311,0.135,0.311,0.309V121.998z M76.413,108.234c0,0.17-0.139,0.309-0.311,0.309
		h-5.377c-0.172,0-0.309-0.139-0.309-0.309v-5.996c0-0.17,0.137-0.309,0.309-0.309h5.377c0.172,0,0.311,0.139,0.311,0.309V108.234z
		 M76.413,94.467c0,0.17-0.139,0.309-0.311,0.309h-5.377c-0.172,0-0.309-0.139-0.309-0.309v-5.996c0-0.17,0.137-0.305,0.309-0.305
		h5.377c0.172,0,0.311,0.135,0.311,0.305V94.467z M76.413,80.703c0,0.168-0.139,0.307-0.311,0.307h-5.377
		c-0.172,0-0.309-0.139-0.309-0.307v-5.996c0-0.172,0.137-0.309,0.309-0.309h5.377c0.172,0,0.311,0.137,0.311,0.309V80.703z"/>
	<path fill="#FFFFFF" d="M136.202,117.303c0,0.27-0.215,0.484-0.482,0.484h-24.162c-0.266,0-0.482-0.215-0.482-0.484v-4.832
		c0-0.266,0.217-0.482,0.482-0.482h24.162c0.267,0,0.482,0.217,0.482,0.482V117.303z"/>
	<path fill="#FFFFFF" d="M108.215,78.637c-0.078-0.258-0.307-0.449-0.59-0.449c-0.127,0-0.237,0.047-0.336,0.111
		c-0.015,0.01-0.029,0.018-0.044,0.029l-0.198,0.25l-23.089,29.289l-0.106,0.143c-0.119,0.117-0.195,0.277-0.2,0.457v0.039v35.953
		c0,0.316,0.258,0.572,0.576,0.572h23.469c0.318,0,0.574-0.256,0.574-0.572V78.877C108.27,78.791,108.248,78.709,108.215,78.637z
		 M98.494,94.543l0.165-0.207c1.58-2.027,4.242-5.305,5.54-6.896l0.17-0.203c0.123-0.148,0.309-0.244,0.517-0.244
		c0.321,0,0.578,0.232,0.641,0.537v0.26V88v6.939c0,0.357-0.284,0.645-0.638,0.66c-0.011,0-0.02,0.006-0.029,0.006
		c-0.01,0-0.019-0.006-0.029-0.006h-5.483h-0.286c-0.011,0-0.019,0.006-0.029,0.006c-0.01,0-0.019-0.006-0.029-0.006
		c-0.354-0.016-0.638-0.303-0.638-0.66C98.364,94.791,98.412,94.654,98.494,94.543z M94.841,135.562
		c0,0.318-0.256,0.574-0.574,0.574h-7.002c-0.318,0-0.574-0.256-0.574-0.574v-4.383c0-0.316,0.256-0.572,0.574-0.572h7.002
		c0.318,0,0.574,0.256,0.574,0.572V135.562z M94.841,127.465c0,0.318-0.256,0.574-0.574,0.574h-7.002
		c-0.318,0-0.574-0.256-0.574-0.574v-4.383c0-0.32,0.256-0.574,0.574-0.574h7.002c0.318,0,0.574,0.254,0.574,0.574V127.465z
		 M94.841,119.367c0,0.314-0.256,0.572-0.574,0.572h-7.002c-0.318,0-0.574-0.258-0.574-0.572v-4.385
		c0-0.318,0.256-0.574,0.574-0.574h7.002c0.318,0,0.574,0.256,0.574,0.574V119.367z M94.86,101.621v0.211v9.443
		c0,0.318-0.26,0.574-0.574,0.574h-7c-0.32,0-0.578-0.256-0.578-0.574v-1.166v-0.049c0.003-0.076,0.018-0.148,0.044-0.215
		c0.012-0.023,0.014-0.033,0.035-0.066c0.014-0.027,0.033-0.053,0.051-0.076c0.018-0.027,0.044-0.062,0.065-0.094
		c0.895-1.281,4.934-6.256,6.63-8.336l0.17-0.205c0.123-0.149,0.309-0.244,0.517-0.244c0.321,0,0.578,0.234,0.641,0.537V101.621z
		 M105.544,135.562c0,0.318-0.26,0.574-0.574,0.574h-7c-0.32,0-0.578-0.256-0.578-0.574v-4.383c0-0.316,0.258-0.572,0.578-0.572h7
		c0.314,0,0.574,0.256,0.574,0.572V135.562z M105.544,127.465c0,0.318-0.26,0.574-0.574,0.574h-7c-0.32,0-0.578-0.256-0.578-0.574
		v-4.383c0-0.32,0.258-0.574,0.578-0.574h7c0.314,0,0.574,0.254,0.574,0.574V127.465z M105.544,119.367
		c0,0.314-0.26,0.572-0.574,0.572h-7c-0.32,0-0.578-0.258-0.578-0.572v-4.385c0-0.318,0.258-0.574,0.578-0.574h7
		c0.314,0,0.574,0.256,0.574,0.574V119.367z M105.544,111.268c0,0.316-0.26,0.572-0.574,0.572h-7c-0.32,0-0.578-0.256-0.578-0.572
		v-4.383c0-0.318,0.258-0.574,0.578-0.574h7c0.314,0,0.574,0.256,0.574,0.574V111.268z M105.544,103.168
		c0,0.318-0.26,0.574-0.574,0.574h-7c-0.32,0-0.578-0.256-0.578-0.574v-4.383c0-0.32,0.258-0.576,0.578-0.576h7
		c0.314,0,0.574,0.256,0.574,0.576V103.168z"/>
</g>
<g>
	<path fill="#FFFFFF" d="M44.597,24.161V22.34h2.121v1.861c0,0.76,0.34,1.2,1.12,1.2c0.72,0,1.04-0.48,1.04-1.2V23.68
		c0-0.78-0.32-1.26-1.021-1.92l-1.34-1.34c-1.301-1.28-1.9-2.06-1.9-3.621v-0.46c0-1.681,0.979-2.981,3.2-2.981
		c2.28,0,3.181,1.121,3.181,3.081v1.1h-2.08v-1.18c0-0.78-0.36-1.16-1.08-1.16c-0.641,0-1.08,0.36-1.08,1.12v0.28
		c0,0.76,0.42,1.201,1.08,1.84l1.46,1.44c1.24,1.26,1.841,2.02,1.841,3.521v0.66c0,1.86-1.001,3.181-3.321,3.181
		C45.497,27.241,44.597,25.941,44.597,24.161z"/>
	<path fill="#FFFFFF" d="M58.738,13.518V23.78c0,2.101-0.899,3.461-3.221,3.461c-2.4,0-3.4-1.36-3.4-3.461V13.518h2.28V24
		c0,0.8,0.32,1.34,1.12,1.34c0.801,0,1.121-0.54,1.121-1.34V13.518H58.738z"/>
	<path fill="#FFFFFF" d="M59.697,24.161V22.34h2.121v1.861c0,0.76,0.34,1.2,1.12,1.2c0.72,0,1.04-0.48,1.04-1.2V23.68
		c0-0.78-0.32-1.26-1.021-1.92l-1.34-1.34c-1.301-1.28-1.9-2.06-1.9-3.621v-0.46c0-1.681,0.979-2.981,3.2-2.981
		c2.28,0,3.181,1.121,3.181,3.081v1.1h-2.08v-1.18c0-0.78-0.36-1.16-1.08-1.16c-0.641,0-1.08,0.36-1.08,1.12v0.28
		c0,0.76,0.42,1.201,1.08,1.84l1.46,1.44c1.24,1.26,1.841,2.02,1.841,3.521v0.66c0,1.86-1.001,3.181-3.321,3.181
		S59.697,25.941,59.697,24.161z"/>
	<path fill="#FFFFFF" d="M66.658,13.518h6.062v1.86h-1.881v11.703h-2.301V15.378h-1.88V13.518z"/>
	<path fill="#FFFFFF" d="M72.197,27.081l2.561-13.563h2.601l2.581,13.563h-2.341l-0.42-2.48h-2.421l-0.399,2.48H72.197z
		 M75.059,22.78h1.82l-0.9-5.441h-0.021L75.059,22.78z"/>
	<path fill="#FFFFFF" d="M80.657,13.518h2.28v13.563h-2.28V13.518z"/>
	<path fill="#FFFFFF" d="M85.958,18.559v8.522h-1.921V13.518h2.24l2.461,7.782v-7.782h1.9v13.563h-2L85.958,18.559z"/>
	<path fill="#FFFFFF" d="M91.355,27.081l2.56-13.563h2.601l2.581,13.563h-2.341l-0.42-2.48h-2.421l-0.399,2.48H91.355z
		 M94.217,22.78h1.82l-0.9-5.441h-0.021L94.217,22.78z"/>
	<path fill="#FFFFFF" d="M99.815,13.518h3.301c2.28,0,3.041,1.06,3.041,2.981v1.38c0,1.141-0.421,1.86-1.36,2.161
		c1.14,0.26,1.7,1.02,1.7,2.26v1.801c0,1.92-0.86,2.98-3.141,2.98h-3.541V13.518z M102.096,19.239h0.801c0.74,0,1.08-0.38,1.08-1.1
		v-1.66c0-0.74-0.34-1.101-1.101-1.101h-0.78V19.239z M102.096,20.98v4.241h1.001c0.76,0,1.12-0.38,1.12-1.1V22.08
		c0-0.72-0.341-1.1-1.141-1.1H102.096z"/>
	<path fill="#FFFFFF" d="M107.415,13.518h2.28v11.703h2.721v1.86h-5.001V13.518z"/>
	<path fill="#FFFFFF" d="M113.234,13.518h5.441v1.86h-3.161v3.881h2.261v1.84h-2.261v4.121h3.161v1.86h-5.441V13.518z"/>
	<path fill="#FFFFFF" d="M121.554,23.58v-6.561c0-2.121,1-3.661,3.4-3.661c2.521,0,3.221,1.4,3.221,3.401v1.601h-2.08v-1.781
		c0-0.84-0.28-1.32-1.101-1.32c-0.819,0-1.16,0.581-1.16,1.4v7.282c0,0.82,0.341,1.4,1.16,1.4c0.82,0,1.101-0.52,1.101-1.32v-2.5
		h2.08v2.34c0,1.94-0.8,3.381-3.221,3.381C122.554,27.241,121.554,25.681,121.554,23.58z"/>
	<path fill="#FFFFFF" d="M129.193,13.518h2.28v13.563h-2.28V13.518z"/>
	<path fill="#FFFFFF" d="M132.313,13.518h6.062v1.86h-1.881v11.703h-2.301V15.378h-1.88V13.518z"/>
	<path fill="#FFFFFF" d="M139.213,13.518h2.28v13.563h-2.28V13.518z"/>
	<path fill="#FFFFFF" d="M142.593,13.518h5.441v1.86h-3.161v3.881h2.261v1.84h-2.261v4.121h3.161v1.86h-5.441V13.518z"/>
	<path fill="#FFFFFF" d="M148.813,24.161V22.34h2.121v1.861c0,0.76,0.34,1.2,1.12,1.2c0.72,0,1.04-0.48,1.04-1.2V23.68
		c0-0.78-0.32-1.26-1.021-1.92l-1.34-1.34c-1.301-1.28-1.9-2.06-1.9-3.621v-0.46c0-1.681,0.979-2.981,3.2-2.981
		c2.28,0,3.181,1.121,3.181,3.081v1.1h-2.08v-1.18c0-0.78-0.36-1.16-1.08-1.16c-0.641,0-1.08,0.36-1.08,1.12v0.28
		c0,0.76,0.42,1.201,1.08,1.84l1.46,1.44c1.24,1.26,1.841,2.02,1.841,3.521v0.66c0,1.86-1.001,3.181-3.321,3.181
		S148.813,25.941,148.813,24.161z"/>
	<path fill="#FFFFFF" d="M44.356,46.081l2.561-13.563h2.601l2.581,13.563h-2.341l-0.42-2.48h-2.421l-0.399,2.48H44.356z
		 M47.218,41.78h1.82l-0.9-5.441h-0.021L47.218,41.78z"/>
	<path fill="#FFFFFF" d="M54.737,37.559v8.522h-1.921V32.518h2.24l2.461,7.782v-7.782h1.9v13.563h-2L54.737,37.559z"/>
	<path fill="#FFFFFF" d="M67.317,36.159v6.282c0,2.08-0.86,3.641-3.301,3.641h-3.52V32.518h3.52
		C66.457,32.518,67.317,34.059,67.317,36.159z M63.737,44.221c0.939,0,1.3-0.56,1.3-1.38v-7.102c0-0.8-0.36-1.36-1.3-1.36h-0.961
		v9.842H63.737z"/>
	<path fill="#FFFFFF" d="M70.276,42.58v-6.561c0-2.121,1-3.661,3.4-3.661c2.521,0,3.221,1.4,3.221,3.401v1.601h-2.08v-1.781
		c0-0.84-0.28-1.32-1.101-1.32c-0.819,0-1.16,0.581-1.16,1.4v7.282c0,0.82,0.341,1.4,1.16,1.4c0.82,0,1.101-0.52,1.101-1.32v-2.5
		h2.08v2.34c0,1.94-0.8,3.381-3.221,3.381C71.276,46.241,70.276,44.681,70.276,42.58z"/>
	<path fill="#FFFFFF" d="M77.916,42.58v-6.561c0-2.121,1.04-3.661,3.441-3.661c2.421,0,3.461,1.541,3.461,3.661v6.561
		c0,2.101-1.04,3.661-3.461,3.661C78.956,46.241,77.916,44.681,77.916,42.58z M82.537,42.94v-7.282c0-0.82-0.36-1.4-1.181-1.4
		c-0.8,0-1.16,0.581-1.16,1.4v7.282c0,0.82,0.36,1.4,1.16,1.4C82.177,44.341,82.537,43.761,82.537,42.94z"/>
	<path fill="#FFFFFF" d="M92.177,37.279h-0.06l-1.541,8.802h-1.06l-1.7-8.802h-0.04v8.802h-1.881V32.518h2.661l1.479,7.642h0.021
		l1.32-7.642h2.881v13.563h-2.081V37.279z"/>
	<path fill="#FFFFFF" d="M101.615,37.279h-0.06l-1.541,8.802h-1.06l-1.7-8.802h-0.04v8.802h-1.881V32.518h2.661l1.479,7.642h0.021
		l1.32-7.642h2.881v13.563h-2.081V37.279z"/>
	<path fill="#FFFFFF" d="M111.395,32.518V42.78c0,2.101-0.9,3.461-3.221,3.461c-2.4,0-3.4-1.36-3.4-3.461V32.518h2.28V43
		c0,0.8,0.32,1.34,1.12,1.34c0.801,0,1.121-0.54,1.121-1.34V32.518H111.395z"/>
	<path fill="#FFFFFF" d="M114.395,37.559v8.522h-1.921V32.518h2.24l2.461,7.782v-7.782h1.9v13.563h-2L114.395,37.559z"/>
	<path fill="#FFFFFF" d="M120.153,32.518h2.28v13.563h-2.28V32.518z"/>
	<path fill="#FFFFFF" d="M123.273,32.518h6.061v1.86h-1.881v11.703h-2.301V34.378h-1.88V32.518z"/>
	<path fill="#FFFFFF" d="M130.173,32.518h2.28v13.563h-2.28V32.518z"/>
	<path fill="#FFFFFF" d="M133.553,32.518h5.441v1.86h-3.161v3.881h2.261v1.84h-2.261v4.121h3.161v1.86h-5.441V32.518z"/>
	<path fill="#FFFFFF" d="M139.773,43.161V41.34h2.121v1.861c0,0.76,0.34,1.2,1.12,1.2c0.72,0,1.04-0.48,1.04-1.2V42.68
		c0-0.78-0.32-1.26-1.021-1.92l-1.34-1.34c-1.301-1.28-1.9-2.06-1.9-3.621v-0.46c0-1.681,0.98-2.981,3.2-2.981
		c2.28,0,3.181,1.121,3.181,3.081v1.1h-2.08v-1.18c0-0.78-0.36-1.16-1.08-1.16c-0.641,0-1.08,0.36-1.08,1.12v0.28
		c0,0.76,0.42,1.201,1.08,1.84l1.46,1.44c1.24,1.26,1.841,2.02,1.841,3.521v0.66c0,1.86-1.001,3.181-3.321,3.181
		C140.674,46.241,139.773,44.941,139.773,43.161z"/>
</g>
</svg>
