<?xml version="1.0" encoding="utf-8"?>
<!-- Generator: Adobe Illustrator 17.0.0, SVG Export Plug-In . SVG Version: 6.00 Build 0)  -->
<!DOCTYPE svg PUBLIC "-//W3C//DTD SVG 1.1//EN" "http://www.w3.org/Graphics/SVG/1.1/DTD/svg11.dtd">
<svg version="1.1" id="Layer_1" xmlns="http://www.w3.org/2000/svg" xmlns:xlink="http://www.w3.org/1999/xlink" x="0px" y="0px"
	 width="160.922px" height="160.927px" viewBox="0 0 160.922 160.927" enable-background="new 0 0 160.922 160.927"
	 xml:space="preserve">
<rect x="0" y="0" fill="#A21C44" width="160.922" height="160.927"/>
<path fill="#FFFFFF" d="M31.268,37.994v-3.542c0-3.109-1.1-5.359-3.637-6.509c2.151-1.051,3.158-2.965,3.158-5.645v-1.342
	c0-5.072-2.632-7.8-7.656-7.8c-4.976,0-7.562,2.727-7.562,7.8v1.342c0,2.633,0.959,4.595,3.062,5.645
	c-2.536,1.149-3.59,3.399-3.59,6.509v3.542c0,4.929,2.347,8.375,8.09,8.375C28.922,46.369,31.268,42.922,31.268,37.994
	 M20.69,20.623c0-1.965,0.672-3.113,2.442-3.113c1.816,0,2.488,1.148,2.488,3.113v2.199c0,1.962-0.672,3.113-2.488,3.113
	c-1.77,0-2.442-1.151-2.442-3.113V20.623z M25.811,38.568c0,1.963-0.718,3.351-2.679,3.351c-1.916,0-2.633-1.388-2.633-3.351v-5.265
	c0-1.961,0.717-3.35,2.633-3.35c1.961,0,2.679,1.389,2.679,3.35V38.568z"/>
<g>
	<path fill="#FFFFFF" d="M110.995,79.172L94.639,94.732c-0.617,0.614-0.934,1.066-0.934,2.337v43.608
		c0,0.512,0.418,0.931,0.934,0.931h16.896c0.515,0,0.931-0.419,0.931-0.931V79.565C112.465,79.05,112.062,78.111,110.995,79.172"/>
	<path fill="#FFFFFF" d="M63.874,99.444l-16.358,15.558c-0.615,0.615-0.933,1.066-0.933,2.335v23.341
		c0,0.51,0.419,0.929,0.933,0.929h16.896c0.516,0,0.932-0.419,0.932-0.929V99.834C65.344,99.319,64.938,98.377,63.874,99.444"/>
	<path fill="#FFFFFF" d="M118.43,60.303c0.006-0.124-0.038-0.257-0.139-0.354c-0.086-0.084-0.196-0.123-0.303-0.133l-0.09,0.006
		l-0.134,0.008l-12.524,2.825l-0.228,0.023c-0.09,0.018-0.175,0.062-0.244,0.128c-0.185,0.187-0.185,0.487,0,0.674l0.142,0.142
		l2.86,2.859l-28.38,28.38L66.283,81.752c-0.148-0.149-0.384-0.149-0.533,0l-3.557,3.558c-0.003,0-0.003,0.004-0.003,0.004
		l-21.012,21.008c-0.146,0.148-0.146,0.389,0,0.534l3.562,3.56c0.146,0.147,0.383,0.147,0.529,0L66.02,89.67l9.512,9.513
		c0.01,0.015,0.015,0.03,0.03,0.045l3.558,3.554c0.147,0.149,0.385,0.149,0.533,0l32.209-32.209l3.004,3.002
		c0.185,0.187,0.485,0.187,0.668,0c0.088-0.088,0.131-0.195,0.137-0.309l0.002-0.04l2.751-12.785L118.43,60.303z"/>
	<path fill="#FFFFFF" d="M87.527,102.174l-7.914,7.979c-0.15,0.124-0.37,0.12-0.51-0.02l-7.17-7.309
		c-1.312-1.308-1.596-0.247-1.596,0.267v37.583c0,0.512,0.412,0.931,0.926,0.931h16.9c0.512,0,0.93-0.419,0.93-0.931v-38.206
		C89.094,101.956,88.688,101.012,87.527,102.174"/>
</g>
<g>
	<path fill="#FFFFFF" d="M49.775,17.159v6.282c0,2.08-0.86,3.641-3.301,3.641h-3.521V13.518h3.521
		C48.915,13.518,49.775,15.059,49.775,17.159z M46.195,25.221c0.939,0,1.3-0.56,1.3-1.38v-7.102c0-0.8-0.36-1.36-1.3-1.36h-0.961
		v9.842H46.195z"/>
	<path fill="#FFFFFF" d="M51.074,13.518h5.441v1.86h-3.161v3.881h2.261v1.84h-2.261v4.121h3.161v1.86h-5.441V13.518z"/>
	<path fill="#FFFFFF" d="M57.533,23.58v-6.561c0-2.121,1-3.661,3.4-3.661c2.521,0,3.221,1.4,3.221,3.401v1.601h-2.08v-1.781
		c0-0.84-0.28-1.32-1.101-1.32c-0.819,0-1.16,0.581-1.16,1.4v7.282c0,0.82,0.341,1.4,1.16,1.4c0.82,0,1.101-0.52,1.101-1.32v-2.5
		h2.08v2.34c0,1.94-0.8,3.381-3.221,3.381C58.533,27.241,57.533,25.681,57.533,23.58z"/>
	<path fill="#FFFFFF" d="M65.394,13.518h5.441v1.86h-3.161v3.881h2.261v1.84h-2.261v4.121h3.161v1.86h-5.441V13.518z"/>
	<path fill="#FFFFFF" d="M73.975,18.559v8.522h-1.921V13.518h2.24l2.461,7.782v-7.782h1.9v13.563h-2L73.975,18.559z"/>
	<path fill="#FFFFFF" d="M79.693,13.518h6.062v1.86h-1.881v11.703h-2.301V15.378h-1.88V13.518z"/>
	<path fill="#FFFFFF" d="M93.833,18.699l-1.28,8.382h-2.141l-1.82-13.563h2.201l1.06,8.602h0.021l1.14-8.602h1.86l1.261,8.602h0.02
		l1.041-8.602h1.92l-1.76,13.563h-2.161l-1.34-8.382H93.833z"/>
	<path fill="#FFFFFF" d="M99.894,23.58v-6.561c0-2.121,1.04-3.661,3.44-3.661c2.421,0,3.461,1.541,3.461,3.661v6.561
		c0,2.101-1.04,3.661-3.461,3.661C100.934,27.241,99.894,25.681,99.894,23.58z M104.515,23.94v-7.282c0-0.82-0.36-1.4-1.181-1.4
		c-0.8,0-1.16,0.581-1.16,1.4v7.282c0,0.82,0.36,1.4,1.16,1.4C104.154,25.341,104.515,24.761,104.515,23.94z"/>
	<path fill="#FFFFFF" d="M110.373,20.86v6.221h-2.28V13.518h3.321c2.3,0,3.141,1.14,3.141,3.04v1.741c0,1.46-0.521,2.32-1.821,2.621
		l2.181,6.161h-2.4L110.373,20.86z M110.373,15.378V19.6h0.761c0.78,0,1.12-0.4,1.12-1.121v-2c0-0.74-0.34-1.101-1.12-1.101H110.373
		z"/>
	<path fill="#FFFFFF" d="M118.073,20.479v6.602h-2.28V13.518h2.28v5.961l2.48-5.961h2.241l-2.641,6.102l2.7,7.461h-2.4
		L118.073,20.479z"/>
	<path fill="#FFFFFF" d="M125.452,27.081l2.561-13.563h2.601l2.581,13.563h-2.341l-0.42-2.48h-2.421l-0.399,2.48H125.452z
		 M128.313,22.78h1.82l-0.9-5.441h-0.021L128.313,22.78z"/>
	<path fill="#FFFFFF" d="M136.054,18.559v8.522h-1.921V13.518h2.24l2.461,7.782v-7.782h1.9v13.563h-2L136.054,18.559z"/>
	<path fill="#FFFFFF" d="M148.854,17.159v6.282c0,2.08-0.86,3.641-3.301,3.641h-3.521V13.518h3.521
		C147.993,13.518,148.854,15.059,148.854,17.159z M145.273,25.221c0.939,0,1.3-0.56,1.3-1.38v-7.102c0-0.8-0.36-1.36-1.3-1.36
		h-0.961v9.842H145.273z"/>
	<path fill="#FFFFFF" d="M42.954,32.518h5.441v1.86h-3.161v3.881h2.261v1.84h-2.261v4.121h3.161v1.86h-5.441V32.518z"/>
	<path fill="#FFFFFF" d="M49.413,42.58v-6.561c0-2.121,1-3.661,3.4-3.661c2.521,0,3.221,1.4,3.221,3.401v1.601h-2.08v-1.781
		c0-0.84-0.28-1.32-1.101-1.32c-0.819,0-1.16,0.581-1.16,1.4v7.282c0,0.82,0.341,1.4,1.16,1.4c0.82,0,1.101-0.52,1.101-1.32v-2.5
		h2.08v2.34c0,1.94-0.8,3.381-3.221,3.381C50.413,46.241,49.413,44.681,49.413,42.58z"/>
	<path fill="#FFFFFF" d="M57.272,42.58v-6.561c0-2.121,1.04-3.661,3.44-3.661c2.421,0,3.461,1.541,3.461,3.661v6.561
		c0,2.101-1.04,3.661-3.461,3.661C58.312,46.241,57.272,44.681,57.272,42.58z M61.894,42.94v-7.282c0-0.82-0.36-1.4-1.181-1.4
		c-0.8,0-1.16,0.581-1.16,1.4v7.282c0,0.82,0.36,1.4,1.16,1.4C61.533,44.341,61.894,43.761,61.894,42.94z"/>
	<path fill="#FFFFFF" d="M67.394,37.559v8.522h-1.921V32.518h2.24l2.461,7.782v-7.782h1.9v13.563h-2L67.394,37.559z"/>
	<path fill="#FFFFFF" d="M73.372,42.58v-6.561c0-2.121,1.04-3.661,3.44-3.661c2.421,0,3.461,1.541,3.461,3.661v6.561
		c0,2.101-1.04,3.661-3.461,3.661C74.412,46.241,73.372,44.681,73.372,42.58z M77.993,42.94v-7.282c0-0.82-0.36-1.4-1.181-1.4
		c-0.8,0-1.16,0.581-1.16,1.4v7.282c0,0.82,0.36,1.4,1.16,1.4C77.633,44.341,77.993,43.761,77.993,42.94z"/>
	<path fill="#FFFFFF" d="M87.853,37.279h-0.06l-1.541,8.802h-1.06l-1.7-8.802h-0.04v8.802h-1.881V32.518h2.661l1.479,7.642h0.021
		l1.32-7.642h2.881v13.563h-2.081V37.279z"/>
	<path fill="#FFFFFF" d="M91.23,32.518h2.28v13.563h-2.28V32.518z"/>
	<path fill="#FFFFFF" d="M94.83,42.58v-6.561c0-2.121,1-3.661,3.4-3.661c2.521,0,3.221,1.4,3.221,3.401v1.601h-2.08v-1.781
		c0-0.84-0.28-1.32-1.101-1.32c-0.819,0-1.16,0.581-1.16,1.4v7.282c0,0.82,0.341,1.4,1.16,1.4c0.82,0,1.101-0.52,1.101-1.32v-2.5
		h2.08v2.34c0,1.94-0.8,3.381-3.221,3.381C95.83,46.241,94.83,44.681,94.83,42.58z"/>
	<path fill="#FFFFFF" d="M108.23,38.839h3.241v7.242h-1.641v-1.48c-0.3,1.021-0.94,1.641-2.181,1.641c-1.96,0-2.86-1.561-2.86-3.661
		v-6.561c0-2.121,1.021-3.661,3.421-3.661c2.521,0,3.261,1.4,3.261,3.401v1.2h-2.08v-1.38c0-0.84-0.32-1.32-1.141-1.32
		c-0.82,0-1.181,0.581-1.181,1.4v7.282c0,0.82,0.341,1.4,1.12,1.4c0.74,0,1.121-0.42,1.121-1.3v-2.4h-1.081V38.839z"/>
	<path fill="#FFFFFF" d="M115.05,39.86v6.221h-2.28V32.518h3.321c2.3,0,3.141,1.14,3.141,3.04v1.741c0,1.46-0.521,2.32-1.821,2.621
		l2.181,6.161h-2.4L115.05,39.86z M115.05,34.378V38.6h0.761c0.78,0,1.12-0.4,1.12-1.121v-2c0-0.74-0.34-1.101-1.12-1.101H115.05z"
		/>
	<path fill="#FFFFFF" d="M120.47,42.58v-6.561c0-2.121,1.04-3.661,3.44-3.661c2.421,0,3.461,1.541,3.461,3.661v6.561
		c0,2.101-1.04,3.661-3.461,3.661C121.51,46.241,120.47,44.681,120.47,42.58z M125.091,42.94v-7.282c0-0.82-0.36-1.4-1.181-1.4
		c-0.8,0-1.16,0.581-1.16,1.4v7.282c0,0.82,0.36,1.4,1.16,1.4C124.73,44.341,125.091,43.761,125.091,42.94z"/>
	<path fill="#FFFFFF" d="M133.391,37.699l-1.28,8.382h-2.141l-1.82-13.563h2.201l1.06,8.602h0.02l1.14-8.602h1.86l1.261,8.602h0.02
		l1.041-8.602h1.92l-1.76,13.563h-2.161l-1.34-8.382H133.391z"/>
	<path fill="#FFFFFF" d="M139.391,32.518h6.062v1.86h-1.881v11.703h-2.301V34.378h-1.88V32.518z"/>
	<path fill="#FFFFFF" d="M150.991,40.1h-2.201v5.981h-2.28V32.518h2.28v5.741h2.201v-5.741h2.3v13.563h-2.3V40.1z"/>
</g>
</svg>
