<?xml version="1.0" encoding="utf-8"?>
<!-- Generator: Adobe Illustrator 17.0.0, SVG Export Plug-In . SVG Version: 6.00 Build 0)  -->
<!DOCTYPE svg PUBLIC "-//W3C//DTD SVG 1.1//EN" "http://www.w3.org/Graphics/SVG/1.1/DTD/svg11.dtd">
<svg version="1.1" id="Layer_1" xmlns="http://www.w3.org/2000/svg" xmlns:xlink="http://www.w3.org/1999/xlink" x="0px" y="0px"
	 width="160.918px" height="160.928px" viewBox="0 0 160.918 160.928" enable-background="new 0 0 160.918 160.928"
	 xml:space="preserve">
<rect x="0" y="0" fill="#29BEE2" width="160.918" height="160.928"/>
<path fill="#FFFFFF" d="M24.348,46.361c5.789,0,8.039-3.16,8.039-8.186V33.39c0-5.312-2.105-7.991-6.031-7.991
	c-2.297,0-3.684,1.055-4.498,2.633H21.81v-6.987c0-1.964,0.623-3.351,2.584-3.351c1.961,0,2.537,1.15,2.537,3.159v2.153h4.977
	v-1.723c0-4.787-1.58-8.135-7.609-8.135c-5.742,0-7.896,3.684-7.896,8.756v15.793C16.402,42.724,18.603,46.361,24.348,46.361
	 M21.81,32.72c0.096-1.817,0.861-2.966,2.584-2.966c1.865,0,2.584,1.149,2.584,3.255v5.648c0,2.057-0.764,3.254-2.631,3.254
	c-1.82,0-2.537-1.244-2.537-3.254V32.72z"/>
<path fill="#FFFFFF" d="M110.097,65.073c-0.137-0.148-0.32-0.231-0.528-0.231H51.187c-0.202,0-0.388,0.083-0.525,0.231
	c-0.128,0.163-0.179,0.364-0.146,0.552l9.808,59.322c0.054,0.328,0.341,0.572,0.673,0.572h12.038l0.823,9.662l-5.065,0.006
	l11.787,11.787l11.815-11.813l-5.064,0.005l0.822-9.646h12.25c0.338,0,0.62-0.244,0.67-0.582l9.177-59.312
	C110.282,65.421,110.223,65.227,110.097,65.073z M87.533,112.564c0,0-2.652,2.726-6.967,2.43c-4.324,0.295-6.974-2.43-6.974-2.43
	c-4.374-4.37-2.813-9.806-1.291-12.615c0.94-1.76,7.66-11.852,8.238-12.71v-0.068c0,0,0.01,0.013,0.026,0.033l0.023-0.033v0.068
	c0.562,0.858,7.293,10.95,8.233,12.71C90.348,102.758,91.903,108.195,87.533,112.564z M106.053,77.554
	c-1.582-0.697-3.588-0.446-5.514,0.334c-7.244,2.936-12.174,3.992-19.793,1.606c-4.798-1.502-9.287-4.647-14.594-2.732
	c-3.522,1.267-6.803,2.475-10.784,2.444l-2.3-11.79h54.638L106.053,77.554z"/>
<g>
	<path fill="#FFFFFF" d="M46.69,23.162v-6.561c0-2.121,1-3.661,3.4-3.661c2.521,0,3.221,1.4,3.221,3.401v1.601h-2.08v-1.781
		c0-0.84-0.28-1.32-1.101-1.32c-0.819,0-1.16,0.58-1.16,1.4v7.282c0,0.82,0.341,1.4,1.16,1.4c0.82,0,1.101-0.52,1.101-1.32v-2.5
		h2.08v2.34c0,1.94-0.8,3.381-3.221,3.381C47.69,26.823,46.69,25.263,46.69,23.162z"/>
	<path fill="#FFFFFF" d="M54.55,13.1h2.28v11.703h2.721v1.86H54.55V13.1z"/>
	<path fill="#FFFFFF" d="M60.589,13.1h5.441v1.86h-3.161v3.881h2.261v1.84h-2.261v4.121h3.161v1.86h-5.441V13.1z"/>
	<path fill="#FFFFFF" d="M66.889,26.663L69.449,13.1h2.601l2.581,13.563H72.29l-0.42-2.48h-2.421l-0.399,2.48H66.889z M69.75,22.362
		h1.82l-0.9-5.441h-0.021L69.75,22.362z"/>
	<path fill="#FFFFFF" d="M77.489,18.141v8.522h-1.921V13.1h2.24l2.461,7.782V13.1h1.9v13.563h-2L77.489,18.141z"/>
	<path fill="#FFFFFF" d="M90.488,18.281l-1.28,8.382h-2.141L85.247,13.1h2.201l1.06,8.602h0.021l1.14-8.602h1.86l1.261,8.602h0.02
		l1.041-8.602h1.92l-1.76,13.563h-2.161l-1.34-8.382H90.488z"/>
	<path fill="#FFFFFF" d="M95.587,26.663L98.147,13.1h2.601l2.581,13.563h-2.341l-0.42-2.48h-2.421l-0.399,2.48H95.587z
		 M98.448,22.362h1.82l-0.9-5.441h-0.021L98.448,22.362z"/>
	<path fill="#FFFFFF" d="M103.008,13.1h6.062v1.86h-1.881v11.703h-2.301V14.96h-1.88V13.1z"/>
	<path fill="#FFFFFF" d="M110.127,13.1h5.441v1.86h-3.161v3.881h2.261v1.84h-2.261v4.121h3.161v1.86h-5.441V13.1z"/>
	<path fill="#FFFFFF" d="M119.067,20.442v6.221h-2.28V13.1h3.321c2.3,0,3.141,1.14,3.141,3.041v1.741c0,1.46-0.521,2.32-1.821,2.621
		l2.181,6.161h-2.4L119.067,20.442z M119.067,14.96v4.221h0.761c0.78,0,1.12-0.4,1.12-1.121v-2c0-0.74-0.34-1.101-1.12-1.101
		H119.067z"/>
	<path fill="#FFFFFF" d="M46.33,45.663L48.891,32.1h2.601l2.581,13.563h-2.341l-0.42-2.48h-2.421l-0.399,2.48H46.33z M49.191,41.362
		h1.82l-0.9-5.441h-0.021L49.191,41.362z"/>
	<path fill="#FFFFFF" d="M56.931,37.141v8.522H55.01V32.1h2.24l2.461,7.782V32.1h1.9v13.563h-2L56.931,37.141z"/>
	<path fill="#FFFFFF" d="M69.73,35.741v6.282c0,2.08-0.86,3.641-3.301,3.641h-3.521V32.1h3.521
		C68.87,32.1,69.73,33.641,69.73,35.741z M66.15,43.803c0.939,0,1.3-0.56,1.3-1.38v-7.102c0-0.8-0.36-1.36-1.3-1.36h-0.961v9.842
		H66.15z"/>
	<path fill="#FFFFFF" d="M73.01,42.743v-1.821h2.121v1.861c0,0.76,0.34,1.2,1.12,1.2c0.72,0,1.04-0.48,1.04-1.2v-0.521
		c0-0.78-0.32-1.26-1.021-1.92l-1.34-1.34c-1.301-1.28-1.9-2.06-1.9-3.621v-0.46c0-1.681,0.979-2.981,3.2-2.981
		c2.28,0,3.181,1.121,3.181,3.081v1.1h-2.08v-1.18c0-0.78-0.36-1.16-1.08-1.16c-0.641,0-1.08,0.36-1.08,1.12v0.28
		c0,0.76,0.42,1.201,1.08,1.84l1.46,1.44c1.24,1.26,1.841,2.021,1.841,3.521v0.66c0,1.86-1.001,3.181-3.321,3.181
		C73.91,45.823,73.01,44.523,73.01,42.743z"/>
	<path fill="#FFFFFF" d="M80.189,45.663L82.75,32.1h2.601l2.581,13.563h-2.341l-0.42-2.48H82.75l-0.399,2.48H80.189z M83.051,41.362
		h1.82l-0.9-5.441H83.95L83.051,41.362z"/>
	<path fill="#FFFFFF" d="M90.79,37.141v8.522h-1.921V32.1h2.24l2.461,7.782V32.1h1.9v13.563h-2L90.79,37.141z"/>
	<path fill="#FFFFFF" d="M96.768,32.1h2.28v13.563h-2.28V32.1z"/>
	<path fill="#FFFFFF" d="M100.109,32.1h6.062v1.86h-1.881v11.703h-2.301V33.96h-1.88V32.1z"/>
	<path fill="#FFFFFF" d="M105.869,45.663L108.43,32.1h2.601l2.581,13.563h-2.341l-0.42-2.48h-2.421l-0.399,2.48H105.869z
		 M108.73,41.362h1.82l-0.9-5.441h-0.021L108.73,41.362z"/>
	<path fill="#FFFFFF" d="M113.289,32.1h6.062v1.86h-1.881v11.703h-2.301V33.96h-1.88V32.1z"/>
	<path fill="#FFFFFF" d="M120.408,32.1h2.28v13.563h-2.28V32.1z"/>
	<path fill="#FFFFFF" d="M124.008,42.162v-6.561c0-2.121,1.04-3.661,3.44-3.661c2.421,0,3.461,1.541,3.461,3.661v6.561
		c0,2.101-1.04,3.661-3.461,3.661C125.048,45.823,124.008,44.263,124.008,42.162z M128.629,42.522v-7.282c0-0.82-0.36-1.4-1.181-1.4
		c-0.8,0-1.16,0.58-1.16,1.4v7.282c0,0.82,0.36,1.4,1.16,1.4C128.268,43.923,128.629,43.343,128.629,42.522z"/>
	<path fill="#FFFFFF" d="M134.129,37.141v8.522h-1.921V32.1h2.24l2.461,7.782V32.1h1.9v13.563h-2L134.129,37.141z"/>
</g>
</svg>
