<?xml version="1.0" encoding="utf-8"?>
<!-- Generator: Adobe Illustrator 17.0.0, SVG Export Plug-In . SVG Version: 6.00 Build 0)  -->
<!DOCTYPE svg PUBLIC "-//W3C//DTD SVG 1.1//EN" "http://www.w3.org/Graphics/SVG/1.1/DTD/svg11.dtd">
<svg version="1.1" id="Layer_1" xmlns="http://www.w3.org/2000/svg" xmlns:xlink="http://www.w3.org/1999/xlink" x="0px" y="0px"
	 width="160.922px" height="160.928px" viewBox="0 0 160.922 160.928" enable-background="new 0 0 160.922 160.928"
	 xml:space="preserve">
<rect x="0" y="0" fill="#C5202E" width="160.922" height="160.928"/>
<path fill="#FFFFFF" d="M25.209,45.933h5.168v-5.264h2.203v-4.258h-2.203V13.486h-5.361L15.59,37.32v3.35h9.619V45.933z
	 M20.375,36.412l4.881-13.352h0.049v13.352H20.375z"/>
<g>
	<polygon fill="#FFFFFF" points="71.357,86.287 42.496,69.622 42.496,123.533 71.357,132.241 	"/>
	<polygon fill="#FFFFFF" points="74.531,86.397 74.531,132.26 103.58,123.526 103.58,69.624 	"/>
	<path fill="#FFFFFF" d="M126.236,68.258c0-1.888-1.529-3.416-3.412-3.416c-1.889,0-3.416,1.528-3.416,3.416v3.681h6.828V68.258z"/>
	<polygon fill="#FFFFFF" points="120.256,122.577 119.408,122.577 122.824,134.512 126.234,122.577 125.387,122.577 
		126.234,122.577 126.234,74.612 125.387,74.612 124.539,74.612 123.641,74.612 121.941,74.612 121.104,74.612 120.256,74.612 
		119.406,74.612 119.406,122.577 	"/>
	<polygon fill="#FFFFFF" points="109.779,71.937 106.686,69.493 106.686,124.995 74.617,135.357 73.133,135.357 72.84,135.357 
		71.357,135.357 39.432,126.438 39.432,69.493 36.336,71.937 36.336,128.609 71.211,138.264 72.84,138.264 73.133,138.264 
		74.762,138.264 106.938,128.048 109.779,127.212 	"/>
</g>
<g>
	<path fill="#FFFFFF" d="M48.561,27.583v-0.92c-1.82-0.32-2.601-1.66-2.601-3.501v-6.561c0-2.121,1.04-3.661,3.44-3.661
		c2.421,0,3.461,1.54,3.461,3.661v6.561c0,1.48-0.52,2.641-1.68,3.201l1.68,0.32v1.7L48.561,27.583z M50.581,23.643v-7.402
		c0-0.82-0.36-1.4-1.181-1.4c-0.8,0-1.16,0.58-1.16,1.4v7.402c0,0.8,0.36,1.4,1.16,1.4C50.221,25.043,50.581,24.442,50.581,23.643z"
		/>
	<path fill="#FFFFFF" d="M60.78,13.1v10.262c0,2.101-0.899,3.461-3.221,3.461c-2.4,0-3.4-1.36-3.4-3.461V13.1h2.28v10.483
		c0,0.8,0.32,1.34,1.12,1.34c0.801,0,1.121-0.54,1.121-1.34V13.1H60.78z"/>
	<path fill="#FFFFFF" d="M61.419,26.663L63.979,13.1h2.601l2.581,13.563H66.82l-0.42-2.48h-2.421l-0.399,2.48H61.419z M64.28,22.362
		h1.82l-0.9-5.441H65.18L64.28,22.362z"/>
	<path fill="#FFFFFF" d="M70.1,13.1h2.28v11.703h2.721v1.86H70.1V13.1z"/>
	<path fill="#FFFFFF" d="M76.14,13.1h2.28v13.563h-2.28V13.1z"/>
	<path fill="#FFFFFF" d="M79.479,13.1h6.061v1.86H83.66v11.703h-2.301V14.96h-1.88V13.1z"/>
	<path fill="#FFFFFF" d="M91.04,21.502v5.161h-2.281v-5.161l-2.54-8.402H88.6l1.38,5.141h0.019L91.38,13.1h2.181L91.04,21.502z"/>
	<path fill="#FFFFFF" d="M45.96,32.1h5.441v1.86H48.24v3.881h2.261v1.84H48.24v4.121h3.161v1.86H45.96V32.1z"/>
	<path fill="#FFFFFF" d="M59.44,35.741v6.282c0,2.08-0.86,3.641-3.301,3.641h-3.521V32.1h3.521
		C58.58,32.1,59.44,33.641,59.44,35.741z M55.86,43.803c0.939,0,1.3-0.56,1.3-1.38v-7.102c0-0.8-0.36-1.36-1.3-1.36h-0.961v9.842
		H55.86z"/>
	<path fill="#FFFFFF" d="M67.36,32.1v10.262c0,2.101-0.899,3.461-3.221,3.461c-2.4,0-3.4-1.36-3.4-3.461V32.1h2.28v10.483
		c0,0.8,0.32,1.34,1.12,1.34c0.801,0,1.121-0.54,1.121-1.34V32.1H67.36z"/>
	<path fill="#FFFFFF" d="M68.66,42.162v-6.561c0-2.121,1-3.661,3.4-3.661c2.521,0,3.221,1.4,3.221,3.401v1.6h-2.08v-1.781
		c0-0.84-0.28-1.32-1.101-1.32c-0.819,0-1.16,0.58-1.16,1.4v7.282c0,0.82,0.341,1.4,1.16,1.4c0.82,0,1.101-0.52,1.101-1.32v-2.5
		h2.08v2.34c0,1.94-0.8,3.381-3.221,3.381C69.66,45.823,68.66,44.263,68.66,42.162z"/>
	<path fill="#FFFFFF" d="M75.959,45.663L78.52,32.1h2.6l2.581,13.563H81.36l-0.42-2.48H78.52l-0.4,2.48H75.959z M78.82,41.362h1.82
		l-0.9-5.441H79.72L78.82,41.362z"/>
	<path fill="#FFFFFF" d="M83.38,32.1h6.062v1.86h-1.881v11.703H85.26V33.96h-1.88V32.1z"/>
	<path fill="#FFFFFF" d="M90.499,32.1h2.28v13.563h-2.28V32.1z"/>
	<path fill="#FFFFFF" d="M94.099,42.162v-6.561c0-2.121,1.04-3.661,3.44-3.661c2.421,0,3.461,1.541,3.461,3.661v6.561
		c0,2.101-1.04,3.661-3.461,3.661C95.139,45.823,94.099,44.263,94.099,42.162z M98.72,42.522v-7.282c0-0.82-0.36-1.4-1.181-1.4
		c-0.8,0-1.16,0.58-1.16,1.4v7.282c0,0.82,0.36,1.4,1.16,1.4C98.359,43.923,98.72,43.343,98.72,42.522z"/>
	<path fill="#FFFFFF" d="M104.22,37.141v8.522h-1.921V32.1h2.24L107,39.882V32.1h1.9v13.563h-2L104.22,37.141z"/>
</g>
</svg>
