<?xml version="1.0" encoding="utf-8"?>
<!-- Generator: Adobe Illustrator 17.0.0, SVG Export Plug-In . SVG Version: 6.00 Build 0)  -->
<!DOCTYPE svg PUBLIC "-//W3C//DTD SVG 1.1//EN" "http://www.w3.org/Graphics/SVG/1.1/DTD/svg11.dtd">
<svg version="1.1" id="Layer_1" xmlns="http://www.w3.org/2000/svg" xmlns:xlink="http://www.w3.org/1999/xlink" x="0px" y="0px"
	 width="160.914px" height="160.919px" viewBox="0 0 160.914 160.919" enable-background="new 0 0 160.914 160.919"
	 xml:space="preserve">
<rect x="0" y="0" fill="#4CA046" width="160.914" height="160.919"/>
<path fill="#FFFFFF" d="M22.963,46.368c5.505,0,7.896-2.92,7.896-7.417v-4.785c0-2.967-1.292-4.882-4.019-5.503
	c2.249-0.717,3.732-2.537,3.732-5.264v-2.824c0-4.594-2.201-7.417-7.226-7.417c-5.648,0-7.61,3.348-7.61,8.134v2.871h4.977v-3.301
	c0-2.01,0.624-3.157,2.347-3.157c1.724,0,2.343,1.147,2.343,2.918v3.494c0,1.723-1.148,2.631-2.917,2.631h-2.06v4.166h2.299
	c1.913,0,2.678,0.908,2.678,2.631v5.36c0,1.721-0.765,2.92-2.44,2.92c-1.866,0-2.537-1.246-2.537-3.159v-4.642h-4.974v4.258
	C15.452,43.21,17.412,46.368,22.963,46.368"/>
<g>
	<path fill="#FFFFFF" d="M134.506,100.569c0-4.528-2.905-8.199-7.306-8.199c-2.2,0-4.854,2.41-6.296,3.892
		c-1.441-1.484-3.92-3.896-6.121-3.896c-4.4,0-7.484,3.671-7.484,8.201c0,2.264,0.892,4.313,2.335,5.798l0,0l11.28,11.301
		l11.265-11.288l-0.009-0.008C133.613,104.886,134.506,102.834,134.506,100.569z"/>
	<g>
		<path fill="#FFFFFF" d="M86.48,136.116c-0.038,0-0.076-0.001-0.115-0.003c-0.857-0.052-1.565-0.689-1.711-1.536l-5.729-33.371
			l-8.68,16.092c-0.38,0.705-1.174,1.084-1.954,0.944c-0.788-0.14-1.396-0.77-1.51-1.561l-3.685-25.754l-6.741,15.142
			c-0.298,0.668-0.961,1.099-1.692,1.099H28.462c-1.023,0-1.853-0.83-1.853-1.852c0-1.023,0.829-1.853,1.853-1.853H53.46
			l8.867-19.917c0.336-0.754,1.13-1.194,1.948-1.081c0.817,0.114,1.461,0.755,1.578,1.572l3.799,26.555l8.56-15.87
			c0.375-0.697,1.149-1.078,1.931-0.949c0.779,0.128,1.392,0.736,1.525,1.515l5.306,30.906l19.339-64.238
			c0.221-0.731,0.867-1.253,1.628-1.312c0.764-0.057,1.483,0.354,1.814,1.042l10.176,21.095c0.444,0.921,0.058,2.028-0.863,2.473
			c-0.921,0.445-2.029,0.058-2.474-0.863l-8.106-16.806l-20.234,67.212C88.017,135.584,87.293,136.116,86.48,136.116z"/>
	</g>
</g>
<g>
	<path fill="#FFFFFF" d="M48.282,19.421h3.241v7.242h-1.641v-1.48c-0.3,1.021-0.94,1.641-2.181,1.641c-1.96,0-2.86-1.561-2.86-3.661
		v-6.561c0-2.121,1.021-3.661,3.421-3.661c2.521,0,3.261,1.4,3.261,3.401v1.2h-2.08v-1.38c0-0.84-0.32-1.32-1.141-1.32
		c-0.82,0-1.181,0.58-1.181,1.4v7.282c0,0.82,0.341,1.4,1.12,1.4c0.74,0,1.121-0.42,1.121-1.3v-2.4h-1.081V19.421z"/>
	<path fill="#FFFFFF" d="M52.821,23.162v-6.561c0-2.121,1.04-3.661,3.44-3.661c2.421,0,3.461,1.54,3.461,3.661v6.561
		c0,2.101-1.04,3.661-3.461,3.661C53.861,26.823,52.821,25.263,52.821,23.162z M57.442,23.522v-7.282c0-0.82-0.36-1.4-1.181-1.4
		c-0.8,0-1.16,0.58-1.16,1.4v7.282c0,0.82,0.36,1.4,1.16,1.4C57.082,24.923,57.442,24.343,57.442,23.522z"/>
	<path fill="#FFFFFF" d="M61.02,23.162v-6.561c0-2.121,1.04-3.661,3.441-3.661c2.421,0,3.461,1.54,3.461,3.661v6.561
		c0,2.101-1.04,3.661-3.461,3.661C62.061,26.823,61.02,25.263,61.02,23.162z M65.642,23.522v-7.282c0-0.82-0.36-1.4-1.181-1.4
		c-0.8,0-1.16,0.58-1.16,1.4v7.282c0,0.82,0.36,1.4,1.16,1.4C65.281,24.923,65.642,24.343,65.642,23.522z"/>
	<path fill="#FFFFFF" d="M76.042,16.741v6.282c0,2.08-0.86,3.641-3.301,3.641h-3.521V13.1h3.521
		C75.182,13.1,76.042,14.641,76.042,16.741z M72.462,24.803c0.939,0,1.3-0.56,1.3-1.38v-7.102c0-0.8-0.36-1.36-1.3-1.36h-0.961
		v9.842H72.462z"/>
	<path fill="#FFFFFF" d="M83.922,20.682h-2.201v5.981h-2.28V13.1h2.28v5.741h2.201V13.1h2.3v13.563h-2.3V20.682z"/>
	<path fill="#FFFFFF" d="M87.52,13.1h5.441v1.86h-3.161v3.881h2.261v1.84h-2.261v4.121h3.161v1.86H87.52V13.1z"/>
	<path fill="#FFFFFF" d="M93.819,26.663L96.38,13.1h2.601l2.581,13.563h-2.341l-0.42-2.48H96.38l-0.399,2.48H93.819z M96.681,22.362
		h1.82l-0.9-5.441H97.58L96.681,22.362z"/>
	<path fill="#FFFFFF" d="M102.5,13.1h2.28v11.703h2.721v1.86H102.5V13.1z"/>
	<path fill="#FFFFFF" d="M106.98,13.1h6.062v1.86h-1.881v11.703h-2.301V14.96h-1.88V13.1z"/>
	<path fill="#FFFFFF" d="M118.581,20.682h-2.201v5.981h-2.28V13.1h2.28v5.741h2.201V13.1h2.3v13.563h-2.3V20.682z"/>
	<path fill="#FFFFFF" d="M44.481,45.663L47.042,32.1h2.601l2.581,13.563h-2.341l-0.42-2.48h-2.421l-0.399,2.48H44.481z
		 M47.343,41.362h1.82l-0.9-5.441h-0.021L47.343,41.362z"/>
	<path fill="#FFFFFF" d="M55.082,37.141v8.522h-1.921V32.1h2.24l2.461,7.782V32.1h1.9v13.563h-2L55.082,37.141z"/>
	<path fill="#FFFFFF" d="M67.882,35.741v6.282c0,2.08-0.86,3.641-3.301,3.641h-3.52V32.1h3.52
		C67.021,32.1,67.882,33.641,67.882,35.741z M64.302,43.803c0.939,0,1.3-0.56,1.3-1.38v-7.102c0-0.8-0.36-1.36-1.3-1.36h-0.961
		v9.842H64.302z"/>
	<path fill="#FFFFFF" d="M76.202,37.281l-1.28,8.382h-2.141L70.961,32.1h2.201l1.06,8.602h0.021l1.14-8.602h1.86l1.261,8.602h0.02
		l1.041-8.602h1.92l-1.76,13.563h-2.161l-1.34-8.382H76.202z"/>
	<path fill="#FFFFFF" d="M82.461,32.1h5.441v1.86h-3.161v3.881h2.261v1.84h-2.261v4.121h3.161v1.86h-5.441V32.1z"/>
	<path fill="#FFFFFF" d="M89.12,32.1h2.28v11.703h2.721v1.86H89.12V32.1z"/>
	<path fill="#FFFFFF" d="M95.16,32.1h2.28v11.703h2.721v1.86H95.16V32.1z"/>
	<path fill="#FFFFFF" d="M99.861,38.441h3.2v1.84h-3.2V38.441z"/>
	<path fill="#FFFFFF" d="M104.221,32.1h3.301c2.28,0,3.041,1.061,3.041,2.981v1.38c0,1.141-0.421,1.86-1.36,2.161
		c1.14,0.26,1.7,1.02,1.7,2.26v1.801c0,1.92-0.86,2.98-3.141,2.98h-3.541V32.1z M106.501,37.821h0.801c0.74,0,1.08-0.38,1.08-1.1
		v-1.66c0-0.74-0.34-1.101-1.101-1.101h-0.78V37.821z M106.501,39.562v4.241h1.001c0.76,0,1.12-0.38,1.12-1.1v-2.041
		c0-0.72-0.341-1.1-1.141-1.1H106.501z"/>
	<path fill="#FFFFFF" d="M112.04,32.1h5.441v1.86h-3.161v3.881h2.261v1.84h-2.261v4.121h3.161v1.86h-5.441V32.1z"/>
	<path fill="#FFFFFF" d="M118.699,32.1h2.28v13.563h-2.28V32.1z"/>
	<path fill="#FFFFFF" d="M124.22,37.141v8.522h-1.921V32.1h2.24L127,39.882V32.1h1.9v13.563h-2L124.22,37.141z"/>
	<path fill="#FFFFFF" d="M133.64,38.421h3.241v7.242h-1.641v-1.48c-0.3,1.021-0.941,1.641-2.181,1.641
		c-1.96,0-2.86-1.561-2.86-3.661v-6.561c0-2.121,1.02-3.661,3.421-3.661c2.52,0,3.261,1.4,3.261,3.401v1.2h-2.08v-1.38
		c0-0.84-0.32-1.32-1.141-1.32c-0.82,0-1.181,0.58-1.181,1.4v7.282c0,0.82,0.341,1.4,1.12,1.4c0.74,0,1.121-0.42,1.121-1.3v-2.4
		h-1.081V38.421z"/>
</g>
</svg>
