<?xml version="1.0" encoding="utf-8"?>
<!-- Generator: Adobe Illustrator 17.0.0, SVG Export Plug-In . SVG Version: 6.00 Build 0)  -->
<!DOCTYPE svg PUBLIC "-//W3C//DTD SVG 1.1//EN" "http://www.w3.org/Graphics/SVG/1.1/DTD/svg11.dtd">
<svg version="1.1" id="Layer_1" xmlns="http://www.w3.org/2000/svg" xmlns:xlink="http://www.w3.org/1999/xlink" x="0px" y="0px"
	 width="160.922px" height="160.928px" viewBox="0 0 160.922 160.928" enable-background="new 0 0 160.922 160.928"
	 xml:space="preserve">
<rect x="0" y="0" fill="#E3253C" width="160.922" height="160.928"/>
<polygon fill="#FFFFFF" points="22.468,21.165 22.516,21.165 22.516,46.002 27.97,46.002 27.97,13.555 23.614,13.555 18.591,19.442 
	18.591,25.135 18.639,25.135 "/>
<g>
	<path fill="#FFFFFF" d="M123.931,76.777c0-2.463,1.997-4.457,4.458-4.457c2.457,0,4.448,1.994,4.448,4.457
		c0,2.46-1.991,4.455-4.448,4.455C125.928,81.232,123.931,79.237,123.931,76.777"/>
	<path fill="#FFFFFF" d="M133.589,82.95c3.022,0.273,5.392,2.816,5.392,5.916v1.48v0.647v10.222c0,0.95-0.773,1.726-1.725,1.726
		c-0.958,0-1.729-0.776-1.729-1.726V90.61c0-0.398-0.115-0.937-0.843-0.937c-0.503,0-0.607,0.533-0.626,0.872v31.791
		c0,1.366-1.106,2.481-2.479,2.481c-1.374,0-2.486-1.115-2.486-2.481v-18.32c-0.007-0.202-0.074-0.728-0.704-0.728h-0.003
		c-0.633,0-0.71,0.525-0.717,0.728v18.32c0,1.366-1.105,2.481-2.479,2.481c-1.376,0-2.482-1.115-2.482-2.481V90.546
		c-0.017-0.339-0.125-0.872-0.624-0.872c-0.731,0-0.842,0.538-0.842,0.937v10.606c0,0.95-0.774,1.726-1.729,1.726
		c-0.955,0-1.725-0.776-1.725-1.726V90.995v-0.647v-1.48c0-3.101,2.371-5.643,5.398-5.916c0.099-0.013,0.207-0.027,0.326-0.027
		h4.875h4.861C133.378,82.923,133.482,82.937,133.589,82.95"/>
</g>
<g>
	<path fill="#FFFFFF" d="M97.438,79.117c0-2.33-1.884-4.223-4.215-4.223c-2.332,0-4.221,1.893-4.221,4.223
		c0,2.331,1.889,4.219,4.221,4.219C95.555,83.336,97.438,81.448,97.438,79.117"/>
	<path fill="#FFFFFF" d="M84.723,88.673l-3.507,11.416c0,0-0.625,2.093,1.15,2.615c1.767,0.523,2.303-1.52,2.303-1.52l2.828-9.528
		c0,0,0.153-0.733,0.704-0.574c0.552,0.158,0.345,0.942,0.345,0.942l-4.922,17.855h4.577v12.789c0,1.21,0.985,2.195,2.2,2.195
		c1.213,0,2.194-0.985,2.194-2.195v-12.789h0.628h0.621v12.789c0,1.21,0.979,2.195,2.196,2.195c1.218,0,2.201-0.985,2.201-2.195
		v-12.789h4.575l-4.918-17.855c0,0-0.207-0.784,0.343-0.942c0.552-0.159,0.705,0.574,0.705,0.574l2.827,9.528
		c0,0,0.538,2.043,2.302,1.52c1.779-0.522,1.151-2.615,1.151-2.615l-3.507-11.416c0,0-1.253-3.3-4.028-3.3h-4.469h-4.471
		C85.979,85.373,84.723,88.673,84.723,88.673"/>
</g>
<g>
	<path fill="#FFFFFF" d="M72.172,79.117c0-2.33-1.887-4.223-4.217-4.223c-2.332,0-4.219,1.893-4.219,4.223
		c0,2.331,1.887,4.219,4.219,4.219C70.285,83.336,72.172,81.448,72.172,79.117"/>
	<path fill="#FFFFFF" d="M59.454,88.673l-3.505,11.416c0,0-0.627,2.093,1.149,2.615c1.766,0.523,2.302-1.52,2.302-1.52l2.828-9.528
		c0,0,0.153-0.733,0.704-0.574c0.553,0.158,0.344,0.942,0.344,0.942l-4.92,17.855h4.576v12.789c0,1.21,0.988,2.195,2.2,2.195
		c1.215,0,2.196-0.985,2.196-2.195v-12.789h0.63h0.619v12.789c0,1.21,0.978,2.195,2.197,2.195c1.218,0,2.198-0.985,2.198-2.195
		v-12.789h4.577l-4.917-17.855c0,0-0.209-0.784,0.34-0.942c0.551-0.159,0.706,0.574,0.706,0.574l2.825,9.528
		c0,0,0.538,2.043,2.303,1.52c1.778-0.522,1.15-2.615,1.15-2.615l-3.507-11.416c0,0-1.25-3.3-4.026-3.3h-4.466h-4.474
		C60.712,85.373,59.454,88.673,59.454,88.673"/>
</g>
<g>
	<path fill="#FFFFFF" d="M111.606,102.727c1.942,0,3.51-1.572,3.51-3.515c0-1.941-1.567-3.508-3.51-3.508
		c-1.942,0-3.512,1.567-3.512,3.508C108.095,101.156,109.664,102.727,111.606,102.727"/>
	<path fill="#FFFFFF" d="M103.188,113.636c-0.172,0.411-0.312,1.281,0.512,1.661c0.967,0.444,1.505-0.49,1.505-0.49l1.909-6.087
		c0,0,0.331-0.408,0.331,0.014v14.331h0.009c0,0.997,0.803,1.802,1.802,1.802c0.996,0,1.801-0.804,1.801-1.802v-5.655
		c0,0-0.104-0.799,0.54-0.799c0.645,0,0.545,0.799,0.545,0.799v5.655c0,0.997,0.809,1.802,1.805,1.802
		c0.994,0,1.806-0.804,1.806-1.802v-14.331c0-0.421,0.223-0.121,0.223-0.121l1.496,4.169c0,0,0.649,1.863,0.85,1.945
		c0.675,0.284,1.455-0.039,1.74-0.72c0.187-0.444,0.115-0.921-0.143-1.281l0.013-0.013c-0.043-0.135-2.236-5.513-2.494-6.268
		c-0.792-2.312-2.233-2.292-3.621-2.33c-1.389-0.033-2.219,0-2.219,0s-0.887-0.036-2.72,0.018c-1.829,0.058-2.407,0.995-4.426,6.189
		c-0.288,0.748-1.263,3.168-1.275,3.313L103.188,113.636z"/>
</g>
<g>
	<g>
		<path fill="#FFFFFF" d="M34.496,76.777c0-2.463-1.999-4.457-4.459-4.457c-2.458,0-4.449,1.994-4.449,4.457
			c0,2.46,1.991,4.455,4.449,4.455C32.497,81.232,34.496,79.237,34.496,76.777"/>
		<path fill="#FFFFFF" d="M24.836,82.95c-3.021,0.273-5.394,2.816-5.394,5.916v1.48v0.647v10.222c0,0.95,0.774,1.726,1.729,1.726
			c0.955,0,1.728-0.776,1.728-1.726V90.61c0-0.398,0.115-0.937,0.843-0.937c0.502,0,0.606,0.533,0.628,0.872v31.791
			c0,1.366,1.104,2.481,2.479,2.481c1.372,0,2.481-1.115,2.481-2.481v-18.32c0.011-0.202,0.077-0.728,0.708-0.728h0.002
			c0.633,0,0.71,0.525,0.716,0.728v18.32c0,1.366,1.108,2.481,2.48,2.481c1.375,0,2.481-1.115,2.481-2.481V90.546
			c0.015-0.339,0.128-0.872,0.626-0.872c0.731,0,0.841,0.538,0.841,0.937v10.606c0,0.95,0.774,1.726,1.729,1.726
			c0.954,0,1.726-0.776,1.726-1.726V90.995v-0.647v-1.48c0-3.101-2.37-5.643-5.397-5.916c-0.101-0.013-0.207-0.027-0.327-0.027
			h-4.875h-4.861C25.048,82.923,24.941,82.937,24.836,82.95"/>
	</g>
	
		<line fill="none" stroke="#FFFFFF" stroke-width="1.3067" stroke-linecap="round" stroke-miterlimit="10" x1="20.951" y1="103.011" x2="16.995" y2="123.98"/>
</g>
<g>
	<path fill="#FFFFFF" d="M42.752,100.888c-0.23-0.36-0.627-0.6-1.084-0.6c-0.705,0-1.279,0.574-1.279,1.276
		c0,0.204,0.125,0.562,0.125,0.562l3.54,6.406c0,0,0.217,0.441,0.217,0.845v13.756h0.007c0,0.96,0.774,1.731,1.731,1.731
		c0.955,0,1.726-0.771,1.726-1.731v-5.429c0,0-0.098-0.768,0.522-0.768c0.618,0,0.521,0.768,0.521,0.768v5.429
		c0,0.96,0.776,1.731,1.732,1.731c0.955,0,1.733-0.771,1.733-1.731v-13.756c0-0.403,0.214-0.845,0.214-0.845l3.272-5.914
		c0,0,0.4-0.85,0.4-1.054c0-0.702-0.572-1.276-1.28-1.276c-0.463,0-0.858,0.24-1.083,0.6l-0.015-0.007
		c-0.103,0.088-1.741,3.007-2.282,3.547c-0.572,0.577-1.084,0.513-1.084,0.513h-2.13h-2.125c0,0-0.516,0.064-1.085-0.513
		c-0.548-0.541-2.18-3.459-2.284-3.547L42.752,100.888z"/>
	<path fill="#FFFFFF" d="M48.257,102.727c1.942,0,3.51-1.572,3.51-3.515c0-1.941-1.567-3.508-3.51-3.508
		c-1.941,0-3.51,1.567-3.51,3.508C44.747,101.156,46.315,102.727,48.257,102.727"/>
	<polygon fill="#FFFFFF" points="48.263,107.656 52.231,110.551 54.117,117.495 48.263,117.495 42.403,117.495 44.294,110.551 	"/>
</g>
<g>
	<path fill="#FFFFFF" d="M47.958,18.141v8.522h-1.921V13.1h2.24l2.461,7.782V13.1h1.9v13.563h-2L47.958,18.141z"/>
	<path fill="#FFFFFF" d="M53.937,23.162v-6.561c0-2.121,1.04-3.661,3.44-3.661c2.421,0,3.461,1.54,3.461,3.661v6.561
		c0,2.101-1.04,3.661-3.461,3.661C54.977,26.823,53.937,25.263,53.937,23.162z M58.558,23.522v-7.282c0-0.82-0.36-1.4-1.181-1.4
		c-0.8,0-1.16,0.58-1.16,1.4v7.282c0,0.82,0.36,1.4,1.16,1.4C58.197,24.923,58.558,24.343,58.558,23.522z"/>
	<path fill="#FFFFFF" d="M46.037,32.1h3.381c2.301,0,3.141,1.14,3.141,3.041v2.861c0,1.9-0.84,3.061-3.141,3.061h-1.101v4.601h-2.28
		V32.1z M48.317,33.96v5.341h0.841c0.78,0,1.12-0.38,1.12-1.12v-3.121c0-0.74-0.34-1.101-1.12-1.101H48.317z"/>
	<path fill="#FFFFFF" d="M53.737,42.162v-6.561c0-2.121,1.04-3.661,3.44-3.661c2.421,0,3.461,1.541,3.461,3.661v6.561
		c0,2.101-1.04,3.661-3.461,3.661C54.777,45.823,53.737,44.263,53.737,42.162z M58.358,42.522v-7.282c0-0.82-0.36-1.4-1.181-1.4
		c-0.8,0-1.16,0.58-1.16,1.4v7.282c0,0.82,0.36,1.4,1.16,1.4C57.998,43.923,58.358,43.343,58.358,42.522z"/>
	<path fill="#FFFFFF" d="M68.839,32.1l-2.581,13.563h-2.48L61.197,32.1h2.32l1.561,9.462h0.02l1.601-9.462H68.839z"/>
	<path fill="#FFFFFF" d="M69.777,32.1h5.441v1.86h-3.161v3.881h2.261v1.84h-2.261v4.121h3.161v1.86h-5.441V32.1z"/>
	<path fill="#FFFFFF" d="M78.718,39.442v6.221h-2.28V32.1h3.321c2.3,0,3.141,1.14,3.141,3.041v1.741c0,1.46-0.521,2.32-1.821,2.621
		l2.181,6.161h-2.4L78.718,39.442z M78.718,33.96v4.221h0.761c0.78,0,1.12-0.4,1.12-1.121v-2c0-0.74-0.34-1.101-1.12-1.101H78.718z"
		/>
	<path fill="#FFFFFF" d="M83.678,32.1h6.062v1.86h-1.881v11.703h-2.301V33.96h-1.88V32.1z"/>
	<path fill="#FFFFFF" d="M95.238,40.502v5.161h-2.281v-5.161l-2.54-8.402h2.381l1.38,5.141h0.02l1.381-5.141h2.181L95.238,40.502z"
		/>
</g>
</svg>
