<?xml version="1.0" encoding="utf-8"?>
<!-- Generator: Adobe Illustrator 17.0.0, SVG Export Plug-In . SVG Version: 6.00 Build 0)  -->
<!DOCTYPE svg PUBLIC "-//W3C//DTD SVG 1.1//EN" "http://www.w3.org/Graphics/SVG/1.1/DTD/svg11.dtd">
<svg version="1.1" id="Layer_1" xmlns="http://www.w3.org/2000/svg" xmlns:xlink="http://www.w3.org/1999/xlink" x="0px" y="0px"
	 width="160.922px" height="160.927px" viewBox="0 0 160.922 160.927" enable-background="new 0 0 160.922 160.927"
	 xml:space="preserve">
<rect x="0" y="0" fill="#DD1768" width="160.922" height="160.927"/>
<polygon fill="#FFFFFF" points="15.525,21.085 15.525,45.948 20.986,45.948 20.986,13.468 16.626,13.468 11.598,19.361 
	11.598,25.063 11.644,25.063 15.476,21.085 "/>
<path fill="#FFFFFF" d="M40.914,37.566V21.851c0-5.078-2.538-8.766-8.096-8.766c-5.508,0-8.05,3.687-8.05,8.766v15.715
	c0,5.028,2.542,8.766,8.05,8.766C38.376,46.331,40.914,42.594,40.914,37.566 M30.231,38.428V20.989c0-1.964,0.718-3.354,2.587-3.354
	c1.916,0,2.634,1.39,2.634,3.354v17.439c0,1.965-0.718,3.351-2.634,3.351C30.949,41.779,30.231,40.393,30.231,38.428"/>
<g>
	<path fill="#FFFFFF" d="M97.076,106.304H64.91c-0.193,0-0.35,0.157-0.35,0.35v7.289c0,0.196,0.156,0.352,0.35,0.352h32.166
		c0.197,0,0.354-0.155,0.354-0.352v-7.289C97.43,106.461,97.273,106.304,97.076,106.304"/>
	<path fill="#FFFFFF" d="M97.43,92.949c0-0.192-0.156-0.35-0.354-0.35H70.41h-5.5c-0.193,0-0.35,0.157-0.35,0.35v2.871v4.42
		c0,0.192,0.156,0.35,0.35,0.35h32.166c0.197,0,0.354-0.157,0.354-0.35V92.949z"/>
	<path fill="#FFFFFF" d="M116.041,95.802c-1.318-5.3-3.721-10.039-6.896-14.07l-0.072,0.055c1.033,1.537,1.959,3.165,2.748,4.883
		c4.174,7.652,5.451,16.887,2.818,25.916c-5.283,18.116-24.25,28.518-42.365,23.236c-7.613-2.221-13.859-6.866-18.156-12.846
		c-2.685-3.454-4.717-7.502-5.84-12.014c-4.299-17.285,6.225-34.786,23.512-39.087c10.691-2.66,21.447,0.373,29.129,7.151
		c0.068,0.061,0.135,0.123,0.205,0.184c0.207,0.156,0.453,0.267,0.732,0.267c0.311,0,0.586-0.125,0.805-0.312l0.129-0.127
		l4.094-4.043l0.27-0.266c0.152-0.208,0.262-0.451,0.262-0.729c0-0.321-0.131-0.606-0.33-0.829
		c-0.043-0.039-0.088-0.078-0.131-0.116c-9.447-8.443-22.754-12.234-35.977-8.945c-21.236,5.285-34.164,26.783-28.881,48.018
		c2.215,8.899,7.281,16.328,13.977,21.581c6.67,5.468,15.164,8.572,24.064,8.48c2.863-0.03,5.766-0.383,8.668-1.105
		C108.83,136.102,121.023,115.829,116.041,95.802"/>
</g>
<g>
	<path fill="#FFFFFF" d="M54.24,20.86v6.221h-2.28V13.518h3.321c2.3,0,3.141,1.14,3.141,3.04v1.741c0,1.46-0.521,2.32-1.821,2.621
		l2.181,6.161h-2.4L54.24,20.86z M54.24,15.378V19.6h0.761c0.78,0,1.12-0.4,1.12-1.121v-2c0-0.74-0.34-1.101-1.12-1.101H54.24z"/>
	<path fill="#FFFFFF" d="M59.66,13.518h5.441v1.86H61.94v3.881h2.261v1.84H61.94v4.121h3.161v1.86H59.66V13.518z"/>
	<path fill="#FFFFFF" d="M73.141,17.159v6.282c0,2.08-0.86,3.641-3.301,3.641h-3.521V13.518h3.521
		C72.28,13.518,73.141,15.059,73.141,17.159z M69.561,25.221c0.939,0,1.3-0.56,1.3-1.38v-7.102c0-0.8-0.36-1.36-1.3-1.36H68.6v9.842
		H69.561z"/>
	<path fill="#FFFFFF" d="M81.061,13.518V23.78c0,2.101-0.899,3.461-3.221,3.461c-2.4,0-3.4-1.36-3.4-3.461V13.518h2.28V24
		c0,0.8,0.32,1.34,1.12,1.34c0.801,0,1.121-0.54,1.121-1.34V13.518H81.061z"/>
	<path fill="#FFFFFF" d="M82.36,23.58v-6.561c0-2.121,1-3.661,3.4-3.661c2.521,0,3.221,1.4,3.221,3.401v1.601h-2.08v-1.781
		c0-0.84-0.28-1.32-1.101-1.32c-0.819,0-1.16,0.581-1.16,1.4v7.282c0,0.82,0.341,1.4,1.16,1.4c0.82,0,1.101-0.52,1.101-1.32v-2.5
		h2.08v2.34c0,1.94-0.8,3.381-3.221,3.381C83.36,27.241,82.36,25.681,82.36,23.58z"/>
	<path fill="#FFFFFF" d="M90.22,13.518h5.441v1.86H92.5v3.881h2.261v1.84H92.5v4.121h3.161v1.86H90.22V13.518z"/>
	<path fill="#FFFFFF" d="M103.7,17.159v6.282c0,2.08-0.86,3.641-3.301,3.641h-3.521V13.518h3.521
		C102.84,13.518,103.7,15.059,103.7,17.159z M100.12,25.221c0.939,0,1.3-0.56,1.3-1.38v-7.102c0-0.8-0.36-1.36-1.3-1.36h-0.961
		v9.842H100.12z"/>
	<path fill="#FFFFFF" d="M51.96,32.518h2.28v13.563h-2.28V32.518z"/>
	<path fill="#FFFFFF" d="M57.48,37.559v8.522H55.56V32.518h2.24l2.461,7.782v-7.782h1.9v13.563h-2L57.48,37.559z"/>
	<path fill="#FFFFFF" d="M63.459,32.518H68.9v1.86h-3.161v3.881H68v1.84h-2.261v4.121H68.9v1.86h-5.441V32.518z"/>
	<path fill="#FFFFFF" d="M72.52,47.001v-0.92c-1.82-0.32-2.601-1.66-2.601-3.501v-6.561c0-2.121,1.04-3.661,3.44-3.661
		c2.421,0,3.461,1.541,3.461,3.661v6.561c0,1.481-0.52,2.641-1.68,3.201l1.68,0.32v1.7L72.52,47.001z M74.541,43.061v-7.402
		c0-0.82-0.36-1.4-1.181-1.4c-0.8,0-1.16,0.581-1.16,1.4v7.402c0,0.8,0.36,1.4,1.16,1.4C74.181,44.461,74.541,43.86,74.541,43.061z"
		/>
	<path fill="#FFFFFF" d="M84.74,32.518V42.78c0,2.101-0.899,3.461-3.221,3.461c-2.4,0-3.4-1.36-3.4-3.461V32.518h2.28V43
		c0,0.8,0.32,1.34,1.12,1.34c0.801,0,1.121-0.54,1.121-1.34V32.518H84.74z"/>
	<path fill="#FFFFFF" d="M85.379,46.081l2.561-13.563h2.601l2.581,13.563H90.78l-0.42-2.48h-2.421l-0.399,2.48H85.379z M88.24,41.78
		h1.82l-0.9-5.441H89.14L88.24,41.78z"/>
	<path fill="#FFFFFF" d="M94.059,32.518h2.28v11.703h2.721v1.86h-5.001V32.518z"/>
	<path fill="#FFFFFF" d="M100.099,32.518h2.28v13.563h-2.28V32.518z"/>
	<path fill="#FFFFFF" d="M103.439,32.518h6.062v1.86h-1.881v11.703h-2.301V34.378h-1.88V32.518z"/>
	<path fill="#FFFFFF" d="M110.559,32.518h2.28v13.563h-2.28V32.518z"/>
	<path fill="#FFFFFF" d="M114.158,32.518h5.441v1.86h-3.161v3.881h2.261v1.84h-2.261v4.121h3.161v1.86h-5.441V32.518z"/>
	<path fill="#FFFFFF" d="M120.599,43.161V41.34h2.121v1.861c0,0.76,0.34,1.2,1.12,1.2c0.72,0,1.04-0.48,1.04-1.2V42.68
		c0-0.78-0.32-1.26-1.021-1.92l-1.34-1.34c-1.301-1.28-1.9-2.06-1.9-3.621v-0.46c0-1.681,0.979-2.981,3.2-2.981
		c2.28,0,3.181,1.121,3.181,3.081v1.1h-2.08v-1.18c0-0.78-0.36-1.16-1.08-1.16c-0.641,0-1.08,0.36-1.08,1.12v0.28
		c0,0.76,0.42,1.201,1.08,1.84l1.46,1.44c1.24,1.26,1.841,2.02,1.841,3.521v0.66c0,1.86-1.001,3.181-3.321,3.181
		C121.499,46.241,120.599,44.941,120.599,43.161z"/>
</g>
</svg>
