<?xml version="1.0" encoding="utf-8"?>
<!-- Generator: Adobe Illustrator 17.0.0, SVG Export Plug-In . SVG Version: 6.00 Build 0)  -->
<!DOCTYPE svg PUBLIC "-//W3C//DTD SVG 1.1//EN" "http://www.w3.org/Graphics/SVG/1.1/DTD/svg11.dtd">
<svg version="1.1" id="Layer_1" xmlns="http://www.w3.org/2000/svg" xmlns:xlink="http://www.w3.org/1999/xlink" x="0px" y="0px"
	 width="160.92px" height="160.928px" viewBox="0 0 160.92 160.928" enable-background="new 0 0 160.92 160.928"
	 xml:space="preserve">
<rect x="0" y="0" fill="#18496B" width="160.92" height="160.928"/>
<polygon fill="#FFFFFF" points="24.079,13.487 24.079,45.933 18.624,45.933 18.624,21.096 18.575,21.096 14.747,25.067 14.7,25.067 
	14.7,19.373 19.726,13.487 "/>
<polygon fill="#FFFFFF" points="26.567,13.487 40.255,13.487 40.255,18.512 33.124,45.933 27.714,45.933 34.989,17.936 
	26.567,17.936 "/>
<path fill="#FFFFFF" d="M121.359,97.599c0-11.301-8.99-20.535-20.189-20.943c-2.881-8.135-10.65-13.981-19.762-13.981
	c-9.109,0-16.878,5.845-19.762,13.981c-11.199,0.409-20.186,9.642-20.186,20.943c0,6.706,3.17,12.683,8.088,16.522
	c-0.534,1.849-0.828,3.799-0.828,5.818c0,11.553,9.402,20.956,20.961,20.956c4.386,0,8.459-1.357,11.829-3.67
	c3.33,2.229,7.329,3.53,11.628,3.53c11.557,0,20.959-9.402,20.959-20.956c0-1.978-0.28-3.89-0.794-5.703
	C118.201,110.256,121.359,104.29,121.359,97.599 M98.148,83.635c0,8.39-6.209,15.336-14.271,16.536
	c-0.131-0.84-0.218-1.696-0.218-2.572c0-8.391,6.209-15.338,14.27-16.537C98.061,81.901,98.148,82.757,98.148,83.635 M81.486,131.79
	c-3.134-3.043-5.088-7.291-5.088-11.99c0-4.628,1.891-8.822,4.934-11.855c3.132,3.043,5.088,7.291,5.088,11.994
	C86.42,124.564,84.531,128.757,81.486,131.79 M64.889,81.061c8.061,1.199,14.271,8.147,14.271,16.538
	c0,0.876-0.089,1.732-0.22,2.572c-8.062-1.2-14.271-8.146-14.271-16.536C64.67,82.757,64.758,81.901,64.889,81.061 M77.369,105.086
	c-2.754,5.477-8.412,9.252-14.949,9.252c-2.772,0-5.385-0.69-7.689-1.888c2.754-5.477,8.414-9.251,14.951-9.251
	C72.455,103.199,75.064,103.887,77.369,105.086 M85.395,104.973c2.319-1.216,4.948-1.914,7.744-1.914
	c6.581,0,12.271,3.828,15.006,9.364c-2.32,1.217-4.953,1.914-7.744,1.914C93.817,114.338,88.127,110.51,85.395,104.973
	 M81.408,66.896c6.859,0,12.76,4.148,15.345,10.065c-6.81,1.201-12.494,5.695-15.345,11.778
	c-2.847-6.084-8.533-10.578-15.343-11.778C68.65,71.044,74.551,66.896,81.408,66.896 M45.681,97.599
	c0-8.626,6.556-15.743,14.944-16.642c-0.111,0.878-0.176,1.771-0.176,2.678c0,6.127,2.645,11.648,6.848,15.483
	c-6.952,0.791-12.883,4.993-16.07,10.891C47.832,106.944,45.681,102.522,45.681,97.599 M52.941,119.939
	c0-1.19,0.127-2.35,0.366-3.469c2.758,1.337,5.849,2.087,9.112,2.087c3.67,0,7.117-0.95,10.12-2.613
	c-0.233,1.25-0.362,2.538-0.362,3.855c0,5.661,2.264,10.802,5.925,14.578c-2.478,1.451-5.351,2.298-8.421,2.298
	C60.449,136.675,52.941,129.166,52.941,119.939 M109.879,119.8c0,9.227-7.51,16.737-16.74,16.737c-3.004,0-5.814-0.806-8.254-2.196
	c3.561-3.758,5.756-8.829,5.756-14.401c0-1.372-0.139-2.712-0.391-4.011c3.01,1.673,6.469,2.629,10.15,2.629
	c3.274,0,6.377-0.756,9.139-2.103C109.762,117.537,109.879,118.655,109.879,119.8 M95.65,98.995c4.128-3.83,6.719-9.297,6.719-15.36
	c0-0.907-0.064-1.8-0.176-2.678c8.389,0.898,14.946,8.017,14.946,16.642c0,4.9-2.13,9.301-5.5,12.366
	C108.485,104.055,102.584,99.828,95.65,98.995"/>
<g>
	<path fill="#FFFFFF" d="M50.83,13.357h3.381c2.301,0,3.141,1.14,3.141,3.04v2.861c0,1.9-0.84,3.061-3.141,3.061h-1.1v4.601h-2.28
		V13.357z M53.11,15.217v5.341h0.841c0.78,0,1.12-0.38,1.12-1.12v-3.121c0-0.74-0.34-1.101-1.12-1.101H53.11z"/>
	<path fill="#FFFFFF" d="M57.37,26.92l2.561-13.563h2.601l2.581,13.563h-2.341l-0.42-2.48h-2.421l-0.399,2.48H57.37z M60.231,22.619
		h1.82l-0.9-5.441h-0.021L60.231,22.619z"/>
	<path fill="#FFFFFF" d="M68.33,20.699v6.221h-2.28V13.357h3.321c2.3,0,3.141,1.14,3.141,3.04v1.741c0,1.46-0.521,2.32-1.821,2.621
		l2.181,6.161h-2.4L68.33,20.699z M68.33,15.217v4.221h0.761c0.78,0,1.12-0.4,1.12-1.121v-2c0-0.74-0.34-1.101-1.12-1.101H68.33z"/>
	<path fill="#FFFFFF" d="M73.291,13.357h6.062v1.86h-1.881V26.92h-2.301V15.217h-1.88V13.357z"/>
	<path fill="#FFFFFF" d="M82.331,18.398v8.522H80.41V13.357h2.24l2.461,7.782v-7.782h1.9V26.92h-2L82.331,18.398z"/>
	<path fill="#FFFFFF" d="M88.31,13.357h5.441v1.86H90.59v3.881h2.261v1.84H90.59v4.121h3.161v1.86H88.31V13.357z"/>
	<path fill="#FFFFFF" d="M97.25,20.699v6.221h-2.28V13.357h3.321c2.3,0,3.141,1.14,3.141,3.04v1.741c0,1.46-0.521,2.32-1.821,2.621
		l2.181,6.161h-2.4L97.25,20.699z M97.25,15.217v4.221h0.761c0.78,0,1.12-0.4,1.12-1.121v-2c0-0.74-0.34-1.101-1.12-1.101H97.25z"/>
	<path fill="#FFFFFF" d="M102.45,24v-1.821h2.121v1.861c0,0.76,0.34,1.2,1.12,1.2c0.72,0,1.04-0.481,1.04-1.2v-0.521
		c0-0.78-0.32-1.26-1.021-1.92l-1.34-1.34c-1.301-1.28-1.9-2.06-1.9-3.621v-0.46c0-1.681,0.979-2.981,3.2-2.981
		c2.28,0,3.181,1.121,3.181,3.081v1.1h-2.08v-1.18c0-0.78-0.36-1.16-1.08-1.16c-0.641,0-1.08,0.36-1.08,1.12v0.28
		c0,0.76,0.42,1.201,1.08,1.84l1.46,1.44c1.24,1.26,1.841,2.021,1.841,3.521v0.66c0,1.86-1.001,3.181-3.321,3.181
		C103.351,27.08,102.45,25.78,102.45,24z"/>
	<path fill="#FFFFFF" d="M114.673,20.938h-2.201v5.981h-2.28V13.357h2.28v5.741h2.201v-5.741h2.3V26.92h-2.3V20.938z"/>
	<path fill="#FFFFFF" d="M118.271,13.357h2.28V26.92h-2.28V13.357z"/>
	<path fill="#FFFFFF" d="M121.871,13.357h3.381c2.301,0,3.141,1.14,3.141,3.04v2.861c0,1.9-0.84,3.061-3.141,3.061h-1.101v4.601
		h-2.28V13.357z M124.151,15.217v5.341h0.841c0.78,0,1.12-0.38,1.12-1.12v-3.121c0-0.74-0.34-1.101-1.12-1.101H124.151z"/>
	<path fill="#FFFFFF" d="M129.451,24v-1.821h2.121v1.861c0,0.76,0.34,1.2,1.12,1.2c0.72,0,1.04-0.481,1.04-1.2v-0.521
		c0-0.78-0.32-1.26-1.02-1.92l-1.34-1.34c-1.301-1.28-1.9-2.06-1.9-3.621v-0.46c0-1.681,0.98-2.981,3.2-2.981
		c2.28,0,3.181,1.121,3.181,3.081v1.1h-2.08v-1.18c0-0.78-0.36-1.16-1.08-1.16c-0.641,0-1.08,0.36-1.08,1.12v0.28
		c0,0.76,0.42,1.201,1.08,1.84l1.46,1.44c1.24,1.26,1.841,2.021,1.841,3.521v0.66c0,1.86-1.001,3.181-3.321,3.181
		C130.352,27.08,129.451,25.78,129.451,24z"/>
	<path fill="#FFFFFF" d="M50.83,32.357h5.341v1.86h-3.06v3.881h2.281v1.84H53.11v5.981h-2.28V32.357z"/>
	<path fill="#FFFFFF" d="M56.97,42.419v-6.561c0-2.121,1.04-3.661,3.44-3.661c2.421,0,3.461,1.541,3.461,3.661v6.561
		c0,2.101-1.04,3.661-3.461,3.661C58.01,46.08,56.97,44.52,56.97,42.419z M61.591,42.779v-7.282c0-0.82-0.36-1.4-1.181-1.4
		c-0.8,0-1.16,0.581-1.16,1.4v7.282c0,0.82,0.36,1.4,1.16,1.4C61.23,44.18,61.591,43.6,61.591,42.779z"/>
	<path fill="#FFFFFF" d="M67.449,39.699v6.221h-2.28V32.357h3.321c2.3,0,3.141,1.14,3.141,3.041v1.741
		c0,1.46-0.521,2.32-1.821,2.621l2.181,6.161h-2.4L67.449,39.699z M67.449,34.217v4.221h0.761c0.78,0,1.12-0.4,1.12-1.121v-2
		c0-0.74-0.34-1.101-1.12-1.101H67.449z"/>
	<path fill="#FFFFFF" d="M74.71,32.357h6.062v1.86h-1.881V45.92H76.59V34.217h-1.88V32.357z"/>
	<path fill="#FFFFFF" d="M86.311,39.938h-2.201v5.981h-2.28V32.357h2.28v5.741h2.201v-5.741h2.3V45.92h-2.3V39.938z"/>
	<path fill="#FFFFFF" d="M89.909,32.357h5.441v1.86h-3.161v3.881h2.261v1.84h-2.261v4.121h3.161v1.86h-5.441V32.357z"/>
	<path fill="#FFFFFF" d="M102.11,38.678h3.241v7.242h-1.641v-1.48c-0.3,1.021-0.94,1.641-2.181,1.641c-1.96,0-2.86-1.56-2.86-3.661
		v-6.561c0-2.121,1.021-3.661,3.421-3.661c2.521,0,3.261,1.4,3.261,3.401v1.2h-2.08v-1.38c0-0.84-0.32-1.32-1.141-1.32
		c-0.82,0-1.181,0.581-1.181,1.4v7.282c0,0.82,0.341,1.4,1.12,1.4c0.74,0,1.121-0.42,1.121-1.3v-2.4h-1.081V38.678z"/>
	<path fill="#FFFFFF" d="M106.649,42.419v-6.561c0-2.121,1.04-3.661,3.44-3.661c2.421,0,3.461,1.541,3.461,3.661v6.561
		c0,2.101-1.04,3.661-3.461,3.661C107.689,46.08,106.649,44.52,106.649,42.419z M111.27,42.779v-7.282c0-0.82-0.36-1.4-1.181-1.4
		c-0.8,0-1.16,0.581-1.16,1.4v7.282c0,0.82,0.36,1.4,1.16,1.4C110.91,44.18,111.27,43.6,111.27,42.779z"/>
	<path fill="#FFFFFF" d="M114.188,45.92l2.56-13.563h2.601l2.581,13.563h-2.341l-0.42-2.48h-2.421l-0.399,2.48H114.188z
		 M117.05,41.619h1.82l-0.9-5.441h-0.021L117.05,41.619z"/>
	<path fill="#FFFFFF" d="M122.868,32.357h2.28V44.06h2.721v1.86h-5.001V32.357z"/>
	<path fill="#FFFFFF" d="M128.688,43v-1.821h2.121v1.861c0,0.76,0.34,1.2,1.12,1.2c0.72,0,1.04-0.48,1.04-1.2v-0.521
		c0-0.78-0.32-1.26-1.02-1.92l-1.34-1.34c-1.301-1.28-1.9-2.06-1.9-3.621v-0.46c0-1.681,0.979-2.981,3.2-2.981
		c2.28,0,3.181,1.121,3.181,3.081v1.1h-2.08v-1.18c0-0.78-0.36-1.16-1.08-1.16c-0.641,0-1.08,0.36-1.08,1.12v0.28
		c0,0.76,0.42,1.201,1.08,1.84l1.46,1.44c1.24,1.26,1.841,2.021,1.841,3.521v0.66c0,1.86-1.001,3.181-3.321,3.181
		S128.688,44.78,128.688,43z"/>
</g>
</svg>
