<?xml version="1.0" encoding="utf-8"?>
<!-- Generator: Adobe Illustrator 17.0.0, SVG Export Plug-In . SVG Version: 6.00 Build 0)  -->
<!DOCTYPE svg PUBLIC "-//W3C//DTD SVG 1.1//EN" "http://www.w3.org/Graphics/SVG/1.1/DTD/svg11.dtd">
<svg version="1.1" id="Layer_1" xmlns="http://www.w3.org/2000/svg" xmlns:xlink="http://www.w3.org/1999/xlink" x="0px" y="0px"
	 width="160.917px" height="160.928px" viewBox="0 0 160.917 160.928" enable-background="new 0 0 160.917 160.928"
	 xml:space="preserve">
<rect x="0" y="0" fill="#417F45" width="160.917" height="160.928"/>
<polygon fill="#FFFFFF" points="20.312,13.499 20.312,45.932 14.857,45.932 14.857,21.105 14.81,21.105 10.984,25.075 
	10.935,25.075 10.935,19.383 15.957,13.499 "/>
<path fill="#FFFFFF" d="M38.297,20.532v2.821c0,2.726-1.482,4.543-3.731,5.263c2.726,0.621,4.018,2.534,4.018,5.5V38.9
	c0,4.496-2.391,7.414-7.893,7.414c-5.55,0-7.513-3.157-7.513-8.084v-4.258h4.978v4.642c0,1.913,0.668,3.155,2.535,3.155
	c1.672,0,2.437-1.194,2.437-2.918v-5.356c0-1.724-0.765-2.631-2.677-2.631h-2.295v-4.162h2.058c1.769,0,2.914-0.91,2.914-2.631
	v-3.492c0-1.771-0.619-2.918-2.341-2.918c-1.721,0-2.344,1.147-2.344,3.157v3.3h-4.978v-2.869c0-4.784,1.963-8.133,7.607-8.133
	C36.097,13.116,38.297,15.939,38.297,20.532"/>
<path fill="#FFFFFF" d="M140.727,100.747c-4.239-5.947-23.417-29.689-59.065-29.689c-35.654,0-54.826,23.743-59.072,29.689
	c-0.181,0.254-0.336,0.474-0.463,0.661c0.127,0.192,0.282,0.411,0.463,0.668c4.246,5.944,23.418,29.687,59.072,29.687
	c35.648,0,54.826-23.744,59.065-29.687c0.186-0.257,0.338-0.476,0.46-0.668C141.064,101.221,140.912,101.001,140.727,100.747
	 M61.774,86.071c0.321-0.472,1.389-1.818,1.519-1.988c0.274-0.354,0.819-0.426,1.202-0.494c0.378-0.073,0.883,0.14,0.943,0.424
	c0.065,0.285-0.146,1.389-0.333,1.579c-0.523,0.543-1.884,1.309-2.634,1.188C61.892,86.691,61.664,86.242,61.774,86.071
	 M60.501,88.603c0.057-0.067,0.107-0.122,0.129-0.15c0.448-0.511,1.341-0.62,1.958-0.716c0.618-0.106,1.442,0.206,1.542,0.616
	c0.105,0.409-1.55,1.159-1.853,1.439c-0.858,0.79-2.2,2.399-2.985,2.573c-0.257,0.058-0.468,0.019-0.642-0.067
	C59.167,91.011,59.784,89.772,60.501,88.603 M73.843,115.975c-0.482,1.898-1.046,2.583-1.526,3.182
	c-0.479,0.606-2.258,1.378-3.386,1.295c-1.13-0.084-1.287-3.099-1.287-4.649c0-0.536-0.758,1.052-1.153-2.174
	c-0.253-2.066-1.579,0.215-1.672-1.163c-0.095-1.375-0.757-1.101-1.454-1.96c-0.692-0.858-1.557,0.084-2.525,0.518
	c-0.963,0.428-0.566,0.654-1.937,0.223c-0.035-0.011-0.053-0.021-0.087-0.034c-1.257-2.971-1.951-6.238-1.951-9.666
	c0-0.839,0.045-1.663,0.123-2.479c0.047-0.083,0.096-0.163,0.153-0.231c1.313-1.554,1.284-1.918,1.284-1.918l1.453-0.504
	c0,0,2.32,0.357,4.068,1.016c1.439,0.54,3.707,1.761,5.025,1.224c0.953-0.393,1.699-0.914,1.609-1.708
	c-0.107-0.996-0.892-1.232-1.841-0.561c-0.351,0.247-1.097-1.501-1.682-1.412c-0.585,0.087,0.724,2.054,0.228,2.137
	c-0.498,0.085-1.498-2.05-1.669-2.396c-0.168-0.343-0.94-1.2-1.634-0.546c-1.465,1.392-3.844,1.307-4.321,1.665
	c-1.454,1.088-1.838-0.358-1.806-1.239c0.059-0.201,0.118-0.404,0.183-0.604c0.475-0.523,2.179-0.697,2.764-0.307
	c0.643,0.429,1.104-0.11,1.354-0.371c0.255-0.254,0.165-0.667,0.005-1.009c-0.163-0.345,0.321-0.598,0.653-0.687
	c0.335-0.089,1.441-0.863,1.883-1.122c0.446-0.256,2.742-0.535,3.771-0.021c1.028,0.518,1.973,0.095,2.479-0.5
	c0.635-0.753,1.442-1.327,1.801-1.501c0.36-0.169-0.886-1.332-1.91-0.063c-1.027,1.262-1.55,1.378-2.032,1.378
	c-0.482,0-3.35-0.715-3.703-1.622c-0.35-0.904,0.897-1.582,1.955-2.096c1.058-0.504,3.953-0.498,4.693-0.665
	c1.505-0.33,3.429-1.086,4.397-0.426c0.965,0.648-4.047,1.79-2.399,2.679c0.586,0.322,3.235-1.524,4.144-1.997
	c2.136-1.101-2.071-1.465-1.525-3.705c0.617-2.531-5.16-1.552-8.04-1.337c3.862-2.475,8.449-3.914,13.374-3.914
	c11.717,0,21.531,8.117,24.148,19.031c0.018,0.54-0.066,0.929-0.121,1.149c-0.225,0.895-1.923,1.665-2.908,0.224
	c-0.251-0.363-1.316-1.369-1.28,0.351c0.034,1.722,1.673,1.898,0.085,2.931c-1.586,1.033-1.877,0.784-2.61,1.044
	c-0.731,0.259-1.441,2.033-1.267,2.98c0.178,0.948,2.441,3.537,0.762,3.43c-0.394-0.029-3.361-2.056-3.852-3.359
	c-0.517-1.372-1.081-2.715-1.481-3.75c-0.405-1.031-1.452-1.294-2.34-0.688c-0.883,0.605,0.247,1.209-0.389,2.502
	c-0.633,1.291-1.088,2.445-2.021,1.378c-2.424-2.778-5.946-1.408-6.499-4.499c-0.298-1.676-1.741-1.515-2.947-2.464
	c-1.213-0.943-1.888-1.457-2.092-0.773c-0.18,0.6,3.796,3.751,4.079,4.559c0.422,1.199-1.19,2.258-2.371,2.542
	c-1.175,0.282-1.693-0.662-2.851-1.868c-1.156-1.203-1.663-2.064-1.743-1.118c-0.116,1.366,1.099,3.373,2.277,4.123
	c1.005,0.637,2.131,0.925,1.806,1.957c-0.327,1.036-0.006,0.45-1.132,1.563c-1.128,1.12-1.343,1.479-1.261,3.025
	c0.081,1.551-0.322,1.64-0.564,2.929C74.89,115.199,74.33,114.083,73.843,115.975 M100.484,106.071
	c0.835-0.067,2.089,1.089,1.599,1.534c-0.488,0.44-1.74,0.279-2.368-0.212C99.09,106.906,100.109,106.102,100.484,106.071
	 M99.429,105.308c-0.268-0.1-0.504-0.354-0.707-0.963c-0.202-0.61,0.311-0.958,0.812-0.712c0.51,0.259,1.171,1.019,1.171,1.425
	C100.704,105.464,99.702,105.416,99.429,105.308 M88.468,105.265c-0.49,0.437-1.746,0.277-2.374-0.213
	c-0.624-0.485,0.396-1.292,0.77-1.321C87.699,103.656,88.954,104.823,88.468,105.265 M78.325,110.196
	c-0.342,0.559-1.275,4.736-1.902,4.249c-0.63-0.487,0.254-4.844,0.436-5.175C77.839,107.471,79.961,107.56,78.325,110.196
	 M81.702,126.384c-2.427,0-4.767-0.353-6.98-1c-0.318-0.26-0.5-0.693-0.301-1.214c0.769-2.004,3.057-2.788,4.863-2.962
	c4.027-0.393,9.32,2.614,10.162,2.129c0.845-0.484,2.547-2.698,5.045-2.605c1.705,0.065,1.692,0.352,2.265,0.567
	C92.579,124.485,87.364,126.384,81.702,126.384 M99.218,119.154c-0.249-0.07-0.504-0.15-0.78-0.288
	c-1.355-0.69-1.193,0.413-1.859,0.169c-0.671-0.249,0.752-1.795-1.251-0.487c-1.993,1.305-1.455-0.202-2.325-2.412
	c-0.879-2.212,1.001-4.736,2.57-5.307c2.157-0.781,3.497-0.94,4.509-1.19c2.983-0.745,3.614-2.516,4.155-1.438
	c0.103,0.202,0.201,0.394,0.291,0.574c0.174,0.322,0.374,0.974,0.384,1.618C103.645,113.713,101.69,116.694,99.218,119.154
	 M106.02,106.616c-0.666-0.182-3.455-4.037-1.25-6.574c0.366-0.417-0.74-1.644-0.438-1.668c1.206-0.093,1.848,0.655,2.164,1.734
	c0.024,0.475,0.043,0.955,0.043,1.439C106.54,103.284,106.358,104.979,106.02,106.616"/>
<g>
	<path fill="#FFFFFF" d="M49.642,23.419v-6.561c0-2.121,1-3.661,3.4-3.661c2.521,0,3.221,1.4,3.221,3.401v1.601h-2.08v-1.781
		c0-0.84-0.28-1.32-1.101-1.32c-0.819,0-1.16,0.581-1.16,1.4v7.282c0,0.82,0.341,1.4,1.16,1.4c0.82,0,1.101-0.52,1.101-1.32v-2.5
		h2.08v2.34c0,1.94-0.8,3.381-3.221,3.381C50.642,27.081,49.642,25.52,49.642,23.419z"/>
	<path fill="#FFFFFF" d="M57.501,13.357h2.28V25.06h2.721v1.86h-5.001V13.357z"/>
	<path fill="#FFFFFF" d="M63.54,13.357h2.28V26.92h-2.28V13.357z"/>
	<path fill="#FFFFFF" d="M73.422,18.119h-0.06l-1.541,8.802h-1.06l-1.7-8.802h-0.04v8.802h-1.881V13.357h2.661l1.479,7.642h0.021
		l1.32-7.642h2.881V26.92h-2.081V18.119z"/>
	<path fill="#FFFFFF" d="M76.439,26.92L79,13.357h2.601l2.581,13.563h-2.341l-0.42-2.481H79l-0.399,2.481H76.439z M79.301,22.62
		h1.82l-0.9-5.441H80.2L79.301,22.62z"/>
	<path fill="#FFFFFF" d="M83.859,13.357h6.062v1.86H88.04V26.92h-2.301V15.218h-1.88V13.357z"/>
	<path fill="#FFFFFF" d="M90.978,13.357h5.441v1.86h-3.161v3.881h2.261v1.84h-2.261v4.121h3.161v1.86h-5.441V13.357z"/>
	<path fill="#FFFFFF" d="M49.281,45.92l2.561-13.563h2.601l2.581,13.563h-2.341l-0.42-2.48h-2.421l-0.399,2.48H49.281z
		 M52.143,41.62h1.82l-0.9-5.441h-0.021L52.143,41.62z"/>
	<path fill="#FFFFFF" d="M57.661,42.419v-6.561c0-2.121,1-3.661,3.4-3.661c2.521,0,3.221,1.4,3.221,3.401v1.601h-2.08v-1.781
		c0-0.84-0.28-1.32-1.101-1.32c-0.819,0-1.16,0.581-1.16,1.4v7.282c0,0.82,0.341,1.4,1.16,1.4c0.82,0,1.101-0.52,1.101-1.32v-2.5
		h2.08v2.34c0,1.94-0.8,3.381-3.221,3.381C58.661,46.081,57.661,44.52,57.661,42.419z"/>
	<path fill="#FFFFFF" d="M65.061,32.357h6.062v1.86h-1.881V45.92H66.94V34.218h-1.88V32.357z"/>
	<path fill="#FFFFFF" d="M72.181,32.357h2.28V45.92h-2.28V32.357z"/>
	<path fill="#FFFFFF" d="M75.78,42.419v-6.561c0-2.121,1.04-3.661,3.44-3.661c2.421,0,3.461,1.541,3.461,3.661v6.561
		c0,2.101-1.04,3.661-3.461,3.661C76.82,46.081,75.78,44.52,75.78,42.419z M80.401,42.78v-7.282c0-0.82-0.36-1.4-1.181-1.4
		c-0.8,0-1.16,0.581-1.16,1.4v7.282c0,0.82,0.36,1.4,1.16,1.4C80.041,44.18,80.401,43.6,80.401,42.78z"/>
	<path fill="#FFFFFF" d="M85.9,37.398v8.522h-1.921V32.357h2.24l2.461,7.782v-7.782h1.9V45.92h-2L85.9,37.398z"/>
</g>
</svg>
