<?xml version="1.0" encoding="utf-8"?>
<!-- Generator: Adobe Illustrator 17.0.0, SVG Export Plug-In . SVG Version: 6.00 Build 0)  -->
<!DOCTYPE svg PUBLIC "-//W3C//DTD SVG 1.1//EN" "http://www.w3.org/Graphics/SVG/1.1/DTD/svg11.dtd">
<svg version="1.1" id="Layer_1" xmlns="http://www.w3.org/2000/svg" xmlns:xlink="http://www.w3.org/1999/xlink" x="0px" y="0px"
	 width="160.922px" height="160.928px" viewBox="0 0 160.922 160.928" enable-background="new 0 0 160.922 160.928"
	 xml:space="preserve">
<rect x="0" y="0" fill="#DEA73A" width="160.922" height="160.928"/>
<path fill="#FFFFFF" d="M30.096,41.482h-8.949v-1.531c0-2.535,0.91-3.493,2.297-4.977l3.492-3.684
	c2.823-3.015,3.446-4.929,3.446-8.185v-3.158c0-4.641-2.25-6.844-7.131-6.844c-4.784,0-7.226,2.537-7.226,7.084v3.922h4.978v-4.067
	c0-1.96,0.957-2.536,2.106-2.536c1.051,0,1.961,0.432,1.961,2.441v2.68c0,2.682-0.24,3.734-2.01,5.6l-3.065,3.254
	c-2.965,3.16-4.066,5.266-4.066,8.471v5.982h14.166V41.482z"/>
<g>
	<path fill="#FFFFFF" d="M64.188,136.742v2.263c-0.002,0.016-0.008,0.034-0.008,0.051c0,0.02,0.006,0.037,0.008,0.054
		c0.023,0.56,0.48,1.006,1.044,1.017c0.007,0,0.013,0.004,0.021,0.004c0.008,0,0.018-0.004,0.026-0.004h26.545
		c0.007,0,0.015,0.004,0.022,0.004s0.016-0.004,0.023-0.004c0.58-0.011,1.043-0.482,1.047-1.062c0-0.002,0.004-0.004,0.004-0.008
		c0,0-0.004-0.004-0.004-0.008v-2.561c14.943-4.898,26.138-17.01,28.6-31.77c0.006-0.031,0.01-0.061,0.015-0.088
		c0.009-0.052,0.015-0.099,0.015-0.148c0-0.594-0.479-1.073-1.073-1.073H36.375h-0.506c-0.597,0-1.076,0.479-1.076,1.073
		l0.056,0.482C37.435,119.864,48.936,132.043,64.188,136.742"/>
	<path fill="#FFFFFF" d="M92.892,67.3c-0.349,0.496-8.522,12.264,0.183,21.779c3.992,4.367,3.646,8.221,2.506,10.823h5.584
		c1.131-3.843,0.664-8.662-3.869-13.615c-6.414-7.012,0.082-16.489,0.18-16.636c0.766-1.081,0.355-2.475-0.906-3.125
		C95.302,65.88,93.66,66.226,92.892,67.3"/>
	<path fill="#FFFFFF" d="M78.75,99.902h5.586c1.129-3.844,0.66-8.661-3.873-13.615c-6.416-7.013,0.075-16.485,0.178-16.641
		c0.762-1.076,0.358-2.468-0.908-3.12c-1.262-0.645-2.906-0.302-3.672,0.773c-0.351,0.494-8.531,12.264,0.182,21.779
		C80.234,93.447,79.887,97.302,78.75,99.902"/>
	<path fill="#FFFFFF" d="M59.227,67.3c-0.354,0.496-8.527,12.264,0.18,21.779c3.994,4.369,3.648,8.223,2.512,10.823h5.584
		c1.129-3.841,0.662-8.66-3.875-13.615c-6.416-7.012,0.08-16.489,0.183-16.64c0.759-1.077,0.354-2.471-0.912-3.121
		C61.636,65.876,59.992,66.224,59.227,67.3"/>
</g>
<g>
	<path fill="#FFFFFF" d="M48.175,24.803h3.461v1.86h-5.842v-1.86l3.581-9.842h-3.221V13.1h5.621v1.86L48.175,24.803z"/>
	<path fill="#FFFFFF" d="M52.974,13.1h5.442v1.86h-3.161v3.881h2.261v1.84h-2.261v4.121h3.161v1.86h-5.442V13.1z"/>
	<path fill="#FFFFFF" d="M61.914,20.442v6.221h-2.28V13.1h3.321c2.3,0,3.141,1.14,3.141,3.041v1.741c0,1.46-0.521,2.32-1.821,2.621
		l2.181,6.161h-2.4L61.914,20.442z M61.914,14.96v4.221h0.761c0.78,0,1.12-0.4,1.12-1.121v-2c0-0.74-0.34-1.101-1.12-1.101H61.914z"
		/>
	<path fill="#FFFFFF" d="M67.335,23.162v-6.561c0-2.121,1.04-3.661,3.44-3.661c2.421,0,3.461,1.54,3.461,3.661v6.561
		c0,2.101-1.04,3.661-3.461,3.661C68.375,26.823,67.335,25.263,67.335,23.162z M71.956,23.522v-7.282c0-0.82-0.36-1.4-1.181-1.4
		c-0.8,0-1.16,0.58-1.16,1.4v7.282c0,0.82,0.36,1.4,1.16,1.4C71.596,24.923,71.956,24.343,71.956,23.522z"/>
	<path fill="#FFFFFF" d="M50.436,39.682h-2.201v5.981h-2.28V32.1h2.28v5.741h2.201V32.1h2.3v13.563h-2.3V39.682z"/>
	<path fill="#FFFFFF" d="M60.655,32.1v10.262c0,2.101-0.899,3.461-3.221,3.461c-2.4,0-3.4-1.36-3.4-3.461V32.1h2.28v10.483
		c0,0.8,0.32,1.34,1.12,1.34c0.801,0,1.121-0.54,1.121-1.34V32.1H60.655z"/>
	<path fill="#FFFFFF" d="M63.875,37.141v8.522h-1.921V32.1h2.24l2.461,7.782V32.1h1.9v13.563h-2L63.875,37.141z"/>
	<path fill="#FFFFFF" d="M73.295,38.421h3.241v7.242h-1.641v-1.48c-0.3,1.021-0.94,1.641-2.181,1.641c-1.96,0-2.86-1.561-2.86-3.661
		v-6.561c0-2.121,1.021-3.661,3.421-3.661c2.521,0,3.261,1.4,3.261,3.401v1.2h-2.08v-1.38c0-0.84-0.32-1.32-1.141-1.32
		c-0.82,0-1.181,0.58-1.181,1.4v7.282c0,0.82,0.341,1.4,1.12,1.4c0.74,0,1.121-0.42,1.121-1.3v-2.4h-1.081V38.421z"/>
	<path fill="#FFFFFF" d="M77.834,32.1h5.441v1.86h-3.161v3.881h2.261v1.84h-2.261v4.121h3.161v1.86h-5.441V32.1z"/>
	<path fill="#FFFFFF" d="M86.773,39.442v6.221h-2.28V32.1h3.321c2.3,0,3.141,1.14,3.141,3.041v1.741c0,1.46-0.521,2.32-1.821,2.621
		l2.181,6.161h-2.4L86.773,39.442z M86.773,33.96v4.221h0.761c0.78,0,1.12-0.4,1.12-1.121v-2c0-0.74-0.34-1.101-1.12-1.101H86.773z"
		/>
</g>
</svg>
