<?xml version="1.0" encoding="utf-8"?>
<!-- Generator: Adobe Illustrator 17.0.0, SVG Export Plug-In . SVG Version: 6.00 Build 0)  -->
<!DOCTYPE svg PUBLIC "-//W3C//DTD SVG 1.1//EN" "http://www.w3.org/Graphics/SVG/1.1/DTD/svg11.dtd">
<svg version="1.1" id="Layer_1" xmlns="http://www.w3.org/2000/svg" xmlns:xlink="http://www.w3.org/1999/xlink" x="0px" y="0px"
	 width="160.922px" height="160.927px" viewBox="0 0 160.922 160.927" enable-background="new 0 0 160.922 160.927"
	 xml:space="preserve">
<rect x="0" y="0" fill="#FAC315" width="160.922" height="160.927"/>
<polygon fill="#FFFFFF" points="16.506,17.938 24.93,17.938 17.653,45.933 23.063,45.933 30.194,18.512 30.194,13.486 
	16.506,13.486 "/>
<g>
	<path fill="#FFFFFF" d="M80.519,77.968c-13.024,0-23.583,10.56-23.583,23.585c0,13.031,10.559,23.588,23.583,23.588
		s23.583-10.557,23.583-23.588C104.102,88.528,93.544,77.968,80.519,77.968 M78.773,87.286c0-0.785,0.788-1.649,1.756-1.649
		c0.966,0,1.747,0.864,1.747,1.649v8.098c0,0.781-0.781,1.637-1.747,1.637c-0.968,0-1.756-0.855-1.756-1.637V87.286z
		 M80.523,113.639c-6.774,0-12.267-5.491-12.267-12.267c0-5.507,3.625-10.164,8.621-11.717v4.567
		c-2.601,1.328-4.385,4.027-4.385,7.15c0,4.435,3.594,8.03,8.03,8.03s8.03-3.595,8.03-8.03c0-3.131-1.793-5.835-4.405-7.16V89.65
		c5.006,1.546,8.644,6.208,8.644,11.723C92.792,108.148,87.3,113.639,80.523,113.639"/>
	<path fill="#FFFFFF" d="M53.446,101.347c0-1.069-0.947-1.936-1.812-1.936H41.306c-0.871,0-1.827,0.866-1.827,1.936
		c0,1.072,0.956,1.943,1.827,1.943h10.328C52.499,103.29,53.446,102.419,53.446,101.347"/>
	<path fill="#FFFFFF" d="M121.571,101.347c0-1.069-0.947-1.936-1.812-1.936h-10.328c-0.87,0-1.826,0.866-1.826,1.936
		c0,1.072,0.956,1.943,1.826,1.943h10.328C120.624,103.29,121.571,102.419,121.571,101.347"/>
	<path fill="#FFFFFF" d="M80.529,74.272c1.067,0,1.935-0.947,1.935-1.812V62.131c0-0.871-0.867-1.826-1.935-1.826
		c-1.071,0-1.944,0.955-1.944,1.826V72.46C78.585,73.325,79.458,74.272,80.529,74.272"/>
	<path fill="#FFFFFF" d="M80.529,142.396c1.067,0,1.935-0.947,1.935-1.812v-10.327c0-0.87-0.867-1.827-1.935-1.827
		c-1.071,0-1.944,0.957-1.944,1.827v10.327C78.585,141.449,79.458,142.396,80.529,142.396"/>
	<path fill="#FFFFFF" d="M57.024,87.897c0.532-0.929,0.141-2.15-0.611-2.58l-8.964-5.13c-0.756-0.434-2.016-0.156-2.547,0.771
		c-0.532,0.931-0.135,2.161,0.621,2.595l8.964,5.13C55.237,89.113,56.492,88.828,57.024,87.897"/>
	<path fill="#FFFFFF" d="M116.151,121.736c0.53-0.927,0.139-2.15-0.611-2.58l-8.964-5.13c-0.756-0.433-2.017-0.155-2.547,0.773
		c-0.532,0.929-0.136,2.161,0.62,2.593l8.964,5.13C114.364,122.952,115.618,122.666,116.151,121.736"/>
	<path fill="#FFFFFF" d="M93.979,77.851c0.928,0.53,2.148,0.139,2.579-0.611l5.13-8.964c0.433-0.757,0.156-2.017-0.771-2.548
		c-0.93-0.533-2.162-0.135-2.595,0.621l-5.13,8.963C92.763,76.064,93.048,77.319,93.979,77.851"/>
	<path fill="#FFFFFF" d="M60.141,136.977c0.927,0.53,2.149,0.139,2.579-0.612l5.13-8.963c0.433-0.756,0.155-2.018-0.772-2.548
		c-0.929-0.532-2.162-0.135-2.594,0.62l-5.13,8.964C58.924,135.188,59.21,136.445,60.141,136.977"/>
	<path fill="#FFFFFF" d="M67.029,77.874c0.927-0.533,1.206-1.786,0.774-2.536l-5.148-8.954c-0.436-0.755-1.661-1.15-2.589-0.617
		c-0.931,0.533-1.208,1.797-0.772,2.552l5.148,8.952C64.874,78.021,66.099,78.409,67.029,77.874"/>
	<path fill="#FFFFFF" d="M100.989,136.931c0.927-0.533,1.206-1.786,0.775-2.535l-5.148-8.954c-0.436-0.755-1.662-1.151-2.59-0.618
		c-0.93,0.533-1.208,1.797-0.771,2.553l5.147,8.953C98.833,137.079,100.059,137.465,100.989,136.931"/>
	<path fill="#FFFFFF" d="M104.002,87.855c0.532,0.926,1.785,1.205,2.535,0.774l8.952-5.148c0.756-0.435,1.154-1.662,0.621-2.589
		c-0.535-0.929-1.797-1.208-2.553-0.773l-8.953,5.148C103.854,85.698,103.467,86.926,104.002,87.855"/>
	<path fill="#FFFFFF" d="M44.945,121.816c0.532,0.926,1.785,1.205,2.535,0.774l8.952-5.149c0.756-0.434,1.154-1.661,0.619-2.588
		c-0.532-0.93-1.797-1.208-2.551-0.774l-8.953,5.149C44.798,119.658,44.411,120.886,44.945,121.816"/>
</g>
<g>
	<path fill="#FFFFFF" d="M45.47,27.081l2.561-13.563h2.601l2.581,13.563h-2.341l-0.42-2.48H48.03l-0.399,2.48H45.47z M48.331,22.78
		h1.82l-0.9-5.441H49.23L48.331,22.78z"/>
	<path fill="#FFFFFF" d="M54.149,13.518h5.341v1.86H56.43v3.881h2.281v1.84H56.43v5.981h-2.28V13.518z"/>
	<path fill="#FFFFFF" d="M60.489,13.518h5.341v1.86h-3.06v3.881h2.281v1.84h-2.281v5.981h-2.28V13.518z"/>
	<path fill="#FFFFFF" d="M66.63,23.58v-6.561c0-2.121,1.04-3.661,3.44-3.661c2.421,0,3.461,1.541,3.461,3.661v6.561
		c0,2.101-1.04,3.661-3.461,3.661C67.67,27.241,66.63,25.681,66.63,23.58z M71.251,23.94v-7.282c0-0.82-0.36-1.4-1.181-1.4
		c-0.8,0-1.16,0.581-1.16,1.4v7.282c0,0.82,0.36,1.4,1.16,1.4C70.891,25.341,71.251,24.761,71.251,23.94z"/>
	<path fill="#FFFFFF" d="M77.109,20.86v6.221h-2.28V13.518h3.321c2.3,0,3.141,1.14,3.141,3.04v1.741c0,1.46-0.521,2.32-1.821,2.621
		l2.181,6.161h-2.4L77.109,20.86z M77.109,15.378V19.6h0.761c0.78,0,1.12-0.4,1.12-1.121v-2c0-0.74-0.34-1.101-1.12-1.101H77.109z"
		/>
	<path fill="#FFFFFF" d="M89.35,17.159v6.282c0,2.08-0.86,3.641-3.301,3.641h-3.521V13.518h3.521
		C88.489,13.518,89.35,15.059,89.35,17.159z M85.769,25.221c0.94,0,1.3-0.56,1.3-1.38v-7.102c0-0.8-0.36-1.36-1.3-1.36h-0.961v9.842
		H85.769z"/>
	<path fill="#FFFFFF" d="M89.988,27.081l2.561-13.563h2.601l2.581,13.563H95.39l-0.42-2.48h-2.421l-0.399,2.48H89.988z M92.85,22.78
		h1.82l-0.9-5.441h-0.021L92.85,22.78z"/>
	<path fill="#FFFFFF" d="M98.668,13.518h3.301c2.28,0,3.041,1.06,3.041,2.981v1.38c0,1.141-0.421,1.86-1.36,2.161
		c1.14,0.26,1.7,1.02,1.7,2.26v1.801c0,1.92-0.86,2.98-3.141,2.98h-3.541V13.518z M100.948,19.239h0.801c0.74,0,1.08-0.38,1.08-1.1
		v-1.66c0-0.74-0.34-1.101-1.101-1.101h-0.78V19.239z M100.948,20.98v4.241h1.001c0.76,0,1.12-0.38,1.12-1.1V22.08
		c0-0.72-0.341-1.1-1.141-1.1H100.948z"/>
	<path fill="#FFFFFF" d="M106.488,13.518h2.28v11.703h2.721v1.86h-5.001V13.518z"/>
	<path fill="#FFFFFF" d="M112.528,13.518h5.441v1.86h-3.161v3.881h2.261v1.84h-2.261v4.121h3.161v1.86h-5.441V13.518z"/>
	<path fill="#FFFFFF" d="M120.927,27.081l2.561-13.563h2.601l2.581,13.563h-2.341l-0.42-2.48h-2.421l-0.399,2.48H120.927z
		 M123.788,22.78h1.82l-0.9-5.441h-0.02L123.788,22.78z"/>
	<path fill="#FFFFFF" d="M131.527,18.559v8.522h-1.921V13.518h2.24l2.461,7.782v-7.782h1.9v13.563h-2L131.527,18.559z"/>
	<path fill="#FFFFFF" d="M144.328,17.159v6.282c0,2.08-0.86,3.641-3.301,3.641h-3.521V13.518h3.521
		C143.468,13.518,144.328,15.059,144.328,17.159z M140.748,25.221c0.939,0,1.3-0.56,1.3-1.38v-7.102c0-0.8-0.36-1.36-1.3-1.36
		h-0.961v9.842H140.748z"/>
	<path fill="#FFFFFF" d="M45.83,42.58v-6.561c0-2.121,1-3.661,3.4-3.661c2.521,0,3.221,1.4,3.221,3.401v1.601h-2.08v-1.781
		c0-0.84-0.28-1.32-1.101-1.32c-0.819,0-1.16,0.581-1.16,1.4v7.282c0,0.82,0.341,1.4,1.16,1.4c0.82,0,1.101-0.52,1.101-1.32v-2.5
		h2.08v2.34c0,1.94-0.8,3.381-3.221,3.381C46.83,46.241,45.83,44.681,45.83,42.58z"/>
	<path fill="#FFFFFF" d="M53.689,32.518h2.28v11.703h2.721v1.86h-5.001V32.518z"/>
	<path fill="#FFFFFF" d="M59.728,32.518h5.441v1.86h-3.161v3.881h2.261v1.84h-2.261v4.121h3.161v1.86h-5.441V32.518z"/>
	<path fill="#FFFFFF" d="M66.028,46.081l2.561-13.563h2.601l2.581,13.563H71.43l-0.42-2.48h-2.421l-0.399,2.48H66.028z M68.89,41.78
		h1.82l-0.9-5.441h-0.021L68.89,41.78z"/>
	<path fill="#FFFFFF" d="M76.629,37.559v8.522h-1.921V32.518h2.24l2.461,7.782v-7.782h1.9v13.563h-2L76.629,37.559z"/>
	<path fill="#FFFFFF" d="M84.707,32.518h5.441v1.86h-3.161v3.881h2.261v1.84h-2.261v4.121h3.161v1.86h-5.441V32.518z"/>
	<path fill="#FFFFFF" d="M93.288,37.559v8.522h-1.921V32.518h2.24l2.461,7.782v-7.782h1.9v13.563h-2L93.288,37.559z"/>
	<path fill="#FFFFFF" d="M99.267,32.518h5.442v1.86h-3.161v3.881h2.261v1.84h-2.261v4.121h3.161v1.86h-5.442V32.518z"/>
	<path fill="#FFFFFF" d="M108.207,39.86v6.221h-2.28V32.518h3.321c2.3,0,3.141,1.14,3.141,3.04v1.741c0,1.46-0.521,2.32-1.821,2.621
		l2.181,6.161h-2.4L108.207,39.86z M108.207,34.378V38.6h0.761c0.78,0,1.12-0.4,1.12-1.121v-2c0-0.74-0.34-1.101-1.12-1.101H108.207
		z"/>
	<path fill="#FFFFFF" d="M117.067,38.839h3.241v7.242h-1.641v-1.48c-0.3,1.021-0.94,1.641-2.181,1.641
		c-1.96,0-2.86-1.561-2.86-3.661v-6.561c0-2.121,1.021-3.661,3.421-3.661c2.521,0,3.261,1.4,3.261,3.401v1.2h-2.08v-1.38
		c0-0.84-0.32-1.32-1.141-1.32c-0.82,0-1.181,0.581-1.181,1.4v7.282c0,0.82,0.341,1.4,1.12,1.4c0.74,0,1.121-0.42,1.121-1.3v-2.4
		h-1.081V38.839z"/>
	<path fill="#FFFFFF" d="M125.548,40.92v5.161h-2.281V40.92l-2.54-8.402h2.381l1.38,5.141h0.02l1.381-5.141h2.181L125.548,40.92z"/>
</g>
</svg>
