<?xml version="1.0" encoding="utf-8"?>
<!-- Generator: Adobe Illustrator 17.0.0, SVG Export Plug-In . SVG Version: 6.00 Build 0)  -->
<!DOCTYPE svg PUBLIC "-//W3C//DTD SVG 1.1//EN" "http://www.w3.org/Graphics/SVG/1.1/DTD/svg11.dtd">
<svg version="1.1" id="Layer_1" xmlns="http://www.w3.org/2000/svg" xmlns:xlink="http://www.w3.org/1999/xlink" x="0px" y="0px"
	 width="160.922px" height="160.93px" viewBox="0 0 160.922 160.93" enable-background="new 0 0 160.922 160.93"
	 xml:space="preserve">
<rect x="0" y="0" fill="#07699E" width="160.922" height="160.93"/>
<polygon fill="#FFFFFF" points="12.381,19.386 12.381,25.08 12.43,25.08 16.258,21.108 16.307,21.108 16.307,45.945 21.762,45.945 
	21.762,13.498 17.408,13.498 "/>
<path fill="#FFFFFF" d="M40.857,38.146V33.36c0-5.312-2.106-7.993-6.029-7.993c-2.299,0-3.686,1.053-4.498,2.633h-0.047v-6.987
	c0-1.963,0.619-3.351,2.584-3.351c1.961,0,2.535,1.148,2.535,3.157v2.157h4.976v-1.725c0-4.786-1.578-8.135-7.609-8.135
	c-5.742,0-7.896,3.685-7.896,8.758v15.792c0,5.024,2.203,8.662,7.945,8.662C38.607,46.329,40.857,43.171,40.857,38.146
	 M35.449,38.624c0,2.058-0.766,3.254-2.631,3.254c-1.818,0-2.535-1.243-2.535-3.254V32.69c0.094-1.818,0.859-2.968,2.584-2.968
	c1.863,0,2.582,1.149,2.582,3.255V38.624z"/>
<g>
	<path fill="#FFFFFF" d="M108.536,71.102c0,0-1.522,2.022-1.079,3.991c0.446,1.97,2.691,3.142,2.691,3.142s1.523-2.022,1.079-3.991
		C110.783,72.273,108.536,71.102,108.536,71.102"/>
	<path fill="#FFFFFF" d="M106.056,82.646c0,0,1.523-2.023,1.079-3.993c-0.446-1.971-2.69-3.14-2.69-3.14s-1.524,2.02-1.081,3.99
		C103.81,81.473,106.056,82.646,106.056,82.646"/>
	<path fill="#FFFFFF" d="M112.312,80.481c0,0,1.608,1.621,3.438,1.458c1.83-0.162,3.187-2.046,3.187-2.046s-1.605-1.621-3.437-1.459
		C113.669,78.597,112.312,80.481,112.312,80.481"/>
	<path fill="#FFFFFF" d="M114.945,71.822c-1.489,1.511-1.279,4.185-1.279,4.185s2.625,0.228,4.118-1.282
		c1.489-1.51,1.279-4.184,1.279-4.184S116.436,70.313,114.945,71.822"/>
	<path fill="#FFFFFF" d="M111.659,86.491c1.824,0.216,3.539-1.35,3.539-1.35s-1.242-1.915-3.065-2.131
		c-1.826-0.214-3.541,1.352-3.541,1.352S109.835,86.275,111.659,86.491"/>
	<path fill="#FFFFFF" d="M113.289,115.814H99.655c-1.067,0-1.932,0.861-1.932,1.927c0,1.065,0.865,1.93,1.932,1.93h13.634
		c1.065,0,1.928-0.865,1.928-1.93C115.217,116.675,114.354,115.814,113.289,115.814"/>
	<path fill="#FFFFFF" d="M113.289,137.074H99.655c-1.067,0-1.932,0.862-1.932,1.928c0,1.064,0.865,1.929,1.932,1.929h13.634
		c1.065,0,1.928-0.865,1.928-1.929C115.217,137.936,114.354,137.074,113.289,137.074"/>
	<path fill="#FFFFFF" d="M51.972,111.132c-0.321-0.099-0.638-0.186-0.947-0.244C51.026,110.888,51.375,110.996,51.972,111.132"/>
	<path fill="#FFFFFF" d="M112.786,121.018h-12.634c-0.606,0-1.098,0.493-1.098,1.098v3.826l-8.247,0.906l-12.049-0.276v-7.36
		c1.6-0.205,3.203-0.524,4.794-0.972c11.598-3.273,14.128-10.497,13.875-17.131c-0.253-6.757,1.91-9.381,5.017-10.548
		c0.89-0.334,1.77-0.545,2.575-0.682c0.035,1.66,0.371,3.589,1.113,5.888c0.276-0.015,0.55-0.039,0.822-0.068
		c-0.784-2.352-1.118-4.286-1.136-5.936c1.605-0.19,2.751-0.083,2.751-0.083s-1.085-0.583-2.618-1.864
		c0.521-3.2,2.427-5.164,4.391-7.173c1.079-1.106,2.195-2.248,3.074-3.609l-0.685-0.441c-0.831,1.293-1.923,2.404-2.973,3.481
		c-1.916,1.96-3.849,3.962-4.503,7.138c-0.623-0.562-1.296-1.226-1.985-1.999c-2.86-3.207-6.542-0.851-11.792,4.037
		c-5.253,4.886-11.858,5.053-18.31-1.547c-8.511-8.714-15.936-8.664-21.027-8.169c3.483,1.483,4.701,4.738,6.464,13.01
		c1.847,8.68,6.507,12.607,12.881,13.149c-2.955,0.479-3.721,0.888-8.47,4.169c-3.71,2.559-8.928,1.75-11.044,1.27
		c3.884,1.211,8.484,5.285,12.6,6.702c2.396,0.825,4.923,1.335,7.511,1.54v7.045l-22.855-0.493v4.915l41.579-0.922l8.247,0.908
		v3.823c0,0.605,0.492,1.1,1.098,1.1h12.634c0.607,0,1.1-0.495,1.1-1.1v-12.534C113.886,121.511,113.393,121.018,112.786,121.018z
		 M74.069,119.477c0.898,0.015,1.8-0.012,2.703-0.073v7.123l-2.703-0.062V119.477z"/>
	<path fill="#FFFFFF" d="M48.049,130.029c0,1.036-0.723,1.877-1.614,1.877h-0.971c-0.889,0-1.615-0.841-1.615-1.877v-3.397
		c0-1.038,0.725-1.877,1.615-1.877h0.971c0.891,0,1.614,0.839,1.614,1.877V130.029z"/>
</g>
<g>
	<path fill="#FFFFFF" d="M50.853,13.357h3.381c2.301,0,3.141,1.14,3.141,3.04v2.861c0,1.9-0.84,3.061-3.141,3.061h-1.101v4.601
		h-2.28V13.357z M53.134,15.218v5.341h0.841c0.78,0,1.12-0.38,1.12-1.12v-3.121c0-0.74-0.34-1.101-1.12-1.101H53.134z"/>
	<path fill="#FFFFFF" d="M58.554,13.357h5.441v1.86h-3.161v3.881h2.261v1.84h-2.261v4.121h3.161v1.86h-5.441V13.357z"/>
	<path fill="#FFFFFF" d="M64.853,26.92l2.561-13.563h2.601l2.581,13.563h-2.341l-0.42-2.481h-2.421l-0.399,2.481H64.853z
		 M67.714,22.62h1.82l-0.9-5.441h-0.021L67.714,22.62z"/>
	<path fill="#FFFFFF" d="M73.233,23.419v-6.561c0-2.121,1-3.661,3.4-3.661c2.521,0,3.221,1.4,3.221,3.401v1.601h-2.08v-1.781
		c0-0.84-0.28-1.32-1.101-1.32c-0.819,0-1.16,0.581-1.16,1.4v7.282c0,0.82,0.341,1.4,1.16,1.4c0.82,0,1.101-0.52,1.101-1.32v-2.5
		h2.08v2.34c0,1.94-0.8,3.381-3.221,3.381C74.233,27.081,73.233,25.52,73.233,23.419z"/>
	<path fill="#FFFFFF" d="M81.093,13.357h5.441v1.86h-3.161v3.881h2.261v1.84h-2.261v4.121h3.161v1.86h-5.441V13.357z"/>
	<path fill="#FFFFFF" d="M90.094,24.92l-1.16,3.061h-1.28l0.279-3.241h2.161V24.92z"/>
	<path fill="#FFFFFF" d="M99.554,13.357V23.84c0,1.961-0.86,3.241-3.141,3.241c-2.36,0-3.001-1.3-3.001-3.021v-2.7h2.16v2.74
		c0,0.68,0.24,1.08,0.841,1.08c0.62,0,0.86-0.4,0.86-1.101V13.357H99.554z"/>
	<path fill="#FFFFFF" d="M107.454,13.357V23.62c0,2.101-0.899,3.461-3.221,3.461c-2.4,0-3.4-1.36-3.4-3.461V13.357h2.28V23.84
		c0,0.8,0.32,1.34,1.12,1.34c0.801,0,1.121-0.54,1.121-1.34V13.357H107.454z"/>
	<path fill="#FFFFFF" d="M108.633,24v-1.821h2.121v1.861c0,0.76,0.34,1.2,1.12,1.2c0.72,0,1.04-0.48,1.04-1.2v-0.52
		c0-0.78-0.32-1.26-1.021-1.92l-1.34-1.34c-1.301-1.28-1.9-2.06-1.9-3.621v-0.46c0-1.681,0.979-2.981,3.2-2.981
		c2.28,0,3.181,1.121,3.181,3.081v1.1h-2.08v-1.18c0-0.78-0.36-1.16-1.08-1.16c-0.641,0-1.08,0.36-1.08,1.12v0.28
		c0,0.76,0.42,1.201,1.08,1.84l1.46,1.44c1.24,1.26,1.841,2.021,1.841,3.521v0.66c0,1.86-1.001,3.181-3.321,3.181
		C109.533,27.081,108.633,25.78,108.633,24z"/>
	<path fill="#FFFFFF" d="M115.813,13.357h6.062v1.86h-1.881V26.92h-2.301V15.218h-1.88V13.357z"/>
	<path fill="#FFFFFF" d="M122.933,13.357h2.28V26.92h-2.28V13.357z"/>
	<path fill="#FFFFFF" d="M126.532,23.419v-6.561c0-2.121,1-3.661,3.4-3.661c2.52,0,3.221,1.4,3.221,3.401v1.601h-2.08v-1.781
		c0-0.84-0.28-1.32-1.101-1.32c-0.819,0-1.16,0.581-1.16,1.4v7.282c0,0.82,0.341,1.4,1.16,1.4c0.82,0,1.101-0.52,1.101-1.32v-2.5
		h2.08v2.34c0,1.94-0.8,3.381-3.221,3.381C127.532,27.081,126.532,25.52,126.532,23.419z"/>
	<path fill="#FFFFFF" d="M134.393,13.357h5.441v1.86h-3.161v3.881h2.261v1.84h-2.261v4.121h3.161v1.86h-5.441V13.357z"/>
	<path fill="#FFFFFF" d="M50.493,45.92l2.561-13.563h2.601l2.581,13.563h-2.341l-0.42-2.48h-2.421l-0.399,2.48H50.493z
		 M53.354,41.62h1.82l-0.9-5.441h-0.021L53.354,41.62z"/>
	<path fill="#FFFFFF" d="M61.094,37.398v8.522h-1.921V32.357h2.24l2.461,7.782v-7.782h1.9V45.92h-2L61.094,37.398z"/>
	<path fill="#FFFFFF" d="M73.894,35.998v6.282c0,2.08-0.86,3.641-3.301,3.641h-3.521V32.357h3.521
		C73.033,32.357,73.894,33.898,73.894,35.998z M70.313,44.06c0.939,0,1.3-0.56,1.3-1.38v-7.102c0-0.8-0.36-1.36-1.3-1.36h-0.961
		v9.842H70.313z"/>
	<path fill="#FFFFFF" d="M77.173,43v-1.821h2.121v1.861c0,0.76,0.34,1.2,1.12,1.2c0.72,0,1.04-0.48,1.04-1.2V42.52
		c0-0.78-0.32-1.26-1.021-1.92l-1.34-1.34c-1.301-1.28-1.9-2.06-1.9-3.621v-0.46c0-1.681,0.979-2.981,3.2-2.981
		c2.28,0,3.181,1.121,3.181,3.081v1.1h-2.08v-1.18c0-0.78-0.36-1.16-1.08-1.16c-0.641,0-1.08,0.36-1.08,1.12v0.28
		c0,0.76,0.42,1.201,1.08,1.84l1.46,1.44c1.24,1.26,1.841,2.021,1.841,3.521v0.66c0,1.86-1.001,3.181-3.321,3.181
		C78.073,46.081,77.173,44.78,77.173,43z"/>
	<path fill="#FFFFFF" d="M84.353,32.357h6.062v1.86h-1.881V45.92h-2.301V34.218h-1.88V32.357z"/>
	<path fill="#FFFFFF" d="M93.753,39.699v6.221h-2.28V32.357h3.321c2.3,0,3.141,1.14,3.141,3.041v1.741
		c0,1.46-0.521,2.32-1.821,2.621l2.181,6.161h-2.4L93.753,39.699z M93.753,34.218v4.221h0.761c0.78,0,1.12-0.4,1.12-1.121v-2
		c0-0.74-0.34-1.101-1.12-1.101H93.753z"/>
	<path fill="#FFFFFF" d="M99.173,42.419v-6.561c0-2.121,1.04-3.661,3.44-3.661c2.421,0,3.461,1.541,3.461,3.661v6.561
		c0,2.101-1.04,3.661-3.461,3.661C100.213,46.081,99.173,44.52,99.173,42.419z M103.794,42.78v-7.282c0-0.82-0.36-1.4-1.181-1.4
		c-0.8,0-1.16,0.581-1.16,1.4v7.282c0,0.82,0.36,1.4,1.16,1.4C103.434,44.18,103.794,43.6,103.794,42.78z"/>
	<path fill="#FFFFFF" d="M109.294,37.398v8.522h-1.921V32.357h2.24l2.461,7.782v-7.782h1.9V45.92h-2L109.294,37.398z"/>
	<path fill="#FFFFFF" d="M118.713,38.679h3.241v7.242h-1.641v-1.48c-0.3,1.021-0.94,1.641-2.181,1.641c-1.96,0-2.86-1.56-2.86-3.661
		v-6.561c0-2.121,1.021-3.661,3.421-3.661c2.521,0,3.261,1.4,3.261,3.401v1.2h-2.08v-1.38c0-0.84-0.32-1.32-1.141-1.32
		c-0.82,0-1.181,0.581-1.181,1.4v7.282c0,0.82,0.341,1.4,1.12,1.4c0.74,0,1.121-0.42,1.121-1.3v-2.4h-1.081V38.679z"/>
	<path fill="#FFFFFF" d="M50.853,51.357h2.28V64.92h-2.28V51.357z"/>
	<path fill="#FFFFFF" d="M56.374,56.398v8.522h-1.921V51.357h2.24l2.461,7.782v-7.782h1.9V64.92h-2L56.374,56.398z"/>
	<path fill="#FFFFFF" d="M62.232,62v-1.821h2.121v1.861c0,0.76,0.34,1.2,1.12,1.2c0.72,0,1.04-0.48,1.04-1.2v-0.52
		c0-0.78-0.32-1.26-1.021-1.92l-1.34-1.34c-1.301-1.28-1.9-2.06-1.9-3.621v-0.46c0-1.681,0.979-2.981,3.2-2.981
		c2.28,0,3.181,1.121,3.181,3.081v1.1h-2.08v-1.18c0-0.78-0.36-1.16-1.08-1.16c-0.641,0-1.08,0.36-1.08,1.12v0.28
		c0,0.76,0.42,1.201,1.08,1.84l1.46,1.44c1.24,1.26,1.841,2.021,1.841,3.521v0.66c0,1.86-1.001,3.181-3.321,3.181
		C63.133,65.081,62.232,63.78,62.232,62z"/>
	<path fill="#FFFFFF" d="M69.414,51.357h6.062v1.86h-1.881V64.92h-2.301V53.218h-1.88V51.357z"/>
	<path fill="#FFFFFF" d="M76.533,51.357h2.28V64.92h-2.28V51.357z"/>
	<path fill="#FFFFFF" d="M79.873,51.357h6.062v1.86h-1.881V64.92h-2.301V53.218h-1.88V51.357z"/>
	<path fill="#FFFFFF" d="M93.613,51.357V61.62c0,2.101-0.899,3.461-3.221,3.461c-2.4,0-3.4-1.36-3.4-3.461V51.357h2.28V61.84
		c0,0.8,0.32,1.34,1.12,1.34c0.801,0,1.121-0.54,1.121-1.34V51.357H93.613z"/>
	<path fill="#FFFFFF" d="M94.652,51.357h6.062v1.86h-1.881V64.92h-2.301V53.218h-1.88V51.357z"/>
	<path fill="#FFFFFF" d="M101.772,51.357h2.28V64.92h-2.28V51.357z"/>
	<path fill="#FFFFFF" d="M105.372,61.419v-6.561c0-2.121,1.04-3.661,3.44-3.661c2.421,0,3.461,1.541,3.461,3.661v6.561
		c0,2.101-1.04,3.661-3.461,3.661C106.412,65.081,105.372,63.52,105.372,61.419z M109.993,61.78v-7.282c0-0.82-0.36-1.4-1.181-1.4
		c-0.8,0-1.16,0.581-1.16,1.4v7.282c0,0.82,0.36,1.4,1.16,1.4C109.633,63.18,109.993,62.6,109.993,61.78z"/>
	<path fill="#FFFFFF" d="M115.492,56.398v8.522h-1.921V51.357h2.24l2.461,7.782v-7.782h1.9V64.92h-2L115.492,56.398z"/>
	<path fill="#FFFFFF" d="M121.351,62v-1.821h2.121v1.861c0,0.76,0.34,1.2,1.12,1.2c0.72,0,1.04-0.48,1.04-1.2v-0.52
		c0-0.78-0.32-1.26-1.021-1.92l-1.34-1.34c-1.301-1.28-1.9-2.06-1.9-3.621v-0.46c0-1.681,0.979-2.981,3.2-2.981
		c2.28,0,3.181,1.121,3.181,3.081v1.1h-2.08v-1.18c0-0.78-0.36-1.16-1.08-1.16c-0.641,0-1.08,0.36-1.08,1.12v0.28
		c0,0.76,0.42,1.201,1.08,1.84l1.46,1.44c1.24,1.26,1.841,2.021,1.841,3.521v0.66c0,1.86-1.001,3.181-3.321,3.181
		S121.351,63.78,121.351,62z"/>
</g>
</svg>
