<?xml version="1.0" encoding="utf-8"?>
<!-- Generator: Adobe Illustrator 17.0.0, SVG Export Plug-In . SVG Version: 6.00 Build 0)  -->
<!DOCTYPE svg PUBLIC "-//W3C//DTD SVG 1.1//EN" "http://www.w3.org/Graphics/SVG/1.1/DTD/svg11.dtd">
<svg version="1.1" id="Layer_1" xmlns="http://www.w3.org/2000/svg" xmlns:xlink="http://www.w3.org/1999/xlink" x="0px" y="0px"
	 width="160.92px" height="160.928px" viewBox="0 0 160.92 160.928" enable-background="new 0 0 160.92 160.928"
	 xml:space="preserve">
<rect x="0" y="0" fill="#EF412C" width="160.92" height="160.928"/>
<path fill="#FFFFFF" d="M25.658,23.759c-2.152,0-3.732,0.765-4.594,2.249h-0.049V17.92h9.381v-4.45H16.041v18.282h4.975v-0.721
	c0-1.914,0.863-2.967,2.393-2.967c1.676,0,2.348,1.15,2.348,2.922v7.848c0,1.724-0.623,2.919-2.299,2.919
	c-1.867,0-2.535-1.244-2.535-3.157v-4.068h-4.98v3.685c0,4.929,1.963,8.088,7.516,8.088c5.504,0,7.752-2.919,7.752-7.418v-7.944
	C31.209,25.817,28.578,23.759,25.658,23.759"/>
<g>
	<path fill="#FFFFFF" d="M117.211,60.892h-20c-0.137,0-0.254,0.113-0.254,0.255v6.646c0,0.143,0.117,0.256,0.254,0.256h7.964
		l-8.843,8.845c-4.454-3.499-10.059-5.594-16.15-5.594c-14.442,0-26.195,11.751-26.195,26.195c0,13.299,9.964,24.304,22.814,25.969
		v7.658h-7.889c-0.146,0-0.258,0.113-0.258,0.253v7.124c0,0.142,0.111,0.254,0.258,0.254h7.889v7.537
		c0,0.141,0.113,0.254,0.254,0.254h7.12c0.142,0,0.258-0.113,0.258-0.254v-7.537h7.888c0.141,0,0.254-0.113,0.254-0.254v-7.124
		c0-0.14-0.113-0.253-0.254-0.253h-7.888v-7.783c12.429-2.039,21.943-12.848,21.943-25.845c0-5.606-1.774-10.802-4.784-15.067
		l8.717-8.718v7.438c0,0.141,0.117,0.254,0.258,0.254h6.645c0.142,0,0.26-0.113,0.26-0.254V61.147
		C117.471,61.005,117.353,60.892,117.211,60.892 M80.182,116.776c-10.632,0-19.279-8.65-19.279-19.281
		c0-10.632,8.647-19.282,19.279-19.282c10.633,0,19.282,8.649,19.282,19.282C99.464,108.126,90.814,116.776,80.182,116.776"/>
	<path fill="#FFFFFF" d="M91.959,89.581H68.572c-0.141,0-0.254,0.104-0.254,0.228v5.662c0,0.133,0.113,0.232,0.254,0.232h23.387
		c0.146,0,0.259-0.1,0.259-0.232v-5.662C92.218,89.685,92.104,89.581,91.959,89.581"/>
	<path fill="#FFFFFF" d="M91.959,99.69H68.572c-0.141,0-0.254,0.107-0.254,0.236v5.662c0,0.127,0.113,0.229,0.254,0.229h23.387
		c0.146,0,0.259-0.102,0.259-0.229v-5.662C92.218,99.797,92.104,99.69,91.959,99.69"/>
</g>
<g>
	<path fill="#FFFFFF" d="M50.152,19.421h3.241v7.242h-1.641v-1.48c-0.3,1.021-0.94,1.641-2.181,1.641c-1.96,0-2.86-1.561-2.86-3.661
		v-6.561c0-2.121,1.021-3.661,3.421-3.661c2.521,0,3.261,1.4,3.261,3.401v1.2h-2.08v-1.38c0-0.84-0.32-1.32-1.141-1.32
		c-0.82,0-1.181,0.58-1.181,1.4v7.282c0,0.82,0.341,1.4,1.12,1.4c0.74,0,1.121-0.42,1.121-1.3v-2.4h-1.081V19.421z"/>
	<path fill="#FFFFFF" d="M54.691,13.1h5.441v1.86h-3.161v3.881h2.261v1.84h-2.261v4.121h3.161v1.86h-5.441V13.1z"/>
	<path fill="#FFFFFF" d="M63.271,18.141v8.522h-1.921V13.1h2.24l2.461,7.782V13.1h1.9v13.563h-2L63.271,18.141z"/>
	<path fill="#FFFFFF" d="M76.072,16.741v6.282c0,2.08-0.86,3.641-3.301,3.641h-3.521V13.1h3.521
		C75.212,13.1,76.072,14.641,76.072,16.741z M72.492,24.803c0.939,0,1.3-0.56,1.3-1.38v-7.102c0-0.8-0.36-1.36-1.3-1.36h-0.961
		v9.842H72.492z"/>
	<path fill="#FFFFFF" d="M77.371,13.1h5.441v1.86h-3.161v3.881h2.261v1.84h-2.261v4.121h3.161v1.86h-5.441V13.1z"/>
	<path fill="#FFFFFF" d="M86.311,20.442v6.221h-2.28V13.1h3.321c2.3,0,3.141,1.14,3.141,3.041v1.741c0,1.46-0.521,2.32-1.821,2.621
		l2.181,6.161h-2.4L86.311,20.442z M86.311,14.96v4.221h0.761c0.78,0,1.12-0.4,1.12-1.121v-2c0-0.74-0.34-1.101-1.12-1.101H86.311z"
		/>
	<path fill="#FFFFFF" d="M46.712,32.1h5.441v1.86h-3.161v3.881h2.261v1.84h-2.261v4.121h3.161v1.86h-5.441V32.1z"/>
	<path fill="#FFFFFF" d="M55.771,46.583v-0.92c-1.82-0.32-2.601-1.66-2.601-3.501v-6.561c0-2.121,1.04-3.661,3.44-3.661
		c2.421,0,3.461,1.541,3.461,3.661v6.561c0,1.48-0.52,2.641-1.68,3.201l1.68,0.32v1.7L55.771,46.583z M57.792,42.643v-7.402
		c0-0.82-0.36-1.4-1.181-1.4c-0.8,0-1.16,0.58-1.16,1.4v7.402c0,0.8,0.36,1.4,1.16,1.4C57.432,44.043,57.792,43.442,57.792,42.643z"
		/>
	<path fill="#FFFFFF" d="M67.991,32.1v10.262c0,2.101-0.899,3.461-3.221,3.461c-2.4,0-3.4-1.36-3.4-3.461V32.1h2.28v10.483
		c0,0.8,0.32,1.34,1.12,1.34c0.801,0,1.121-0.54,1.121-1.34V32.1H67.991z"/>
	<path fill="#FFFFFF" d="M68.631,45.663L71.191,32.1h2.601l2.581,13.563h-2.341l-0.42-2.48h-2.421l-0.399,2.48H68.631z
		 M71.492,41.362h1.82l-0.9-5.441h-0.021L71.492,41.362z"/>
	<path fill="#FFFFFF" d="M77.311,32.1h2.28v11.703h2.721v1.86h-5.001V32.1z"/>
	<path fill="#FFFFFF" d="M83.351,32.1h2.28v13.563h-2.28V32.1z"/>
	<path fill="#FFFFFF" d="M86.69,32.1h6.062v1.86h-1.881v11.703H88.57V33.96h-1.88V32.1z"/>
	<path fill="#FFFFFF" d="M98.251,40.502v5.161H95.97v-5.161L93.43,32.1h2.381l1.38,5.141h0.02l1.381-5.141h2.181L98.251,40.502z"/>
</g>
</svg>
