<?xml version="1.0" encoding="utf-8"?>
<!-- Generator: Adobe Illustrator 17.0.0, SVG Export Plug-In . SVG Version: 6.00 Build 0)  -->
<!DOCTYPE svg PUBLIC "-//W3C//DTD SVG 1.1//EN" "http://www.w3.org/Graphics/SVG/1.1/DTD/svg11.dtd">
<svg version="1.1" id="Layer_1" xmlns="http://www.w3.org/2000/svg" xmlns:xlink="http://www.w3.org/1999/xlink" x="0px" y="0px"
	 width="160.922px" height="160.93px" viewBox="0 0 160.922 160.93" enable-background="new 0 0 160.922 160.93"
	 xml:space="preserve">
<rect x="0" y="0" fill="#1C97D4" width="160.922" height="160.93"/>
<polygon fill="#FFFFFF" points="20.966,13.541 20.966,45.973 15.512,45.973 15.512,21.147 15.464,21.147 11.639,25.117 
	11.589,25.117 11.589,19.424 16.611,13.541 "/>
<path fill="#FFFFFF" d="M37.573,45.98v-5.264h2.201v-4.26h-2.201V13.533h-5.36l-9.428,23.833v3.351h9.619v5.264H37.573z
	 M27.57,36.457l4.882-13.353H32.5v13.353H27.57z"/>
<g>
	<path fill="#FFFFFF" d="M123.555,117.417c-2.025-2.736-15.107-19.415-33.448-19.415c-15.927,0-32.965,14.446-32.965,14.446
		s-6.4-13.1-19.492-14.358c-0.077,0-0.159-0.017-0.246-0.017h-0.081c-0.273,0.015-0.529,0.281-0.5,0.518
		c0.037,0.229,0.205,0.479,0.205,0.479c1.688,2.802,5.994,10.772,5.994,18.735c0,7.989-4.332,15.981-6.004,18.769l-0.113,0.178
		c-0.049,0.084-0.082,0.168-0.082,0.276c0,0.276,0.215,0.491,0.483,0.516l0.142-0.012c0.044,0,0.091,0,0.138-0.013
		c13.133-1.224,19.557-14.363,19.557-14.363s17.038,14.447,32.965,14.447c18.341,0,31.423-16.68,33.448-19.41
		c0.056-0.075,0.101-0.139,0.141-0.188c0.023-0.064,0.043-0.124,0.043-0.201c0-0.072-0.02-0.144-0.043-0.2
		C123.655,117.55,123.61,117.486,123.555,117.417 M100.305,119.913c-2.957,0-5.354-2.4-5.354-5.355c0-2.956,2.396-5.349,5.354-5.349
		c2.964,0,5.359,2.394,5.359,5.349C105.664,117.513,103.269,119.913,100.305,119.913"/>
	<path fill="#FFFFFF" d="M37.236,66.652c-0.04-0.009-0.067-0.023-0.101-0.023c-0.29,0-0.526,0.237-0.526,0.532v3.65
		c0,0.153,0.058,0.287,0.153,0.378c8.854,7.693,17.236,0.485,19.177-1.42c0.04-0.058,0.081-0.113,0.139-0.148
		c0.087-0.056,0.182-0.095,0.29-0.095c0.137,0,0.266,0.053,0.356,0.141c0.007,0.01,0.018,0.018,0.025,0.022
		c10.001,9.544,20.487,1.814,22.669,0l0.215-0.196c0.062-0.029,0.128-0.04,0.199-0.04c0.074,0,0.149,0.011,0.208,0.04l0.216,0.196
		c2.181,1.814,12.667,9.544,22.667,0c0.002-0.004,0.015-0.013,0.02-0.022c0.094-0.088,0.217-0.141,0.355-0.141
		c0.108,0,0.209,0.04,0.29,0.095c0.061,0.035,0.103,0.091,0.147,0.148c1.938,1.905,10.312,9.113,19.174,1.42
		c0.092-0.091,0.152-0.225,0.152-0.378v-3.65c0-0.295-0.23-0.532-0.52-0.532c-0.038,0-0.073,0.014-0.113,0.023
		c-0.082,0.047-0.167,0.091-0.266,0.138c-2.723,1.364-11.168,4.608-18.834-2.645c-0.072-0.067-0.147-0.135-0.223-0.213
		c-0.07-0.029-0.138-0.048-0.224-0.048c-0.054,0-0.111,0.015-0.158,0.024c-0.114,0.046-0.205,0.119-0.267,0.207
		c-2.285,1.742-12.771,8.841-22.11,0.129l-0.137-0.133c-0.098-0.086-0.23-0.157-0.379-0.157c-0.138,0-0.274,0.071-0.365,0.157
		l-0.146,0.133c-9.334,8.711-19.832,1.612-22.113-0.129c-0.06-0.088-0.147-0.161-0.26-0.207c-0.054-0.009-0.107-0.024-0.167-0.024
		c-0.074,0-0.148,0.019-0.22,0.048c-0.068,0.078-0.149,0.146-0.225,0.213c-7.665,7.253-16.107,4.009-18.832,2.645
		C37.41,66.743,37.319,66.699,37.236,66.652"/>
	<path fill="#FFFFFF" d="M55.939,83.052c0.042-0.06,0.081-0.104,0.14-0.145c0.086-0.054,0.182-0.099,0.289-0.099
		c0.137,0,0.267,0.056,0.358,0.146c0.005,0.009,0.016,0.016,0.023,0.022c9.998,9.531,20.487,1.806,22.67,0l0.214-0.204
		c0.062-0.024,0.128-0.033,0.198-0.033c0.076,0,0.148,0.009,0.211,0.033l0.214,0.204c2.181,1.806,12.666,9.531,22.668,0
		c0.002-0.006,0.011-0.014,0.019-0.022c0.094-0.091,0.216-0.146,0.354-0.146c0.11,0,0.21,0.045,0.29,0.099
		c0.062,0.041,0.104,0.085,0.148,0.145c1.938,1.907,10.312,9.117,19.174,1.417c0.093-0.094,0.155-0.218,0.155-0.37v-3.66
		c0-0.291-0.234-0.524-0.522-0.524c-0.038,0-0.073,0.015-0.113,0.022c-0.082,0.04-0.168,0.086-0.266,0.133
		c-2.721,1.365-11.17,4.602-18.834-2.642c-0.071-0.068-0.146-0.137-0.222-0.21c-0.071-0.04-0.139-0.052-0.225-0.052
		c-0.054,0-0.11,0.013-0.158,0.04c-0.115,0.029-0.205,0.102-0.267,0.196c-2.283,1.739-12.771,8.841-22.111,0.128l-0.137-0.137
		c-0.097-0.093-0.23-0.146-0.379-0.146c-0.137,0-0.274,0.053-0.365,0.146l-0.145,0.137c-9.334,8.712-19.832,1.611-22.113-0.128
		c-0.06-0.095-0.148-0.167-0.259-0.196c-0.054-0.027-0.11-0.04-0.168-0.04c-0.075,0-0.147,0.013-0.218,0.052
		c-0.072,0.074-0.149,0.142-0.228,0.21c-7.665,7.243-16.106,4.007-18.831,2.642c-0.096-0.047-0.186-0.093-0.269-0.133
		c-0.041-0.007-0.067-0.022-0.101-0.022c-0.291,0-0.527,0.232-0.527,0.524v3.66c0,0.152,0.058,0.275,0.152,0.37
		C45.616,92.169,54,84.959,55.939,83.052"/>
</g>
<g>
	<path fill="#FFFFFF" d="M52.556,13.357h2.28V25.06h2.721v1.86h-5.001V13.357z"/>
	<path fill="#FFFFFF" d="M58.596,13.357h2.28V26.92h-2.28V13.357z"/>
	<path fill="#FFFFFF" d="M62.195,13.357h5.341v1.86h-3.061v3.881h2.281v1.84h-2.281v5.982h-2.28V13.357z"/>
	<path fill="#FFFFFF" d="M68.536,13.357h5.441v1.86h-3.161v3.881h2.261v1.84h-2.261v4.121h3.161v1.86h-5.441V13.357z"/>
	<path fill="#FFFFFF" d="M52.556,32.357h3.301c2.28,0,3.041,1.061,3.041,2.981v1.38c0,1.141-0.421,1.86-1.36,2.161
		c1.14,0.26,1.7,1.02,1.7,2.26v1.801c0,1.92-0.86,2.98-3.141,2.98h-3.541V32.357z M54.836,38.079h0.801c0.74,0,1.08-0.38,1.08-1.1
		v-1.66c0-0.74-0.34-1.101-1.101-1.101h-0.78V38.079z M54.836,39.819v4.241h1.001c0.76,0,1.12-0.38,1.12-1.1v-2.041
		c0-0.72-0.341-1.1-1.141-1.1H54.836z"/>
	<path fill="#FFFFFF" d="M60.375,32.357h5.441v1.86h-3.161v3.881h2.261v1.84h-2.261v4.121h3.161v1.86h-5.441V32.357z"/>
	<path fill="#FFFFFF" d="M67.034,32.357h2.28V44.06h2.721v1.86h-5.001V32.357z"/>
	<path fill="#FFFFFF" d="M72.976,42.419v-6.561c0-2.121,1.04-3.661,3.44-3.661c2.421,0,3.461,1.541,3.461,3.661v6.561
		c0,2.101-1.04,3.661-3.461,3.661C74.016,46.081,72.976,44.52,72.976,42.419z M77.597,42.78v-7.282c0-0.82-0.36-1.4-1.181-1.4
		c-0.8,0-1.16,0.581-1.16,1.4v7.282c0,0.82,0.36,1.4,1.16,1.4C77.236,44.18,77.597,43.6,77.597,42.78z"/>
	<path fill="#FFFFFF" d="M85.895,37.539l-1.28,8.382h-2.141l-1.82-13.563h2.201l1.06,8.602h0.021l1.14-8.602h1.86l1.261,8.602h0.02
		l1.041-8.602h1.92l-1.76,13.563h-2.161l-1.34-8.382H85.895z"/>
	<path fill="#FFFFFF" d="M99.175,37.539l-1.28,8.382h-2.141l-1.82-13.563h2.201l1.06,8.602h0.021l1.14-8.602h1.86l1.261,8.602h0.02
		l1.041-8.602h1.92l-1.76,13.563h-2.161l-1.34-8.382H99.175z"/>
	<path fill="#FFFFFF" d="M104.273,45.92l2.561-13.563h2.601l2.581,13.563h-2.341l-0.42-2.48h-2.421l-0.399,2.48H104.273z
		 M107.135,41.62h1.82l-0.9-5.441h-0.021L107.135,41.62z"/>
	<path fill="#FFFFFF" d="M111.694,32.357h6.062v1.86h-1.881V45.92h-2.301V34.218h-1.88V32.357z"/>
	<path fill="#FFFFFF" d="M118.813,32.357h5.441v1.86h-3.161v3.881h2.261v1.84h-2.261v4.121h3.161v1.86h-5.441V32.357z"/>
	<path fill="#FFFFFF" d="M127.754,39.699v6.221h-2.28V32.357h3.321c2.3,0,3.141,1.14,3.141,3.041v1.741
		c0,1.46-0.52,2.32-1.821,2.621l2.181,6.161h-2.4L127.754,39.699z M127.754,34.218v4.221h0.761c0.78,0,1.12-0.4,1.12-1.121v-2
		c0-0.74-0.34-1.101-1.12-1.101H127.754z"/>
</g>
</svg>
